{
.appVersion = "1343";
DisplayStrings = (

glyphs = (
{
color = 8;
glyphname = i.sc;
lastChange = "2019-03-03 08:57:55 +0000";
layers = (
{
anchors = (
{
name = bottom;
position = "{160, 0}";
},
{
name = ogonek;
position = "{212, 10}";
},
{
name = top;
position = "{160, 560}";
}
);
layerId = "5EE76762-6375-4A5E-A826-D96F22DA5141";
paths = (
{
closed = 1;
nodes = (
"282 0 LINE",
"282 38 LINE",
"210 40 LINE",
"210 521 LINE",
"282 522 LINE",
"282 560 LINE",
"38 560 LINE",
"38 522 LINE",
"110 521 LINE",
"110 40 LINE",
"38 38 LINE",
"38 0 LINE"
);
}
);
width = 320;
},
{
anchors = (
{
name = bottom;
position = "{186, 0}";
},
{
name = ogonek;
position = "{277, 10}";
},
{
name = top;
position = "{186, 560}";
}
);
layerId = "E37CEFC3-0F3F-4B77-973B-7BF6C2788C53";
paths = (
{
closed = 1;
nodes = (
"350 0 LINE",
"350 48 LINE",
"270 52 LINE",
"270 508 LINE",
"350 512 LINE",
"350 560 LINE",
"22 560 LINE",
"22 512 LINE",
"102 508 LINE",
"102 52 LINE",
"22 48 LINE",
"22 0 LINE"
);
}
);
width = 372;
}
);
leftKerningGroup = bdefhiklpr.sc;
leftMetricsKey = "=h.sc";
rightKerningGroup = him.sc.right;
rightMetricsKey = "=h.sc";
},
{
color = 4;
glyphname = zero.sups;
lastChange = "2018-12-31 12:42:13 +0000";
layers = (
{
layerId = "5EE76762-6375-4A5E-A826-D96F22DA5141";
paths = (
{
closed = 1;
nodes = (
"287 350 OFFCURVE",
"368 431 OFFCURVE",
"368 600 CURVE SMOOTH",
"368 769 OFFCURVE",
"287 850 OFFCURVE",
"190 850 CURVE SMOOTH",
"93 850 OFFCURVE",
"12 769 OFFCURVE",
"12 600 CURVE SMOOTH",
"12 431 OFFCURVE",
"93 350 OFFCURVE",
"190 350 CURVE SMOOTH"
);
},
{
closed = 1;
nodes = (
"119 383 OFFCURVE",
"92 468 OFFCURVE",
"92 600 CURVE SMOOTH",
"92 733 OFFCURVE",
"119 817 OFFCURVE",
"190 817 CURVE SMOOTH",
"261 817 OFFCURVE",
"288 733 OFFCURVE",
"288 600 CURVE SMOOTH",
"288 468 OFFCURVE",
"261 383 OFFCURVE",
"190 383 CURVE SMOOTH"
);
}
);
width = 380;
},
{
layerId = "E37CEFC3-0F3F-4B77-973B-7BF6C2788C53";
paths = (
{
closed = 1;
nodes = (
"317 350 OFFCURVE",
"406 425 OFFCURVE",
"406 600 CURVE SMOOTH",
"406 775 OFFCURVE",
"317 850 OFFCURVE",
"205 850 CURVE SMOOTH",
"93 850 OFFCURVE",
"4 775 OFFCURVE",
"4 600 CURVE SMOOTH",
"4 425 OFFCURVE",
"93 350 OFFCURVE",
"205 350 CURVE SMOOTH"
);
},
{
closed = 1;
nodes = (
"164 390 OFFCURVE",
"136 448 OFFCURVE",
"136 600 CURVE SMOOTH",
"136 752 OFFCURVE",
"164 810 OFFCURVE",
"205 810 CURVE SMOOTH",
"246 810 OFFCURVE",
"274 752 OFFCURVE",
"274 600 CURVE SMOOTH",
"274 448 OFFCURVE",
"246 390 OFFCURVE",
"205 390 CURVE SMOOTH"
);
}
);
width = 410;
}
);
},
{
color = 4;
glyphname = one.sups;
lastChange = "2018-12-31 12:42:13 +0000";
layers = (
{
layerId = "5EE76762-6375-4A5E-A826-D96F22DA5141";
paths = (
{
closed = 1;
nodes = (
"230 851 LINE",
"50 806 LINE",
"53 785 LINE",
"155 792 LINE",
"155 394 LINE",
"46 388 LINE",
"46 360 LINE",
"342 360 LINE",
"342 388 LINE",
"233 394 LINE",
"233 850 LINE"
);
}
);
width = 380;
},
{
layerId = "E37CEFC3-0F3F-4B77-973B-7BF6C2788C53";
paths = (
{
closed = 1;
nodes = (
"277 848 LINE",
"44 800 LINE",
"47 768 LINE",
"159 776 LINE",
"159 400 LINE",
"47 396 LINE",
"47 360 LINE",
"392 360 LINE",
"392 396 LINE",
"279 400 LINE",
"279 846 LINE"
);
}
);
width = 410;
}
);
},
{
color = 4;
glyphname = two.sups;
lastChange = "2019-01-12 10:03:11 +0000";
layers = (
{
layerId = "5EE76762-6375-4A5E-A826-D96F22DA5141";
paths = (
{
closed = 1;
nodes = (
"14 360 LINE",
"332 360 LINE",
"334 361 LINE",
"348 482 LINE",
"320 484 LINE",
"302 425 LINE",
"89 415 LINE",
"88 417 LINE",
"221 532 OFFCURVE",
"320 617.896 OFFCURVE",
"320 727 CURVE SMOOTH",
"320 816 OFFCURVE",
"254 850 OFFCURVE",
"180 850 CURVE SMOOTH",
"108 850 OFFCURVE",
"21 818 OFFCURVE",
"21 761 CURVE SMOOTH",
"21 737 OFFCURVE",
"37 728 OFFCURVE",
"53 728 CURVE SMOOTH",
"108 728 OFFCURVE",
"89 818 OFFCURVE",
"165 818 CURVE SMOOTH",
"212 818 OFFCURVE",
"238 784 OFFCURVE",
"238 725 CURVE SMOOTH",
"238 641 OFFCURVE",
"183 559 OFFCURVE",
"10 384 CURVE"
);
}
);
width = 380;
},
{
layerId = "E37CEFC3-0F3F-4B77-973B-7BF6C2788C53";
paths = (
{
closed = 1;
nodes = (
"14 360 LINE",
"378 360 LINE",
"380 362 LINE",
"390 531 LINE",
"358 534 LINE",
"341 474 LINE",
"130 466 LINE",
"130 468 LINE",
"274 573 OFFCURVE",
"361 633 OFFCURVE",
"361 728 CURVE SMOOTH",
"361 817 OFFCURVE",
"286 850 OFFCURVE",
"195 850 CURVE SMOOTH",
"110 850 OFFCURVE",
"20 821 OFFCURVE",
"20 747 CURVE SMOOTH",
"20 708 OFFCURVE",
"44 689 OFFCURVE",
"76 689 CURVE SMOOTH",
"158 689 OFFCURVE",
"120 810 OFFCURVE",
"186 810 CURVE SMOOTH",
"216 810 OFFCURVE",
"231 785 OFFCURVE",
"231 741 CURVE SMOOTH",
"231 667 OFFCURVE",
"189 591 OFFCURVE",
"6 392 CURVE"
);
}
);
width = 410;
}
);
},
{
color = 4;
glyphname = three.sups;
lastChange = "2019-01-12 11:06:40 +0000";
layers = (
{
layerId = "5EE76762-6375-4A5E-A826-D96F22DA5141";
paths = (
{
closed = 1;
nodes = (
"20 377 OFFCURVE",
"79 350 OFFCURVE",
"157 350 CURVE SMOOTH",
"261 350 OFFCURVE",
"356 397 OFFCURVE",
"356 495 CURVE SMOOTH",
"356 575.409 OFFCURVE",
"292.126 620.717 OFFCURVE",
"203 623 CURVE",
"203 625 LINE",
"274 651 OFFCURVE",
"325 694 OFFCURVE",
"325 754 CURVE SMOOTH",
"325 818 OFFCURVE",
"267 850 OFFCURVE",
"194 850 CURVE SMOOTH",
"120 850 OFFCURVE",
"35 818 OFFCURVE",
"35 761 CURVE SMOOTH",
"35 737 OFFCURVE",
"50 728 OFFCURVE",
"67 728 CURVE SMOOTH",
"122 728 OFFCURVE",
"100 818 OFFCURVE",
"177 818 CURVE SMOOTH",
"226 818 OFFCURVE",
"247 783 OFFCURVE",
"247 747 CURVE SMOOTH",
"247 704 OFFCURVE",
"216 647 OFFCURVE",
"109 622 CURVE",
"112 592 LINE",
"209 605 OFFCURVE",
"274 569 OFFCURVE",
"274 489 CURVE SMOOTH",
"274 417 OFFCURVE",
"222 385 OFFCURVE",
"174 385 CURVE SMOOTH",
"106 385 OFFCURVE",
"100 450 OFFCURVE",
"54 450 CURVE SMOOTH",
"31 450 OFFCURVE",
"20 434 OFFCURVE",
"20 416 CURVE SMOOTH"
);
}
);
width = 380;
},
{
layerId = "E37CEFC3-0F3F-4B77-973B-7BF6C2788C53";
paths = (
{
closed = 1;
nodes = (
"12 387 OFFCURVE",
"83 350 OFFCURVE",
"173 350 CURVE SMOOTH",
"267 350 OFFCURVE",
"382 390 OFFCURVE",
"382 497 CURVE SMOOTH",
"382 579 OFFCURVE",
"315 614 OFFCURVE",
"228 617 CURVE",
"228 619 LINE",
"312 645 OFFCURVE",
"355 687.445 OFFCURVE",
"355 746 CURVE SMOOTH",
"355 823 OFFCURVE",
"278 850 OFFCURVE",
"197 850 CURVE SMOOTH",
"112 850 OFFCURVE",
"22 821 OFFCURVE",
"22 747 CURVE SMOOTH",
"22 708 OFFCURVE",
"46 689 OFFCURVE",
"78 689 CURVE SMOOTH",
"160 689 OFFCURVE",
"122 810 OFFCURVE",
"188 810 CURVE SMOOTH",
"216 810 OFFCURVE",
"235 788 OFFCURVE",
"235 741 CURVE SMOOTH",
"235 684 OFFCURVE",
"207 640 OFFCURVE",
"117 618 CURVE",
"120 585 LINE",
"185 585 OFFCURVE",
"252 575 OFFCURVE",
"252 489 CURVE SMOOTH",
"252 431 OFFCURVE",
"221 392 OFFCURVE",
"185 392 CURVE SMOOTH",
"122 392 OFFCURVE",
"147 510 OFFCURVE",
"68 510 CURVE SMOOTH",
"27 510 OFFCURVE",
"12 479 OFFCURVE",
"12 450 CURVE SMOOTH"
);
}
);
width = 410;
}
);
},
{
color = 4;
glyphname = four.sups;
lastChange = "2019-01-12 10:02:54 +0000";
layers = (
{
layerId = "5EE76762-6375-4A5E-A826-D96F22DA5141";
paths = (
{
closed = 1;
nodes = (
"219 492 LINE",
"219 389 LINE",
"157 388 LINE",
"157 360 LINE",
"355 360 LINE",
"355 388 LINE",
"293 389 LINE",
"293 492 LINE",
"362 492 LINE",
"362 526 LINE",
"293 526 LINE",
"293 839 LINE",
"292 840 LINE",
"254 850 LINE",
"10 515 LINE",
"10 492 LINE"
);
},
{
closed = 1;
nodes = (
"219 738 LINE",
"219 526 LINE",
"63 526 LINE"
);
}
);
width = 380;
},
{
layerId = "E37CEFC3-0F3F-4B77-973B-7BF6C2788C53";
paths = (
{
closed = 1;
nodes = (
"206 470 LINE",
"206 398 LINE",
"144 396 LINE",
"144 360 LINE",
"389 360 LINE",
"389 396 LINE",
"326 398 LINE",
"326 470 LINE",
"398 470 LINE",
"398 510 LINE",
"326 510 LINE",
"326 848 LINE",
"324 850 LINE",
"276 850 LINE",
"-4 497 LINE",
"-4 470 LINE"
);
},
{
closed = 1;
nodes = (
"206 695 LINE",
"206 510 LINE",
"60 510 LINE"
);
}
);
width = 410;
}
);
},
{
color = 4;
glyphname = five.sups;
lastChange = "2019-01-12 11:06:21 +0000";
layers = (
{
layerId = "5EE76762-6375-4A5E-A826-D96F22DA5141";
paths = (
{
closed = 1;
nodes = (
"16 376 OFFCURVE",
"75 350 OFFCURVE",
"153 350 CURVE SMOOTH",
"257 350 OFFCURVE",
"352 397 OFFCURVE",
"352 511 CURVE SMOOTH",
"352 620.072 OFFCURVE",
"266.645 678.878 OFFCURVE",
"89 669 CURVE",
"108 780 LINE",
"319 772 LINE",
"320 773 LINE",
"334 893 LINE",
"306 895 LINE",
"291 840 LINE",
"83 840 LINE",
"46 634 LINE",
"47 633 LINE",
"192 630 OFFCURVE",
"270 588 OFFCURVE",
"270 494 CURVE SMOOTH",
"270 417 OFFCURVE",
"218 382 OFFCURVE",
"170 382 CURVE SMOOTH",
"103 382 OFFCURVE",
"96 450 OFFCURVE",
"50 450 CURVE SMOOTH",
"27 450 OFFCURVE",
"16 433 OFFCURVE",
"16 416 CURVE SMOOTH"
);
}
);
width = 380;
},
{
layerId = "E37CEFC3-0F3F-4B77-973B-7BF6C2788C53";
paths = (
{
closed = 1;
nodes = (
"18 387 OFFCURVE",
"83 350 OFFCURVE",
"173 350 CURVE SMOOTH",
"269 350 OFFCURVE",
"382 392 OFFCURVE",
"382 508 CURVE SMOOTH",
"382 615.736 OFFCURVE",
"285.911 675.427 OFFCURVE",
"90 640 CURVE",
"102 736 LINE",
"338 730 LINE",
"340 732 LINE",
"351 892 LINE",
"321 894 LINE",
"303 840 LINE",
"74 840 LINE",
"44 589 LINE",
"46 587 LINE",
"200 603 OFFCURVE",
"252 563 OFFCURVE",
"252 486 CURVE SMOOTH",
"252 427 OFFCURVE",
"221 392 OFFCURVE",
"189 392 CURVE SMOOTH",
"130 392 OFFCURVE",
"154 510 OFFCURVE",
"75 510 CURVE SMOOTH",
"34 510 OFFCURVE",
"18 480 OFFCURVE",
"18 449 CURVE SMOOTH"
);
}
);
width = 410;
}
);
},
{
color = 4;
glyphname = six.sups;
lastChange = "2019-02-17 16:15:16 +0000";
layers = (
{
layerId = "5EE76762-6375-4A5E-A826-D96F22DA5141";
paths = (
{
closed = 1;
nodes = (
"26 447 OFFCURVE",
"78 350 OFFCURVE",
"195 350 CURVE SMOOTH",
"284 350 OFFCURVE",
"364 405 OFFCURVE",
"364 517 CURVE SMOOTH",
"364 624 OFFCURVE",
"292 659 OFFCURVE",
"230 659 CURVE SMOOTH",
"179 659 OFFCURVE",
"136 635 OFFCURVE",
"104 607 CURVE",
"108 771 OFFCURVE",
"166 815 OFFCURVE",
"216 815 CURVE SMOOTH",
"273 815 OFFCURVE",
"273 757 OFFCURVE",
"318 757 CURVE SMOOTH",
"341 757 OFFCURVE",
"353 772 OFFCURVE",
"353 790 CURVE SMOOTH",
"353 830 OFFCURVE",
"300 850 OFFCURVE",
"243 850 CURVE SMOOTH",
"125 850 OFFCURVE",
"26 762 OFFCURVE",
"26 579 CURVE SMOOTH"
);
},
{
closed = 1;
nodes = (
"127 596 OFFCURVE",
"158 613 OFFCURVE",
"195 613 CURVE SMOOTH",
"232 613 OFFCURVE",
"286 596 OFFCURVE",
"286 498 CURVE SMOOTH",
"286 413 OFFCURVE",
"244 379 OFFCURVE",
"201 379 CURVE SMOOTH",
"135 379 OFFCURVE",
"106 459 OFFCURVE",
"104 577 CURVE"
);
}
);
width = 380;
},
{
layerId = "E37CEFC3-0F3F-4B77-973B-7BF6C2788C53";
paths = (
{
closed = 1;
nodes = (
"4 444 OFFCURVE",
"77 350 OFFCURVE",
"205 350 CURVE SMOOTH",
"298 350 OFFCURVE",
"398 399 OFFCURVE",
"398 515 CURVE SMOOTH",
"398 615 OFFCURVE",
"324 653 OFFCURVE",
"253 653 CURVE SMOOTH",
"208 653 OFFCURVE",
"164 638 OFFCURVE",
"132 616 CURVE",
"136 771 OFFCURVE",
"175 808 OFFCURVE",
"211 808 CURVE SMOOTH",
"274 808 OFFCURVE",
"247 697 OFFCURVE",
"325 697 CURVE SMOOTH",
"365 697 OFFCURVE",
"383 726 OFFCURVE",
"383 759 CURVE SMOOTH",
"383 823 OFFCURVE",
"315 850 OFFCURVE",
"238 850 CURVE SMOOTH",
"95 850 OFFCURVE",
"4 757 OFFCURVE",
"4 589 CURVE SMOOTH"
);
},
{
closed = 1;
nodes = (
"153 584 OFFCURVE",
"177 594 OFFCURVE",
"201 594 CURVE SMOOTH",
"231 594 OFFCURVE",
"271 578 OFFCURVE",
"271 491 CURVE SMOOTH",
"271 413 OFFCURVE",
"239 390 OFFCURVE",
"209 390 CURVE SMOOTH",
"158 390 OFFCURVE",
"135 457 OFFCURVE",
"132 570 CURVE"
);
}
);
width = 410;
}
);
},
{
color = 4;
glyphname = seven.sups;
lastChange = "2019-01-12 10:03:24 +0000";
layers = (
{
layerId = "5EE76762-6375-4A5E-A826-D96F22DA5141";
paths = (
{
closed = 1;
nodes = (
"54 716 LINE",
"72 775 LINE",
"312 784 LINE",
"71 361 LINE",
"72 360 LINE",
"153 360 LINE",
"364 816 LINE",
"360 840 LINE",
"42 840 LINE",
"40 839 LINE",
"26 718 LINE"
);
}
);
width = 380;
},
{
layerId = "E37CEFC3-0F3F-4B77-973B-7BF6C2788C53";
paths = (
{
closed = 1;
nodes = (
"54 666 LINE",
"71 726 LINE",
"327 734 LINE",
"63 362 LINE",
"64 360 LINE",
"225 360 LINE",
"406 808 LINE",
"398 840 LINE",
"34 840 LINE",
"32 838 LINE",
"22 669 LINE"
);
}
);
width = 410;
}
);
},
{
color = 4;
glyphname = eight.sups;
lastChange = "2019-03-01 21:54:50 +0000";
layers = (
{
layerId = "5EE76762-6375-4A5E-A826-D96F22DA5141";
paths = (
{
closed = 1;
nodes = (
"103 563 OFFCURVE",
"139 601 OFFCURVE",
"190 601 CURVE SMOOTH",
"241 601 OFFCURVE",
"277 563 OFFCURVE",
"277 489 CURVE SMOOTH",
"277 420 OFFCURVE",
"245 380 OFFCURVE",
"190 380 CURVE SMOOTH",
"135 380 OFFCURVE",
"103 420 OFFCURVE",
"103 489 CURVE SMOOTH"
);
},
{
closed = 1;
nodes = (
"118 789 OFFCURVE",
"146 822 OFFCURVE",
"190 822 CURVE SMOOTH",
"234 822 OFFCURVE",
"262 789 OFFCURVE",
"262 731 CURVE SMOOTH",
"262 670 OFFCURVE",
"231 638 OFFCURVE",
"190 638 CURVE SMOOTH",
"149 638 OFFCURVE",
"118 670 OFFCURVE",
"118 731 CURVE SMOOTH"
);
},
{
closed = 1;
nodes = (
"23 393 OFFCURVE",
"93 350 OFFCURVE",
"190 350 CURVE SMOOTH",
"287 350 OFFCURVE",
"357 393 OFFCURVE",
"357 486 CURVE SMOOTH",
"357 556 OFFCURVE",
"313 604 OFFCURVE",
"245 619 CURVE",
"245 621 LINE",
"300 637 OFFCURVE",
"338 676.386 OFFCURVE",
"338 732 CURVE SMOOTH",
"338 806 OFFCURVE",
"275 850 OFFCURVE",
"190 850 CURVE SMOOTH",
"105 850 OFFCURVE",
"42 806 OFFCURVE",
"42 732 CURVE SMOOTH",
"42 676.386 OFFCURVE",
"80 637 OFFCURVE",
"135 621 CURVE",
"135 619 LINE",
"67 604 OFFCURVE",
"23 556 OFFCURVE",
"23 486 CURVE SMOOTH"
);
}
);
width = 380;
},
{
layerId = "E37CEFC3-0F3F-4B77-973B-7BF6C2788C53";
paths = (
{
closed = 1;
nodes = (
"143 559 OFFCURVE",
"165 592 OFFCURVE",
"205 592 CURVE SMOOTH",
"245 592 OFFCURVE",
"267 559 OFFCURVE",
"267 491 CURVE SMOOTH",
"267 429 OFFCURVE",
"249 390 OFFCURVE",
"205 390 CURVE SMOOTH",
"161 390 OFFCURVE",
"143 429 OFFCURVE",
"143 491 CURVE SMOOTH"
);
},
{
closed = 1;
nodes = (
"147 783 OFFCURVE",
"169 810 OFFCURVE",
"205 810 CURVE SMOOTH",
"241 810 OFFCURVE",
"263 783 OFFCURVE",
"263 724 CURVE SMOOTH",
"263 665 OFFCURVE",
"239 636 OFFCURVE",
"205 636 CURVE SMOOTH",
"171 636 OFFCURVE",
"147 665 OFFCURVE",
"147 724 CURVE SMOOTH"
);
},
{
closed = 1;
nodes = (
"20 384 OFFCURVE",
"108 350 OFFCURVE",
"205 350 CURVE SMOOTH",
"302 350 OFFCURVE",
"390 384 OFFCURVE",
"390 485 CURVE SMOOTH",
"390 561 OFFCURVE",
"342 600 OFFCURVE",
"274 614 CURVE",
"274 616 LINE",
"331 630 OFFCURVE",
"376 664.967 OFFCURVE",
"376 730 CURVE SMOOTH",
"376 820 OFFCURVE",
"290 850 OFFCURVE",
"205 850 CURVE SMOOTH",
"120 850 OFFCURVE",
"34 820 OFFCURVE",
"34 730 CURVE SMOOTH",
"34 664.967 OFFCURVE",
"78.904 630.217 OFFCURVE",
"136 616 CURVE",
"136 614 LINE",
"68 600 OFFCURVE",
"20 561 OFFCURVE",
"20 485 CURVE SMOOTH"
);
}
);
width = 410;
}
);
},
{
glyphname = softhyphen;
lastChange = "2019-02-17 14:57:47 +0000";
layers = (
{
layerId = "5EE76762-6375-4A5E-A826-D96F22DA5141";
paths = (
{
closed = 1;
nodes = (
"38 236 LINE",
"320 236 LINE",
"320 306 LINE",
"38 306 LINE"
);
}
);
width = 358;
},
{
layerId = "E37CEFC3-0F3F-4B77-973B-7BF6C2788C53";
paths = (
{
closed = 1;
nodes = (
"16 202 LINE",
"298 202 LINE",
"298 342 LINE",
"16 342 LINE"
);
}
);
width = 314;
}
);
unicode = 00AD;
},
{
color = 0;
glyphname = franc;
lastChange = "2019-03-01 22:03:22 +0000";
layers = (
{
layerId = "5EE76762-6375-4A5E-A826-D96F22DA5141";
paths = (
{
closed = 1;
nodes = (
"340 0 LINE",
"340 42 LINE",
"230 44 LINE",
"230 294 LINE",
"469 294 LINE",
"469 40 LINE",
"389 38 LINE",
"389 0 LINE",
"675 0 LINE",
"675 38 LINE",
"565 40 LINE",
"565 198 LINE SMOOTH",
"565 280 OFFCURVE",
"611 309 OFFCURVE",
"645 309 CURVE SMOOTH",
"679 309 OFFCURVE",
"691 279 OFFCURVE",
"729 279 CURVE SMOOTH",
"750 279 OFFCURVE",
"781 289 OFFCURVE",
"781 333 CURVE SMOOTH",
"781 382 OFFCURVE",
"743 400 OFFCURVE",
"703 400 CURVE SMOOTH",
"641 400 OFFCURVE",
"601 358 OFFCURVE",
"569 304 CURVE",
"565 304 LINE",
"565 378 LINE",
"561 380 LINE",
"469 340 LINE",
"230 340 LINE",
"230 572 LINE",
"416 572 LINE",
"500 433 LINE",
"532 441 LINE",
"501 672 LINE",
"469 674 LINE",
"457 620 LINE",
"38 620 LINE",
"38 578 LINE",
"128 576 LINE",
"128 44 LINE",
"38 42 LINE",
"38 0 LINE"
);
}
);
width = 781;
},
{
layerId = "E37CEFC3-0F3F-4B77-973B-7BF6C2788C53";
paths = (
{
closed = 1;
nodes = (
"368 0 LINE",
"368 48 LINE",
"270 52 LINE",
"270 287 LINE",
"501 287 LINE",
"501 52 LINE",
"421 48 LINE",
"421 0 LINE",
"783 0 LINE",
"783 48 LINE",
"661 52 LINE",
"661 189 LINE SMOOTH",
"661 270 OFFCURVE",
"691 287 OFFCURVE",
"714 287 CURVE SMOOTH",
"754 287 OFFCURVE",
"766 233 OFFCURVE",
"827 233 CURVE SMOOTH",
"864 233 OFFCURVE",
"909 253 OFFCURVE",
"909 321 CURVE SMOOTH",
"909 391 OFFCURVE",
"860 420 OFFCURVE",
"808 420 CURVE SMOOTH",
"745 420 OFFCURVE",
"698 377 OFFCURVE",
"665 320 CURVE",
"661 320 LINE",
"661 394 LINE",
"657 396 LINE",
"501 339 LINE",
"270 339 LINE",
"270 568 LINE",
"442 568 LINE",
"536 432 LINE",
"570 442 LINE",
"529 676 LINE",
"489 678 LINE",
"478 620 LINE",
"22 620 LINE",
"22 572 LINE",
"102 568 LINE",
"102 52 LINE",
"22 48 LINE",
"22 0 LINE"
);
}
);
width = 909;
}
);
leftMetricsKey = "=f.sc";
rightMetricsKey = "=r";
unicode = 20A3;
},
{
color = 0;
glyphname = ruble;
lastChange = "2019-02-17 14:04:10 +0000";
layers = (
{
layerId = "5EE76762-6375-4A5E-A826-D96F22DA5141";
paths = (
{
closed = 1;
nodes = (
"348 580 OFFCURVE",
"418 542 OFFCURVE",
"418 442 CURVE SMOOTH",
"418 353 OFFCURVE",
"363 308 OFFCURVE",
"220 308 CURVE SMOOTH",
"34 308 LINE",
"34 260 LINE",
"236 260 LINE SMOOTH",
"411 260 OFFCURVE",
"526 311 OFFCURVE",
"526 449 CURVE SMOOTH",
"526 564 OFFCURVE",
"447 620 OFFCURVE",
"260 620 CURVE SMOOTH",
"174 620 LINE",
"174 580 LINE",
"242 580 LINE SMOOTH"
);
},
{
closed = 1;
nodes = (
"298 0 LINE",
"298 38 LINE",
"206 40 LINE",
"206 620 LINE",
"34 620 LINE",
"34 582 LINE",
"106 581 LINE",
"106 40 LINE",
"34 38 LINE",
"34 0 LINE"
);
},
{
closed = 1;
nodes = (
"34 129 LINE",
"432 129 LINE",
"432 175 LINE",
"34 175 LINE"
);
}
);
width = 532;
},
{
layerId = "E37CEFC3-0F3F-4B77-973B-7BF6C2788C53";
paths = (
{
closed = 1;
nodes = (
"381 570 OFFCURVE",
"434 546 OFFCURVE",
"434 456 CURVE SMOOTH",
"434 381 OFFCURVE",
"396 328 OFFCURVE",
"301 328 CURVE SMOOTH",
"22 328 LINE",
"22 272 LINE",
"322 272 LINE SMOOTH",
"470 272 OFFCURVE",
"604 320 OFFCURVE",
"604 460 CURVE SMOOTH",
"604 578 OFFCURVE",
"506 620 OFFCURVE",
"341 620 CURVE SMOOTH",
"234 620 LINE",
"234 570 LINE",
"311 570 LINE SMOOTH"
);
},
{
closed = 1;
nodes = (
"368 0 LINE",
"368 48 LINE",
"270 52 LINE",
"270 620 LINE",
"22 620 LINE",
"22 572 LINE",
"102 568 LINE",
"102 52 LINE",
"22 48 LINE",
"22 0 LINE"
);
},
{
closed = 1;
nodes = (
"22 137 LINE",
"480 137 LINE",
"480 195 LINE",
"22 195 LINE"
);
}
);
width = 614;
},
{
associatedMasterId = "5EE76762-6375-4A5E-A826-D96F22DA5141";
layerId = "7F72F16E-F59D-4542-864E-90670EABAC8D";
name = "Dec 19 18, 22:38";
paths = (
{
closed = 1;
nodes = (
"204 570 OFFCURVE",
"284 555 OFFCURVE",
"284 456 CURVE SMOOTH",
"284 370 OFFCURVE",
"222 340 OFFCURVE",
"56 337 CURVE",
"56 297 LINE",
"241 292 OFFCURVE",
"394 330 OFFCURVE",
"394 469 CURVE SMOOTH",
"394 565 OFFCURVE",
"322 620 OFFCURVE",
"138 620 CURVE SMOOTH",
"56 620 LINE",
"56 570 LINE",
"113 570 LINE SMOOTH"
);
},
{
closed = 1;
nodes = (
"124 311 LINE",
"321 40 LINE",
"244 38 LINE",
"244 0 LINE",
"512 0 LINE",
"512 38 LINE",
"452 40 LINE",
"231 323 LINE"
);
},
{
closed = 1;
nodes = (
"16 620 LINE",
"16 570 LINE",
"512 570 LINE",
"512 620 LINE"
);
},
{
closed = 1;
nodes = (
"16 481 LINE",
"16 431 LINE",
"512 431 LINE",
"512 481 LINE"
);
}
);
width = 524;
}
);
rightMetricsKey = "=p.sc";
unicode = 20BD;
},
{
color = 0;
glyphname = rupee;
lastChange = "2019-02-17 14:03:45 +0000";
layers = (
{
layerId = "5EE76762-6375-4A5E-A826-D96F22DA5141";
paths = (
{
closed = 1;
nodes = (
"256 574 OFFCURVE",
"323 548 OFFCURVE",
"323 457 CURVE SMOOTH",
"323 370 OFFCURVE",
"263 334 OFFCURVE",
"158 334 CURVE SMOOTH",
"83 334 LINE",
"83 288 LINE",
"160 288 LINE SMOOTH",
"296 288 OFFCURVE",
"433 332 OFFCURVE",
"433 454 CURVE SMOOTH",
"433 556 OFFCURVE",
"340 610 OFFCURVE",
"152 610 CURVE SMOOTH",
"82 610 LINE",
"82 574 LINE",
"165 574 LINE SMOOTH"
);
},
{
closed = 1;
nodes = (
"158 311 LINE",
"348 40 LINE",
"278 38 LINE",
"278 0 LINE",
"531 0 LINE",
"531 38 LINE",
"476 40 LINE",
"266 322 LINE"
);
},
{
closed = 1;
nodes = (
"82 433 LINE",
"529 433 LINE",
"529 479 LINE",
"82 479 LINE"
);
},
{
closed = 1;
nodes = (
"82 574 LINE",
"529 574 LINE",
"529 620 LINE",
"82 620 LINE"
);
}
);
width = 541;
},
{
layerId = "E37CEFC3-0F3F-4B77-973B-7BF6C2788C53";
paths = (
{
closed = 1;
nodes = (
"155 562 OFFCURVE",
"203 537 OFFCURVE",
"203 454 CURVE SMOOTH",
"203 380 OFFCURVE",
"165 344 OFFCURVE",
"65 344 CURVE SMOOTH",
"10 344 LINE",
"10 286 LINE",
"85 286 LINE SMOOTH",
"226 286 OFFCURVE",
"373 326 OFFCURVE",
"373 456 CURVE SMOOTH",
"373 547 OFFCURVE",
"300 592 OFFCURVE",
"123 592 CURVE SMOOTH",
"10 592 LINE",
"10 562 LINE",
"67 562 LINE SMOOTH"
);
},
{
closed = 1;
nodes = (
"98 307 LINE",
"239 50 LINE",
"167 48 LINE",
"167 0 LINE",
"481 0 LINE",
"481 48 LINE",
"430 50 LINE",
"248 352 LINE"
);
},
{
closed = 1;
nodes = (
"10 427 LINE",
"478 427 LINE",
"478 485 LINE",
"10 485 LINE"
);
},
{
closed = 1;
nodes = (
"10 562 LINE",
"478 562 LINE",
"478 620 LINE",
"10 620 LINE"
);
}
);
width = 481;
}
);
unicode = 20A8;
},
{
color = 3;
glyphname = franc.case;
lastChange = "2019-03-01 22:04:22 +0000";
layers = (
{
components = (
{
name = _P.lig;
}
);
layerId = "5EE76762-6375-4A5E-A826-D96F22DA5141";
paths = (
{
closed = 1;
nodes = (
"469 362 LINE",
"469 40 LINE",
"389 38 LINE",
"389 0 LINE",
"675 0 LINE",
"675 38 LINE",
"565 40 LINE",
"565 268 LINE SMOOTH",
"565 350 OFFCURVE",
"611 381 OFFCURVE",
"649 381 CURVE SMOOTH",
"688 381 OFFCURVE",
"701 349 OFFCURVE",
"739 349 CURVE SMOOTH",
"760 349 OFFCURVE",
"791 359 OFFCURVE",
"791 403 CURVE SMOOTH",
"791 452 OFFCURVE",
"753 470 OFFCURVE",
"711 470 CURVE SMOOTH",
"647 470 OFFCURVE",
"604 428 OFFCURVE",
"569 374 CURVE",
"565 374 LINE",
"565 448 LINE",
"563 449 LINE",
"469 410 LINE",
"190 410 LINE",
"190 362 LINE"
);
},
{
closed = 1;
nodes = (
"463 692 LINE",
"558 523 LINE",
"590 531 LINE",
"549 792 LINE",
"517 794 LINE",
"505 740 LINE",
"228 740 LINE",
"228 692 LINE"
);
}
);
width = 801;
},
{
components = (
{
name = _P.lig;
}
);
layerId = "E37CEFC3-0F3F-4B77-973B-7BF6C2788C53";
paths = (
{
closed = 1;
nodes = (
"521 352 LINE",
"521 52 LINE",
"441 48 LINE",
"441 0 LINE",
"803 0 LINE",
"803 48 LINE",
"681 52 LINE",
"681 259 LINE SMOOTH",
"681 340 OFFCURVE",
"711 357 OFFCURVE",
"734 357 CURVE SMOOTH",
"774 357 OFFCURVE",
"786 303 OFFCURVE",
"847 303 CURVE SMOOTH",
"884 303 OFFCURVE",
"929 323 OFFCURVE",
"929 391 CURVE SMOOTH",
"929 461 OFFCURVE",
"880 490 OFFCURVE",
"828 490 CURVE SMOOTH",
"765 490 OFFCURVE",
"718 447 OFFCURVE",
"685 390 CURVE",
"681 390 LINE",
"681 464 LINE",
"677 466 LINE",
"521 410 LINE",
"286 410 LINE",
"286 352 LINE"
);
},
{
closed = 1;
nodes = (
"495 682 LINE",
"607 513 LINE",
"645 521 LINE",
"599 802 LINE",
"561 804 LINE",
"546 740 LINE",
"286 740 LINE",
"286 682 LINE"
);
}
);
width = 939;
}
);
leftMetricsKey = "=F";
rightMetricsKey = "=r+10";
},
{
color = 3;
glyphname = ruble.case;
lastChange = "2019-02-17 18:17:44 +0000";
layers = (
{
components = (
{
name = _devbarcase;
transform = "{1, 0, 0, 1, 36, -236}";
},
{
name = _P.lig;
transform = "{1, 0, 0, 1, 16, 0}";
}
);
layerId = "5EE76762-6375-4A5E-A826-D96F22DA5141";
paths = (
{
closed = 1;
nodes = (
"292 314 LINE SMOOTH",
"507 314 OFFCURVE",
"627 394 OFFCURVE",
"627 540 CURVE SMOOTH",
"627 684 OFFCURVE",
"510 740 OFFCURVE",
"324 740 CURVE SMOOTH",
"244 740 LINE",
"244 698 LINE",
"319 698 LINE SMOOTH",
"428 698 OFFCURVE",
"511 646 OFFCURVE",
"511 533 CURVE SMOOTH",
"511 435 OFFCURVE",
"447 364 OFFCURVE",
"272 364 CURVE SMOOTH",
"50 364 LINE",
"50 314 LINE"
);
}
);
width = 643;
},
{
components = (
{
name = _devbarcase;
transform = "{1.04, 0, 0, 1, 28, -252}";
},
{
name = _P.lig;
transform = "{1, 0, 0, 1, 16, 0}";
}
);
layerId = "E37CEFC3-0F3F-4B77-973B-7BF6C2788C53";
paths = (
{
closed = 1;
nodes = (
"361 313 LINE SMOOTH",
"565 313 OFFCURVE",
"675 397 OFFCURVE",
"675 538 CURVE SMOOTH",
"675 682 OFFCURVE",
"554 740 OFFCURVE",
"388 740 CURVE SMOOTH",
"302 740 LINE",
"302 686 LINE",
"333 686 LINE SMOOTH",
"432 686 OFFCURVE",
"495 644 OFFCURVE",
"495 529 CURVE SMOOTH",
"495 438 OFFCURVE",
"455 367 OFFCURVE",
"339 367 CURVE SMOOTH",
"40 367 LINE",
"40 313 LINE"
);
}
);
width = 691;
},
{
associatedMasterId = "5EE76762-6375-4A5E-A826-D96F22DA5141";
layerId = "7F72F16E-F59D-4542-864E-90670EABAC8D";
name = "Dec 19 18, 22:38";
paths = (
{
closed = 1;
nodes = (
"204 570 OFFCURVE",
"284 555 OFFCURVE",
"284 456 CURVE SMOOTH",
"284 370 OFFCURVE",
"222 340 OFFCURVE",
"56 337 CURVE",
"56 297 LINE",
"241 292 OFFCURVE",
"394 330 OFFCURVE",
"394 469 CURVE SMOOTH",
"394 565 OFFCURVE",
"322 620 OFFCURVE",
"138 620 CURVE SMOOTH",
"56 620 LINE",
"56 570 LINE",
"113 570 LINE SMOOTH"
);
},
{
closed = 1;
nodes = (
"124 311 LINE",
"321 40 LINE",
"244 38 LINE",
"244 0 LINE",
"512 0 LINE",
"512 38 LINE",
"452 40 LINE",
"231 323 LINE"
);
},
{
closed = 1;
nodes = (
"16 620 LINE",
"16 570 LINE",
"512 570 LINE",
"512 620 LINE"
);
},
{
closed = 1;
nodes = (
"16 481 LINE",
"16 431 LINE",
"512 431 LINE",
"512 481 LINE"
);
}
);
width = 524;
}
);
leftMetricsKey = "=P+16";
},
{
color = 3;
glyphname = rupee.case;
lastChange = "2019-02-17 18:34:01 +0000";
layers = (
{
components = (
{
name = _devbarcase;
transform = "{0.98039, 0, 0, 1, 10, 114}";
},
{
name = _devbarcase;
transform = "{0.98039, 0, 0, 1, 10, 280}";
}
);
layerId = "5EE76762-6375-4A5E-A826-D96F22DA5141";
paths = (
{
closed = 1;
nodes = (
"206 688 OFFCURVE",
"281 660 OFFCURVE",
"281 549 CURVE SMOOTH",
"281 442 OFFCURVE",
"213 408 OFFCURVE",
"90 408 CURVE SMOOTH",
"23 408 LINE",
"23 358 LINE",
"100 358 LINE SMOOTH",
"244 358 OFFCURVE",
"391 408 OFFCURVE",
"391 550 CURVE SMOOTH",
"391 672 OFFCURVE",
"288 730 OFFCURVE",
"92 730 CURVE SMOOTH",
"22 730 LINE",
"22 688 LINE",
"97 688 LINE SMOOTH"
);
},
{
closed = 1;
nodes = (
"94 376 LINE",
"306 44 LINE",
"222 42 LINE",
"222 0 LINE",
"522 0 LINE",
"522 42 LINE",
"446 44 LINE",
"201 399 LINE"
);
}
);
width = 532;
},
{
components = (
{
name = _devbarcase;
transform = "{1.1, 0, 0, 1, 11, 114}";
},
{
name = _devbarcase;
transform = "{1.1, 0, 0, 1, 11, 280}";
}
);
layerId = "E37CEFC3-0F3F-4B77-973B-7BF6C2788C53";
paths = (
{
closed = 1;
nodes = (
"220 688 OFFCURVE",
"272 647 OFFCURVE",
"272 553 CURVE SMOOTH",
"272 462 OFFCURVE",
"224 414 OFFCURVE",
"99 414 CURVE SMOOTH",
"24 414 LINE",
"24 352 LINE",
"119 352 LINE SMOOTH",
"307 350 OFFCURVE",
"456 413 OFFCURVE",
"456 557 CURVE SMOOTH",
"456 673 OFFCURVE",
"361 730 OFFCURVE",
"173 730 CURVE SMOOTH",
"25 730 LINE",
"25 688 LINE",
"110 688 LINE SMOOTH"
);
},
{
closed = 1;
nodes = (
"141 362 LINE",
"315 54 LINE",
"231 52 LINE",
"231 0 LINE",
"585 0 LINE",
"585 52 LINE",
"519 54 LINE",
"314 402 LINE"
);
}
);
width = 595;
}
);
rightMetricsKey = "=R+10";
},
{
glyphname = emptyset;
lastChange = "2019-01-07 18:48:36 +0000";
layers = (
{
layerId = "5EE76762-6375-4A5E-A826-D96F22DA5141";
paths = (
{
closed = 1;
nodes = (
"417 -10 OFFCURVE",
"516 115 OFFCURVE",
"516 280 CURVE SMOOTH",
"516 445 OFFCURVE",
"417 570 OFFCURVE",
"260 570 CURVE SMOOTH",
"103 570 OFFCURVE",
"4 445 OFFCURVE",
"4 280 CURVE SMOOTH",
"4 115 OFFCURVE",
"103 -10 OFFCURVE",
"260 -10 CURVE SMOOTH"
);
},
{
closed = 1;
nodes = (
"142 44 OFFCURVE",
"66 147 OFFCURVE",
"66 280 CURVE SMOOTH",
"66 414 OFFCURVE",
"142 516 OFFCURVE",
"260 516 CURVE SMOOTH",
"378 516 OFFCURVE",
"454 414 OFFCURVE",
"454 280 CURVE SMOOTH",
"454 147 OFFCURVE",
"378 44 OFFCURVE",
"260 44 CURVE SMOOTH"
);
},
{
closed = 1;
nodes = (
"102 -87 LINE",
"469 623 LINE",
"420 647 LINE",
"53 -63 LINE"
);
}
);
width = 520;
},
{
layerId = "E37CEFC3-0F3F-4B77-973B-7BF6C2788C53";
paths = (
{
closed = 1;
nodes = (
"443 -10 OFFCURVE",
"546 115 OFFCURVE",
"546 280 CURVE SMOOTH",
"546 445 OFFCURVE",
"443 570 OFFCURVE",
"280 570 CURVE SMOOTH",
"117 570 OFFCURVE",
"14 445 OFFCURVE",
"14 280 CURVE SMOOTH",
"14 115 OFFCURVE",
"117 -10 OFFCURVE",
"280 -10 CURVE SMOOTH"
);
},
{
closed = 1;
nodes = (
"173 65 OFFCURVE",
"106 162 OFFCURVE",
"105 280 CURVE SMOOTH",
"106 399 OFFCURVE",
"173 495 OFFCURVE",
"280 495 CURVE SMOOTH",
"387 495 OFFCURVE",
"454 399 OFFCURVE",
"455 280 CURVE SMOOTH",
"454 162 OFFCURVE",
"387 65 OFFCURVE",
"280 65 CURVE SMOOTH"
);
},
{
closed = 1;
nodes = (
"130 -101 LINE",
"509 623 LINE",
"432 661 LINE",
"53 -63 LINE"
);
}
);
width = 560;
}
);
unicode = 2205;
},
{
glyphname = leftRightArrow;
lastChange = "2019-01-12 11:10:00 +0000";
layers = (
{
layerId = "5EE76762-6375-4A5E-A826-D96F22DA5141";
paths = (
{
closed = 1;
nodes = (
"483 517 LINE",
"680 310 LINE",
"483 103 LINE",
"515 68 LINE",
"755 309 LINE",
"515 551 LINE"
);
},
{
closed = 1;
nodes = (
"59 282 LINE",
"685 282 LINE",
"685 337 LINE",
"59 336 LINE"
);
},
{
closed = 1;
nodes = (
"277 102 LINE",
"80 309 LINE",
"277 516 LINE",
"245 551 LINE",
"5 310 LINE",
"245 68 LINE"
);
}
);
width = 760;
},
{
layerId = "E37CEFC3-0F3F-4B77-973B-7BF6C2788C53";
paths = (
{
closed = 1;
nodes = (
"453 501 LINE",
"639 312 LINE",
"453 125 LINE",
"512 67 LINE",
"758 313 LINE",
"512 559 LINE"
);
},
{
closed = 1;
nodes = (
"99 267 LINE",
"688 267 LINE",
"688 359 LINE",
"99 359 LINE"
);
},
{
closed = 1;
nodes = (
"307 125 LINE",
"121 314 LINE",
"307 501 LINE",
"248 559 LINE",
"2 313 LINE",
"248 67 LINE"
);
}
);
width = 760;
}
);
unicode = 2194;
},
{
glyphname = Delta;
lastChange = "2019-03-03 10:17:33 +0000";
layers = (
{
layerId = "5EE76762-6375-4A5E-A826-D96F22DA5141";
paths = (
{
closed = 1;
nodes = (
"3 0 LINE",
"643 0 LINE",
"646 32 LINE",
"622 60 OFFCURVE",
"603 95 OFFCURVE",
"571 176 CURVE SMOOTH",
"351 740 LINE",
"295 740 LINE",
"75 176 LINE SMOOTH",
"43 95 OFFCURVE",
"24 60 OFFCURVE",
"0 32 CURVE"
);
},
{
closed = 1;
nodes = (
"295 601 LINE",
"297 601 LINE",
"508 48 LINE",
"81 48 LINE"
);
}
);
width = 646;
},
{
layerId = "E37CEFC3-0F3F-4B77-973B-7BF6C2788C53";
paths = (
{
closed = 1;
nodes = (
"3 0 LINE",
"659 0 LINE",
"662 42 LINE",
"638 62 OFFCURVE",
"615 95 OFFCURVE",
"583 176 CURVE SMOOTH",
"363 740 LINE",
"299 740 LINE",
"79 176 LINE SMOOTH",
"47 95 OFFCURVE",
"24 62 OFFCURVE",
"0 42 CURVE"
);
},
{
closed = 1;
nodes = (
"269 507 LINE",
"271 507 LINE",
"442 52 LINE",
"91 52 LINE"
);
}
);
width = 662;
}
);
leftMetricsKey = "=A";
rightMetricsKey = "=A";
unicode = 0394;
},
{
glyphname = Omega;
lastChange = "2019-03-03 18:36:51 +0000";
layers = (
{
layerId = "5EE76762-6375-4A5E-A826-D96F22DA5141";
paths = (
{
closed = 1;
nodes = (
"71 0 LINE",
"346 0 LINE",
"357 28 LINE",
"299 89 OFFCURVE",
"182 232 OFFCURVE",
"182 434 CURVE SMOOTH",
"182 598 OFFCURVE",
"260 704 OFFCURVE",
"397 704 CURVE SMOOTH",
"534 704 OFFCURVE",
"611 598 OFFCURVE",
"611 434 CURVE SMOOTH",
"611 232 OFFCURVE",
"494 89 OFFCURVE",
"437 28 CURVE",
"448 0 LINE",
"723 0 LINE",
"746 169 LINE",
"714 177 LINE",
"685 93 LINE",
"536 84 LINE",
"535 86 LINE",
"629 183 OFFCURVE",
"723 297 OFFCURVE",
"723 448 CURVE SMOOTH",
"723 633 OFFCURVE",
"579 750 OFFCURVE",
"397 750 CURVE SMOOTH",
"214 750 OFFCURVE",
"70 633 OFFCURVE",
"70 448 CURVE SMOOTH",
"70 297 OFFCURVE",
"164 183 OFFCURVE",
"259 86 CURVE",
"258 84 LINE",
"109 93 LINE",
"80 177 LINE",
"48 169 LINE"
);
}
);
width = 794;
},
{
layerId = "E37CEFC3-0F3F-4B77-973B-7BF6C2788C53";
paths = (
{
closed = 1;
nodes = (
"58 0 LINE",
"382 0 LINE",
"393 47 LINE",
"343 119 OFFCURVE",
"272 266 OFFCURVE",
"272 450 CURVE SMOOTH",
"272 608 OFFCURVE",
"324 696 OFFCURVE",
"413 696 CURVE SMOOTH",
"502 696 OFFCURVE",
"553 608 OFFCURVE",
"553 450 CURVE SMOOTH",
"553 266 OFFCURVE",
"482 119 OFFCURVE",
"433 47 CURVE",
"444 0 LINE",
"768 0 LINE",
"786 224 LINE",
"742 228 LINE",
"717 138 LINE",
"555 125 LINE",
"554 127 LINE",
"650 209 OFFCURVE",
"739 321 OFFCURVE",
"739 462 CURVE SMOOTH",
"739 647 OFFCURVE",
"585 750 OFFCURVE",
"413 750 CURVE SMOOTH",
"240 750 OFFCURVE",
"86 647 OFFCURVE",
"86 462 CURVE SMOOTH",
"86 321 OFFCURVE",
"175 210 OFFCURVE",
"271 127 CURVE",
"270 125 LINE",
"109 138 LINE",
"84 228 LINE",
"40 224 LINE"
);
}
);
width = 826;
}
);
leftMetricsKey = "=|Omega";
rightMetricsKey = "=D+10";
unicode = 03A9;
},
{
glyphname = mu;
lastChange = "2019-03-03 17:10:33 +0000";
layers = (
{
layerId = "5EE76762-6375-4A5E-A826-D96F22DA5141";
paths = (
{
closed = 1;
nodes = (
"82 -189 OFFCURVE",
"107 -210 OFFCURVE",
"139 -210 CURVE SMOOTH",
"166 -210 OFFCURVE",
"192 -195 OFFCURVE",
"192 -152 CURVE SMOOTH",
"192 -77 OFFCURVE",
"112 -49 OFFCURVE",
"109 92 CURVE",
"111 93 LINE",
"138 15 OFFCURVE",
"187 -10 OFFCURVE",
"241 -10 CURVE SMOOTH",
"312 -10 OFFCURVE",
"373 32 OFFCURVE",
"408 86 CURVE",
"410 86 LINE",
"410 16 OFFCURVE",
"447 -10 OFFCURVE",
"489 -10 CURVE SMOOTH",
"536 -10 OFFCURVE",
"586 22 OFFCURVE",
"611 91 CURVE",
"585 106 LINE",
"583 106 LINE",
"570 82 OFFCURVE",
"554 66 OFFCURVE",
"534 66 CURVE SMOOTH",
"514 66 OFFCURVE",
"506 82 OFFCURVE",
"506 116 CURVE SMOOTH",
"506 520 LINE",
"410 520 LINE",
"410 182 LINE SMOOTH",
"410 110 OFFCURVE",
"350 62 OFFCURVE",
"280 62 CURVE SMOOTH",
"219 62 OFFCURVE",
"178 98 OFFCURVE",
"178 185 CURVE SMOOTH",
"178 520 LINE",
"82 520 LINE",
"82 -108 LINE SMOOTH"
);
}
);
width = 621;
},
{
layerId = "E37CEFC3-0F3F-4B77-973B-7BF6C2788C53";
paths = (
{
closed = 1;
nodes = (
"66 -184 OFFCURVE",
"102 -210 OFFCURVE",
"146 -210 CURVE SMOOTH",
"192 -210 OFFCURVE",
"223 -182 OFFCURVE",
"223 -131 CURVE SMOOTH",
"223 -40 OFFCURVE",
"120 -38 OFFCURVE",
"116 84 CURVE",
"119 85 LINE",
"131 40 OFFCURVE",
"171 -10 OFFCURVE",
"236 -10 CURVE SMOOTH",
"296 -10 OFFCURVE",
"355 32 OFFCURVE",
"388 90 CURVE",
"390 90 LINE",
"390 28 OFFCURVE",
"436 -10 OFFCURVE",
"497 -10 CURVE SMOOTH",
"543 -10 OFFCURVE",
"621 12 OFFCURVE",
"652 115 CURVE",
"617 128 LINE",
"615 128 LINE",
"603 105 OFFCURVE",
"590 96 OFFCURVE",
"576 96 CURVE SMOOTH",
"558 96 OFFCURVE",
"550 111 OFFCURVE",
"550 142 CURVE SMOOTH",
"550 530 LINE",
"390 530 LINE",
"390 215 LINE SMOOTH",
"390 133 OFFCURVE",
"339 94 OFFCURVE",
"290 94 CURVE SMOOTH",
"249 94 OFFCURVE",
"226 122 OFFCURVE",
"226 178 CURVE SMOOTH",
"226 530 LINE",
"66 530 LINE",
"66 -93 LINE SMOOTH"
);
}
);
width = 646;
}
);
rightMetricsKey = "=a";
unicode = 03BC;
},
{
color = 0;
glyphname = slashshortcomb.case;
lastChange = "2018-12-31 12:42:13 +0000";
layers = (
{
anchors = (
{
name = _center;
position = "{174, 296}";
}
);
layerId = "5EE76762-6375-4A5E-A826-D96F22DA5141";
paths = (
{
closed = 1;
nodes = (
"2 225 LINE",
"23 187 LINE",
"345 365 LINE",
"324 404 LINE"
);
}
);
width = 347;
},
{
anchors = (
{
name = _center;
position = "{188, 308}";
}
);
layerId = "E37CEFC3-0F3F-4B77-973B-7BF6C2788C53";
paths = (
{
closed = 1;
nodes = (
"-13 243 LINE",
"13 189 LINE",
"389 371 LINE",
"363 426 LINE"
);
}
);
width = 376;
}
);
},
{
color = 0;
glyphname = slashlongcomb.case;
lastChange = "2019-01-05 20:10:42 +0000";
layers = (
{
anchors = (
{
name = _center;
position = "{314, 267}";
}
);
layerId = "5EE76762-6375-4A5E-A826-D96F22DA5141";
paths = (
{
closed = 1;
nodes = (
"4 -157 LINE",
"46 -185 LINE",
"625 687 LINE",
"583 715 LINE"
);
}
);
width = 629;
},
{
anchors = (
{
name = _center;
position = "{293, 265}";
}
);
layerId = "E37CEFC3-0F3F-4B77-973B-7BF6C2788C53";
paths = (
{
closed = 1;
nodes = (
"10 -170 LINE",
"68 -200 LINE",
"575 700 LINE",
"517 730 LINE"
);
}
);
width = 585;
}
);
},
{
color = 0;
glyphname = _D.lig;
lastChange = "2019-03-01 21:29:28 +0000";
layers = (
{
layerId = "5EE76762-6375-4A5E-A826-D96F22DA5141";
paths = (
{
closed = 1;
nodes = (
"501 696 OFFCURVE",
"632 581 OFFCURVE",
"632 361 CURVE SMOOTH",
"632 165 OFFCURVE",
"527 44 OFFCURVE",
"325 44 CURVE SMOOTH",
"234 44 LINE",
"234 0 LINE",
"332 0 LINE SMOOTH",
"564 0 OFFCURVE",
"748 111 OFFCURVE",
"748 369 CURVE SMOOTH",
"748 623 OFFCURVE",
"570 740 OFFCURVE",
"328 740 CURVE SMOOTH",
"234 740 LINE",
"234 696 LINE",
"306 696 LINE SMOOTH"
);
}
);
width = 786;
},
{
layerId = "E37CEFC3-0F3F-4B77-973B-7BF6C2788C53";
paths = (
{
closed = 1;
nodes = (
"449 684 OFFCURVE",
"552 591 OFFCURVE",
"552 351 CURVE SMOOTH",
"552 135 OFFCURVE",
"469 56 OFFCURVE",
"311 56 CURVE SMOOTH",
"292 56 LINE",
"292 0 LINE",
"344 0 LINE SMOOTH",
"576 0 OFFCURVE",
"742 111 OFFCURVE",
"742 369 CURVE SMOOTH",
"742 623 OFFCURVE",
"582 740 OFFCURVE",
"330 740 CURVE SMOOTH",
"292 740 LINE",
"292 684 LINE",
"307 684 LINE SMOOTH"
);
}
);
width = 772;
}
);
},
{
color = 0;
glyphname = _F.lig2;
lastChange = "2019-02-20 18:53:44 +0000";
layers = (
{
anchors = (
{
name = bottom;
position = "{44, 0}";
},
{
name = top;
position = "{44, 740}";
}
);
components = (
{
name = _P.lig;
}
);
layerId = "5EE76762-6375-4A5E-A826-D96F22DA5141";
paths = (
{
closed = 1;
nodes = (
"228 692 LINE",
"459 692 LINE",
"551 553 LINE",
"583 561 LINE",
"549 792 LINE",
"517 794 LINE",
"505 740 LINE",
"228 740 LINE"
);
},
{
closed = 1;
nodes = (
"402 362 LINE",
"435 221 LINE",
"467 223 LINE",
"467 483 LINE",
"435 485 LINE",
"405 410 LINE",
"228 410 LINE",
"228 362 LINE"
);
}
);
width = 534;
},
{
anchors = (
{
name = bottom;
position = "{315, 0}";
},
{
name = top;
position = "{315, 740}";
}
);
components = (
{
alignment = -1;
name = _P.lig;
}
);
layerId = "E37CEFC3-0F3F-4B77-973B-7BF6C2788C53";
paths = (
{
closed = 1;
nodes = (
"286 682 LINE",
"516 682 LINE",
"603 563 LINE",
"639 571 LINE",
"599 802 LINE",
"561 804 LINE",
"546 740 LINE",
"286 740 LINE"
);
},
{
closed = 1;
nodes = (
"443 352 LINE",
"480 213 LINE",
"516 215 LINE",
"516 483 LINE",
"480 485 LINE",
"446 410 LINE",
"286 410 LINE",
"286 352 LINE"
);
}
);
width = 567;
}
);
leftMetricsKey = "=H";
},
{
color = 0;
glyphname = _T.lig2;
lastChange = "2019-03-02 17:55:01 +0000";
layers = (
{
anchors = (
{
name = bottom;
position = "{338, 0}";
},
{
name = center;
position = "{344, 370}";
},
{
name = top;
position = "{344, 740}";
}
);
layerId = "5EE76762-6375-4A5E-A826-D96F22DA5141";
paths = (
{
closed = 1;
nodes = (
"38 513 LINE",
"133 692 LINE",
"291 692 LINE",
"291 44 LINE",
"181 42 LINE",
"181 0 LINE",
"507 0 LINE",
"507 42 LINE",
"397 44 LINE",
"397 692 LINE",
"550 692 LINE",
"642 553 LINE",
"674 561 LINE",
"640 792 LINE",
"608 794 LINE",
"596 740 LINE",
"87 740 LINE",
"75 794 LINE",
"43 792 LINE",
"6 521 LINE"
);
}
);
width = 602;
},
{
anchors = (
{
name = bottom;
position = "{375, 0}";
},
{
name = center;
position = "{362, 366}";
},
{
name = top;
position = "{359, 740}";
}
);
layerId = "E37CEFC3-0F3F-4B77-973B-7BF6C2788C53";
paths = (
{
closed = 1;
nodes = (
"34 493 LINE",
"143 682 LINE",
"271 682 LINE",
"271 56 LINE",
"161 52 LINE",
"161 0 LINE",
"553 0 LINE",
"553 52 LINE",
"443 56 LINE",
"443 682 LINE",
"581 682 LINE",
"668 563 LINE",
"704 571 LINE",
"664 802 LINE",
"626 804 LINE",
"611 740 LINE",
"93 740 LINE",
"78 804 LINE",
"40 802 LINE",
"-2 501 LINE"
);
}
);
width = 642;
}
);
leftMetricsKey = "=T";
},
{
color = 0;
glyphname = _f.lig;
lastChange = "2019-03-01 20:39:39 +0000";
layers = (
{
layerId = "5EE76762-6375-4A5E-A826-D96F22DA5141";
paths = (
{
closed = 1;
nodes = (
"292 0 LINE",
"292 38 LINE",
"192 40 LINE",
"192 520 LINE",
"192 618 LINE SMOOTH",
"192 733 OFFCURVE",
"213 764 OFFCURVE",
"245 764 CURVE SMOOTH",
"298 764 OFFCURVE",
"284 679 OFFCURVE",
"341 679 CURVE SMOOTH",
"367 679 OFFCURVE",
"388 697 OFFCURVE",
"388 731 CURVE SMOOTH",
"388 789 OFFCURVE",
"329 808 OFFCURVE",
"279 808 CURVE SMOOTH",
"174 808 OFFCURVE",
"96 724 OFFCURVE",
"96 520 CURVE SMOOTH",
"96 40 LINE",
"16 38 LINE",
"16 0 LINE"
);
},
{
closed = 1;
nodes = (
"342 472 LINE",
"342 520 LINE",
"96 520 LINE",
"16 514 LINE",
"16 472 LINE"
);
}
);
width = 346;
},
{
anchors = (
{
name = bottom;
position = "{173, 0}";
},
{
name = top;
position = "{173, 520}";
}
);
associatedMasterId = "5EE76762-6375-4A5E-A826-D96F22DA5141";
layerId = "CAD723B7-71A4-473D-ABB3-9BDEF3BA27B6";
name = "Aug 11 18, 12:30";
paths = (
{
closed = 1;
nodes = (
"236 768 LINE",
"302 768 OFFCURVE",
"271 679 OFFCURVE",
"329 679 CURVE SMOOTH",
"345 679 OFFCURVE",
"375 686 OFFCURVE",
"375 730 CURVE SMOOTH",
"375 792 OFFCURVE",
"316 808 OFFCURVE",
"263 808 CURVE"
);
},
{
closed = 1;
nodes = (
"22 520 LINE",
"22 472 LINE",
"338 472 LINE",
"338 520 LINE"
);
},
{
closed = 1;
nodes = (
"278 0 LINE",
"278 38 LINE",
"188 40 LINE",
"188 600 LINE",
"180 630 LINE SMOOTH",
"151 739 OFFCURVE",
"199 768 OFFCURVE",
"236 768 CURVE",
"263 808 LINE",
"135 808 OFFCURVE",
"92 714 OFFCURVE",
"92 520 CURVE SMOOTH",
"92 40 LINE",
"22 38 LINE",
"22 0 LINE"
);
}
);
width = 342;
},
{
anchors = (
{
name = bottom;
position = "{173, 0}";
},
{
name = top;
position = "{173, 520}";
}
);
associatedMasterId = "5EE76762-6375-4A5E-A826-D96F22DA5141";
layerId = "857FB32E-63E2-44B5-ADEC-288FA5CAC3CF";
name = "Aug 26 18, 10:49";
paths = (
{
closed = 1;
nodes = (
"243 764 LINE",
"296 764 OFFCURVE",
"280 679 OFFCURVE",
"337 679 CURVE SMOOTH",
"363 679 OFFCURVE",
"383 697 OFFCURVE",
"383 731 CURVE SMOOTH",
"383 789 OFFCURVE",
"323 808 OFFCURVE",
"274 808 CURVE"
);
},
{
closed = 1;
nodes = (
"22 520 LINE",
"22 472 LINE",
"338 472 LINE",
"338 520 LINE"
);
},
{
closed = 1;
nodes = (
"278 0 LINE",
"278 38 LINE",
"188 40 LINE",
"188 648 LINE SMOOTH",
"188 733 OFFCURVE",
"211 764 OFFCURVE",
"243 764 CURVE",
"274 808 LINE",
"170 808 OFFCURVE",
"92 724 OFFCURVE",
"92 520 CURVE SMOOTH",
"92 40 LINE",
"22 38 LINE",
"22 0 LINE"
);
}
);
width = 342;
},
{
layerId = "E37CEFC3-0F3F-4B77-973B-7BF6C2788C53";
paths = (
{
closed = 1;
nodes = (
"371 0 LINE",
"371 48 LINE",
"249 52 LINE",
"249 530 LINE",
"221 641 LINE SMOOTH",
"208 694 OFFCURVE",
"209 745 OFFCURVE",
"242 745 CURVE SMOOTH",
"295 745 OFFCURVE",
"266 615 OFFCURVE",
"358 615 CURVE SMOOTH",
"403 615 OFFCURVE",
"433 646 OFFCURVE",
"433 699 CURVE SMOOTH",
"433 770 OFFCURVE",
"380 810 OFFCURVE",
"294 810 CURVE SMOOTH",
"154 810 OFFCURVE",
"89 704 OFFCURVE",
"89 530 CURVE SMOOTH",
"89 52 LINE",
"9 48 LINE",
"9 0 LINE"
);
},
{
closed = 1;
nodes = (
"405 465 LINE",
"405 530 LINE",
"89 530 LINE",
"0 520 LINE",
"0 465 LINE"
);
}
);
width = 409;
}
);
leftMetricsKey = "=f";
},
{
color = 0;
export = 0;
glyphname = _AsteriskComp;
lastChange = "2019-02-16 13:41:17 +0000";
layers = (
{
layerId = "5EE76762-6375-4A5E-A826-D96F22DA5141";
paths = (
{
closed = 1;
nodes = (
"342 563 LINE",
"314 760 LINE",
"284 760 LINE",
"256 563 LINE"
);
}
);
width = 600;
},
{
layerId = "E37CEFC3-0F3F-4B77-973B-7BF6C2788C53";
paths = (
{
closed = 1;
nodes = (
"360 563 LINE",
"318 740 LINE",
"280 740 LINE",
"238 563 LINE"
);
}
);
width = 600;
}
);
},
{
color = 0;
export = 0;
glyphname = _Percent0;
lastChange = "2019-02-16 13:41:17 +0000";
layers = (
{
layerId = "5EE76762-6375-4A5E-A826-D96F22DA5141";
paths = (
{
closed = 1;
nodes = (
"26 492 OFFCURVE",
"112 430 OFFCURVE",
"204 430 CURVE SMOOTH",
"313 430 OFFCURVE",
"383 516 OFFCURVE",
"383 625 CURVE SMOOTH",
"383 748 OFFCURVE",
"297 810 OFFCURVE",
"205 810 CURVE SMOOTH",
"96 810 OFFCURVE",
"26 724 OFFCURVE",
"26 615 CURVE SMOOTH"
);
},
{
closed = 1;
nodes = (
"108 705 OFFCURVE",
"137 774 OFFCURVE",
"196 774 CURVE SMOOTH",
"254 774 OFFCURVE",
"301 709 OFFCURVE",
"301 611 CURVE SMOOTH",
"301 535 OFFCURVE",
"272 466 OFFCURVE",
"213 466 CURVE SMOOTH",
"155 466 OFFCURVE",
"108 531 OFFCURVE",
"108 629 CURVE SMOOTH"
);
}
);
width = 409;
},
{
layerId = "E37CEFC3-0F3F-4B77-973B-7BF6C2788C53";
paths = (
{
closed = 1;
nodes = (
"26 473 OFFCURVE",
"124 420 OFFCURVE",
"223 420 CURVE SMOOTH",
"342 420 OFFCURVE",
"417 495 OFFCURVE",
"417 617 CURVE SMOOTH",
"417 756 OFFCURVE",
"319 810 OFFCURVE",
"220 810 CURVE SMOOTH",
"101 810 OFFCURVE",
"26 736 OFFCURVE",
"26 613 CURVE SMOOTH"
);
},
{
closed = 1;
nodes = (
"156 712 OFFCURVE",
"177 762 OFFCURVE",
"217 762 CURVE SMOOTH",
"264 762 OFFCURVE",
"287 695 OFFCURVE",
"287 605 CURVE SMOOTH",
"287 517 OFFCURVE",
"266 468 OFFCURVE",
"226 468 CURVE SMOOTH",
"179 468 OFFCURVE",
"156 534 OFFCURVE",
"156 625 CURVE SMOOTH"
);
}
);
width = 443;
}
);
},
{
color = 0;
export = 0;
glyphname = _T.lig;
lastChange = "2019-03-03 09:26:05 +0000";
layers = (
{
layerId = "5EE76762-6375-4A5E-A826-D96F22DA5141";
paths = (
{
closed = 1;
nodes = (
"38 513 LINE",
"133 692 LINE",
"291 692 LINE",
"291 44 LINE",
"181 42 LINE",
"181 0 LINE",
"507 0 LINE",
"507 42 LINE",
"397 44 LINE",
"397 692 LINE",
"703 692 LINE",
"703 740 LINE",
"87 740 LINE",
"75 794 LINE",
"43 792 LINE",
"6 521 LINE"
);
}
);
width = 703;
},
{
layerId = "E37CEFC3-0F3F-4B77-973B-7BF6C2788C53";
paths = (
{
closed = 1;
nodes = (
"34 493 LINE",
"143 682 LINE",
"271 682 LINE",
"271 56 LINE",
"161 52 LINE",
"161 0 LINE",
"553 0 LINE",
"553 52 LINE",
"443 56 LINE",
"443 682 LINE",
"738 682 LINE",
"738 740 LINE",
"91 740 LINE",
"76 804 LINE",
"40 802 LINE",
"-2 501 LINE"
);
}
);
width = 712;
}
);
leftMetricsKey = "=T";
},
{
color = 0;
export = 0;
glyphname = _i.lig;
lastChange = "2019-02-17 18:34:01 +0000";
layers = (
{
components = (
{
name = dotaccentcomb;
transform = "{1, 0, 0, 1, 9, 0}";
}
);
layerId = "E37CEFC3-0F3F-4B77-973B-7BF6C2788C53";
leftMetricsKey = "=idotless-28";
paths = (
{
closed = 1;
nodes = (
"-30 465 LINE",
"81 465 LINE",
"83 463 LINE",
"83 52 LINE",
"3 48 LINE",
"3 0 LINE",
"323 0 LINE",
"323 48 LINE",
"243 52 LINE",
"243 528 LINE",
"239 530 LINE",
"-30 530 LINE"
);
}
);
width = 323;
},
{
components = (
{
name = dotaccentcomb;
transform = "{1, 0, 0, 1, 14, 0}";
}
);
layerId = "5EE76762-6375-4A5E-A826-D96F22DA5141";
paths = (
{
closed = 1;
nodes = (
"-18 472 LINE",
"104 472 LINE",
"106 470 LINE",
"106 40 LINE",
"26 38 LINE",
"26 0 LINE",
"282 0 LINE",
"282 38 LINE",
"202 40 LINE",
"202 518 LINE",
"198 520 LINE",
"-18 520 LINE"
);
}
);
width = 298;
}
);
leftMetricsKey = "=idotless-32";
rightMetricsKey = "=i";
},
{
color = 0;
export = 0;
glyphname = _j.lig.001;
lastChange = "2019-03-01 20:39:39 +0000";
layers = (
{
components = (
{
name = dotaccentcomb;
transform = "{1, 0, 0, 1, 17, 0}";
},
{
name = _j.lig;
transform = "{1, 0, 0, 1, -2, 0}";
}
);
layerId = "E37CEFC3-0F3F-4B77-973B-7BF6C2788C53";
paths = (
{
closed = 1;
nodes = (
"255 269 LINE",
"255 528 LINE",
"251 530 LINE",
"-18 530 LINE",
"-18 465 LINE",
"93 465 LINE",
"95 463 LINE",
"95 269 LINE"
);
}
);
width = 335;
},
{
components = (
{
name = dotaccentcomb;
transform = "{1, 0, 0, 1, 22, 0}";
},
{
name = _j.lig;
transform = "{1, 0, 0, 1, 8, 0}";
}
);
layerId = "5EE76762-6375-4A5E-A826-D96F22DA5141";
paths = (
{
closed = 1;
nodes = (
"208 249 LINE",
"208 518 LINE",
"204 520 LINE",
"-12 520 LINE",
"-12 472 LINE",
"110 472 LINE",
"112 470 LINE",
"112 249 LINE"
);
}
);
width = 296;
}
);
leftMetricsKey = "=jdotless-12";
rightMetricsKey = "=j";
},
{
color = 0;
export = 0;
glyphname = _A.lig;
lastChange = "2019-02-16 13:41:17 +0000";
layers = (
{
layerId = "5EE76762-6375-4A5E-A826-D96F22DA5141";
paths = (
{
closed = 1;
nodes = (
"214 0 LINE",
"214 42 LINE",
"128 54 LINE",
"515 740 LINE",
"452 740 LINE",
"60 44 LINE",
"0 42 LINE",
"0 0 LINE"
);
},
{
closed = 1;
nodes = (
"222 278 LINE",
"196 230 LINE",
"536 230 LINE",
"536 278 LINE"
);
},
{
closed = 1;
nodes = (
"530 740 LINE",
"341 740 LINE",
"341 698 LINE",
"427 696 LINE",
"487 692 LINE",
"530 692 LINE"
);
}
);
width = 536;
},
{
layerId = "E37CEFC3-0F3F-4B77-973B-7BF6C2788C53";
paths = (
{
closed = 1;
nodes = (
"211 0 LINE",
"211 52 LINE",
"123 56 LINE",
"488 687 LINE",
"447 740 LINE",
"50 54 LINE",
"0 52 LINE",
"0 0 LINE"
);
},
{
closed = 1;
nodes = (
"203 248 LINE",
"171 194 LINE",
"495 194 LINE",
"495 248 LINE"
);
},
{
closed = 1;
nodes = (
"522 740 LINE",
"329 740 LINE",
"329 688 LINE",
"415 686 LINE",
"479 682 LINE",
"522 682 LINE"
);
}
);
width = 586;
}
);
},
{
color = 5;
glyphname = goldstein;
lastChange = "2019-03-03 09:27:24 +0000";
layers = (
{
layerId = "5EE76762-6375-4A5E-A826-D96F22DA5141";
paths = (
{
closed = 1;
nodes = (
"515 781 OFFCURVE",
"657 708 OFFCURVE",
"649 505 CURVE SMOOTH",
"648 481 OFFCURVE",
"644 468 OFFCURVE",
"642 453 CURVE",
"655 450 OFFCURVE",
"657 413 OFFCURVE",
"648 372 CURVE SMOOTH",
"637 321 OFFCURVE",
"651 288 OFFCURVE",
"643 256 CURVE SMOOTH",
"637 231 OFFCURVE",
"616 229 OFFCURVE",
"605 207 CURVE SMOOTH",
"588 173 OFFCURVE",
"598 122 OFFCURVE",
"532 36 CURVE SMOOTH",
"513 11 OFFCURVE",
"501 12 OFFCURVE",
"486 -3 CURVE SMOOTH",
"466 -23 OFFCURVE",
"444 -50 OFFCURVE",
"359 -50 CURVE SMOOTH",
"226 -50 OFFCURVE",
"160 -5 OFFCURVE",
"103 127 CURVE SMOOTH",
"93 150 OFFCURVE",
"97 177 OFFCURVE",
"91 202 CURVE",
"72 220 OFFCURVE",
"55 246 OFFCURVE",
"50 273 CURVE SMOOTH",
"45 300 OFFCURVE",
"51 330 OFFCURVE",
"49 345 CURVE SMOOTH",
"47 358 OFFCURVE",
"25 421 OFFCURVE",
"57 438 CURVE",
"55 684 OFFCURVE",
"136 779 OFFCURVE",
"359 780 CURVE SMOOTH"
);
},
{
closed = 1;
nodes = (
"603 341 OFFCURVE",
"594 353 OFFCURVE",
"595 378 CURVE SMOOTH",
"601 533 OFFCURVE",
"594 676 OFFCURVE",
"478 676 CURVE SMOOTH",
"431 676 OFFCURVE",
"396 632 OFFCURVE",
"356 631 CURVE SMOOTH",
"317 630 OFFCURVE",
"263 670 OFFCURVE",
"217 670 CURVE SMOOTH",
"172 670 OFFCURVE",
"138 649 OFFCURVE",
"130 584 CURVE SMOOTH",
"123 530 OFFCURVE",
"138 467 OFFCURVE",
"132 427 CURVE",
"148 438 OFFCURVE",
"163 448 OFFCURVE",
"179 448 CURVE SMOOTH",
"224 448 OFFCURVE",
"308 387 OFFCURVE",
"331 414 CURVE",
"340 405 OFFCURVE",
"342 396 OFFCURVE",
"334 387 CURVE SMOOTH",
"326 378 OFFCURVE",
"316 376 OFFCURVE",
"317 366 CURVE",
"317 361 OFFCURVE",
"333 355 OFFCURVE",
"333 348 CURVE",
"334 345 OFFCURVE",
"330 341 OFFCURVE",
"327 340 CURVE",
"325 309 OFFCURVE",
"327 264 OFFCURVE",
"325 248 CURVE",
"320 240 OFFCURVE",
"317 235 OFFCURVE",
"317 226 CURVE SMOOTH",
"317 209 OFFCURVE",
"337 201 OFFCURVE",
"346 201 CURVE SMOOTH",
"360 201 OFFCURVE",
"374 215 OFFCURVE",
"380 216 CURVE SMOOTH",
"387 217 OFFCURVE",
"390 209 OFFCURVE",
"382 202 CURVE",
"384 197 OFFCURVE",
"390 200 OFFCURVE",
"395 200 CURVE SMOOTH",
"402 200 OFFCURVE",
"409 186 OFFCURVE",
"420 194 CURVE",
"417 184 OFFCURVE",
"407 178 OFFCURVE",
"398 178 CURVE SMOOTH",
"381 178 OFFCURVE",
"376 170 OFFCURVE",
"365 166 CURVE",
"366 150 LINE",
"363 149 LINE",
"356 163 LINE",
"334 163 LINE",
"322 146 LINE",
"319 148 LINE",
"320 168 LINE",
"316 170 LINE",
"287 161 OFFCURVE",
"265 168 OFFCURVE",
"265 186 CURVE SMOOTH",
"265 193 OFFCURVE",
"266 210 OFFCURVE",
"281 220 CURVE",
"278 208 OFFCURVE",
"281 198 OFFCURVE",
"293 198 CURVE SMOOTH",
"300 198 OFFCURVE",
"306 207 OFFCURVE",
"306 218 CURVE SMOOTH",
"306 229 OFFCURVE",
"302 236 OFFCURVE",
"290 229 CURVE",
"294 244 OFFCURVE",
"301 258 OFFCURVE",
"300 270 CURVE SMOOTH",
"299 283 OFFCURVE",
"283 290 OFFCURVE",
"283 301 CURVE SMOOTH",
"283 312 OFFCURVE",
"301 322 OFFCURVE",
"301 330 CURVE",
"291 330 LINE SMOOTH",
"275 330 OFFCURVE",
"279 341 OFFCURVE",
"276 348 CURVE SMOOTH",
"273 355 OFFCURVE",
"266 362 OFFCURVE",
"257 367 CURVE SMOOTH",
"226 384 OFFCURVE",
"220 412 OFFCURVE",
"187 411 CURVE SMOOTH",
"162 410 OFFCURVE",
"151 391 OFFCURVE",
"144 384 CURVE",
"160 367 LINE",
"189 376 OFFCURVE",
"227 389 OFFCURVE",
"254 362 CURVE",
"240 361 LINE",
"243 358 OFFCURVE",
"244 355 OFFCURVE",
"244 351 CURVE SMOOTH",
"244 347 OFFCURVE",
"242 336 OFFCURVE",
"228 336 CURVE SMOOTH",
"219 336 OFFCURVE",
"214 343 OFFCURVE",
"214 350 CURVE SMOOTH",
"214 357 OFFCURVE",
"218 362 OFFCURVE",
"224 364 CURVE",
"201 371 OFFCURVE",
"183 359 OFFCURVE",
"175 348 CURVE",
"185 322 OFFCURVE",
"197 316 OFFCURVE",
"229 313 CURVE",
"200 302 OFFCURVE",
"177 315 OFFCURVE",
"167 340 CURVE",
"160 334 LINE",
"173 278 OFFCURVE",
"189 283 OFFCURVE",
"219 277 CURVE",
"208 275 OFFCURVE",
"194 273 OFFCURVE",
"182 278 CURVE SMOOTH",
"142 295 OFFCURVE",
"156 362 OFFCURVE",
"122 340 CURVE SMOOTH",
"113 334 OFFCURVE",
"104 323 OFFCURVE",
"105 302 CURVE SMOOTH",
"106 275 OFFCURVE",
"135 241 OFFCURVE",
"143 234 CURVE SMOOTH",
"154 224 OFFCURVE",
"176 201 OFFCURVE",
"182 187 CURVE SMOOTH",
"187 175 OFFCURVE",
"183 157 OFFCURVE",
"180 138 CURVE SMOOTH",
"177 121 OFFCURVE",
"180 97 OFFCURVE",
"185 85 CURVE SMOOTH",
"190 73 OFFCURVE",
"150 100 OFFCURVE",
"145 168 CURVE SMOOTH",
"144 182 OFFCURVE",
"140 198 OFFCURVE",
"126 209 CURVE",
"136 172 OFFCURVE",
"123 143 OFFCURVE",
"153 97 CURVE SMOOTH",
"183 51 OFFCURVE",
"216 38 OFFCURVE",
"242 20 CURVE SMOOTH",
"270 1 OFFCURVE",
"276 -29 OFFCURVE",
"320 -29 CURVE SMOOTH",
"337 -29 OFFCURVE",
"350 -22 OFFCURVE",
"350 -3 CURVE",
"357 -3 LINE",
"357 -29 OFFCURVE",
"389 -39 OFFCURVE",
"421 -25 CURVE SMOOTH",
"502 10 OFFCURVE",
"535 61 OFFCURVE",
"541 138 CURVE",
"547 141 LINE",
"552 109 LINE",
"555 111 LINE",
"579 148 OFFCURVE",
"584 203 OFFCURVE",
"585 225 CURVE SMOOTH",
"586 247 OFFCURVE",
"594 249 OFFCURVE",
"603 246 CURVE SMOOTH",
"611 243 OFFCURVE",
"625 249 OFFCURVE",
"629 261 CURVE SMOOTH",
"636 283 OFFCURVE",
"622 336 OFFCURVE",
"632 388 CURVE SMOOTH",
"635 404 LINE",
"613 411 OFFCURVE",
"608 376 OFFCURVE",
"611 326 CURVE",
"608 325 LINE"
);
},
{
closed = 1;
nodes = (
"256 336 OFFCURVE",
"244 324 OFFCURVE",
"227 324 CURVE SMOOTH",
"210 324 OFFCURVE",
"201 334 OFFCURVE",
"201 346 CURVE SMOOTH",
"201 353 OFFCURVE",
"204 359 OFFCURVE",
"208 362 CURVE",
"209 361 LINE",
"207 358 OFFCURVE",
"205 353 OFFCURVE",
"205 347 CURVE SMOOTH",
"205 338 OFFCURVE",
"212 328 OFFCURVE",
"227 328 CURVE SMOOTH",
"242 328 OFFCURVE",
"252 337 OFFCURVE",
"251 354 CURVE",
"253 354 LINE"
);
},
{
closed = 1;
nodes = (
"279 479 OFFCURVE",
"339 463 OFFCURVE",
"333 422 CURVE",
"337 421 LINE",
"351 474 OFFCURVE",
"270 487 OFFCURVE",
"245 489 CURVE",
"244 487 LINE"
);
},
{
closed = 1;
nodes = (
"391 452 LINE",
"377 431 OFFCURVE",
"383 413 OFFCURVE",
"401 413 CURVE SMOOTH",
"425 413 OFFCURVE",
"483 454 OFFCURVE",
"510 454 CURVE SMOOTH",
"559 454 OFFCURVE",
"553 403 OFFCURVE",
"586 403 CURVE",
"588 365 OFFCURVE",
"561 371 OFFCURVE",
"561 356 CURVE SMOOTH",
"561 350 OFFCURVE",
"569 349 OFFCURVE",
"579 350 CURVE",
"565 327 OFFCURVE",
"543 350 OFFCURVE",
"519 329 CURVE",
"517 330 LINE",
"520 337 OFFCURVE",
"521 340 OFFCURVE",
"523 346 CURVE",
"522 347 LINE",
"517 341 OFFCURVE",
"511 338 OFFCURVE",
"505 333 CURVE",
"504 334 LINE",
"510 341 OFFCURVE",
"512 346 OFFCURVE",
"512 349 CURVE",
"508 355 OFFCURVE",
"498 365 OFFCURVE",
"474 365 CURVE",
"479 362 OFFCURVE",
"482 359 OFFCURVE",
"482 352 CURVE SMOOTH",
"482 343 OFFCURVE",
"474 338 OFFCURVE",
"467 338 CURVE SMOOTH",
"458 338 OFFCURVE",
"451 343 OFFCURVE",
"451 352 CURVE SMOOTH",
"451 358 OFFCURVE",
"454 362 OFFCURVE",
"457 364 CURVE",
"438 364 OFFCURVE",
"426 352 OFFCURVE",
"415 337 CURVE",
"408 339 LINE",
"413 349 LINE",
"404 352 OFFCURVE",
"391 349 OFFCURVE",
"383 339 CURVE",
"380 340 LINE",
"379 350 OFFCURVE",
"381 364 OFFCURVE",
"392 374 CURVE",
"387 373 OFFCURVE",
"377 372 OFFCURVE",
"363 378 CURVE",
"363 381 LINE",
"387 381 OFFCURVE",
"397 388 OFFCURVE",
"392 399 CURVE",
"379 402 OFFCURVE",
"367 406 OFFCURVE",
"367 421 CURVE SMOOTH",
"367 429 OFFCURVE",
"374 442 OFFCURVE",
"389 456 CURVE"
);
},
{
closed = 0;
nodes = (
"404 367 LINE"
);
},
{
closed = 1;
nodes = (
"417 318 OFFCURVE",
"409 317 OFFCURVE",
"404 317 CURVE",
"401 313 LINE",
"413 292 OFFCURVE",
"430 284 OFFCURVE",
"448 280 CURVE",
"426 291 OFFCURVE",
"421 301 OFFCURVE",
"420 305 CURVE",
"423 309 LINE",
"453 299 OFFCURVE",
"478 299 OFFCURVE",
"507 323 CURVE",
"470 305 OFFCURVE",
"445 312 OFFCURVE",
"420 324 CURVE"
);
},
{
closed = 1;
nodes = (
"447 377 LINE",
"485 397 OFFCURVE",
"523 365 OFFCURVE",
"535 365 CURVE SMOOTH",
"544 365 OFFCURVE",
"547 374 OFFCURVE",
"542 389 CURVE",
"528 389 OFFCURVE",
"508 410 OFFCURVE",
"490 410 CURVE SMOOTH",
"467 410 OFFCURVE",
"449 393 OFFCURVE",
"444 379 CURVE"
);
},
{
closed = 1;
nodes = (
"437 334 OFFCURVE",
"452 324 OFFCURVE",
"469 325 CURVE SMOOTH",
"484 326 OFFCURVE",
"497 338 OFFCURVE",
"492 357 CURVE",
"490 357 LINE",
"492 338 OFFCURVE",
"480 329 OFFCURVE",
"467 329 CURVE SMOOTH",
"454 329 OFFCURVE",
"441 337 OFFCURVE",
"443 355 CURVE",
"441 355 LINE"
);
},
{
closed = 1;
nodes = (
"405 227 OFFCURVE",
"412 218 OFFCURVE",
"415 202 CURVE",
"420 202 LINE",
"420 208 OFFCURVE",
"418 214 OFFCURVE",
"417 218 CURVE",
"420 219 LINE",
"444 172 OFFCURVE",
"458 196 OFFCURVE",
"487 136 CURVE",
"490 137 LINE",
"466 198 OFFCURVE",
"449 186 OFFCURVE",
"423 225 CURVE",
"415 223 LINE",
"412 226 OFFCURVE",
"407 231 OFFCURVE",
"402 234 CURVE",
"397 233 LINE"
);
},
{
closed = 1;
nodes = (
"269 112 OFFCURVE",
"307 126 OFFCURVE",
"319 126 CURVE",
"328 119 OFFCURVE",
"334 113 OFFCURVE",
"347 112 CURVE SMOOTH",
"358 111 OFFCURVE",
"364 116 OFFCURVE",
"370 122 CURVE",
"402 118 OFFCURVE",
"432 113 OFFCURVE",
"448 120 CURVE",
"459 111 OFFCURVE",
"474 108 OFFCURVE",
"478 95 CURVE",
"454 102 LINE",
"444 101 OFFCURVE",
"437 100 OFFCURVE",
"426 100 CURVE SMOOTH",
"417 100 OFFCURVE",
"400 109 OFFCURVE",
"384 105 CURVE SMOOTH",
"371 102 OFFCURVE",
"363 98 OFFCURVE",
"351 97 CURVE",
"347 84 LINE",
"344 85 LINE",
"344 97 LINE",
"333 100 OFFCURVE",
"312 111 OFFCURVE",
"302 109 CURVE SMOOTH",
"269 103 LINE",
"282 100 OFFCURVE",
"283 88 OFFCURVE",
"304 84 CURVE",
"279 82 OFFCURVE",
"257 104 OFFCURVE",
"242 106 CURVE SMOOTH",
"235 107 OFFCURVE",
"228 114 OFFCURVE",
"228 124 CURVE"
);
},
{
closed = 1;
nodes = (
"584 323 OFFCURVE",
"588 315 OFFCURVE",
"585 302 CURVE SMOOTH",
"582 290 OFFCURVE",
"565 275 OFFCURVE",
"552 239 CURVE SMOOTH",
"543 215 OFFCURVE",
"540 182 OFFCURVE",
"541 157 CURVE",
"547 159 LINE",
"549 211 OFFCURVE",
"567 258 OFFCURVE",
"603 267 CURVE",
"596 290 OFFCURVE",
"600 298 OFFCURVE",
"609 306 CURVE",
"591 333 LINE",
"584 333 LINE"
);
},
{
closed = 1;
nodes = (
"255 81 OFFCURVE",
"263 84 OFFCURVE",
"270 80 CURVE SMOOTH",
"280 74 OFFCURVE",
"291 63 OFFCURVE",
"309 62 CURVE SMOOTH",
"326 61 OFFCURVE",
"347 65 OFFCURVE",
"363 63 CURVE SMOOTH",
"377 61 OFFCURVE",
"396 42 OFFCURVE",
"430 57 CURVE",
"431 55 LINE",
"415 35 OFFCURVE",
"408 32 OFFCURVE",
"398 32 CURVE SMOOTH",
"388 32 OFFCURVE",
"366 39 OFFCURVE",
"349 39 CURVE SMOOTH",
"331 39 OFFCURVE",
"301 25 OFFCURVE",
"282 34 CURVE SMOOTH",
"262 44 OFFCURVE",
"253 61 OFFCURVE",
"246 81 CURVE"
);
},
{
closed = 1;
nodes = (
"216 95 OFFCURVE",
"212 72 OFFCURVE",
"232 62 CURVE",
"239 77 OFFCURVE",
"226 96 OFFCURVE",
"220 102 CURVE"
);
},
{
closed = 1;
nodes = (
"503 499 LINE",
"467 493 OFFCURVE",
"440 485 OFFCURVE",
"405 464 CURVE",
"402 468 LINE",
"437 489 OFFCURVE",
"462 501 OFFCURVE",
"501 502 CURVE"
);
},
{
closed = 1;
nodes = (
"359 539 OFFCURVE",
"413 577 OFFCURVE",
"469 568 CURVE",
"469 566 LINE",
"401 568 OFFCURVE",
"364 525 OFFCURVE",
"253 556 CURVE",
"254 559 LINE"
);
},
{
closed = 1;
nodes = (
"284 523 OFFCURVE",
"324 512 OFFCURVE",
"356 512 CURVE SMOOTH",
"402 512 OFFCURVE",
"442 539 OFFCURVE",
"498 537 CURVE",
"498 535 LINE",
"439 532 OFFCURVE",
"397 503 OFFCURVE",
"357 502 CURVE SMOOTH",
"319 501 OFFCURVE",
"282 519 OFFCURVE",
"217 525 CURVE",
"219 527 LINE"
);
},
{
closed = 1;
nodes = (
"222 138 LINE",
"228 161 OFFCURVE",
"239 176 OFFCURVE",
"259 193 CURVE",
"254 199 LINE",
"237 186 OFFCURVE",
"220 161 OFFCURVE",
"217 140 CURVE"
);
}
);
width = 694;
},
{
layerId = "E37CEFC3-0F3F-4B77-973B-7BF6C2788C53";
paths = (
{
closed = 1;
nodes = (
"515 781 OFFCURVE",
"657 708 OFFCURVE",
"649 505 CURVE SMOOTH",
"648 481 OFFCURVE",
"644 468 OFFCURVE",
"642 453 CURVE",
"655 450 OFFCURVE",
"657 413 OFFCURVE",
"648 372 CURVE SMOOTH",
"637 321 OFFCURVE",
"651 288 OFFCURVE",
"643 256 CURVE SMOOTH",
"637 231 OFFCURVE",
"616 229 OFFCURVE",
"605 207 CURVE SMOOTH",
"588 173 OFFCURVE",
"598 122 OFFCURVE",
"532 36 CURVE SMOOTH",
"513 11 OFFCURVE",
"501 12 OFFCURVE",
"486 -3 CURVE SMOOTH",
"466 -23 OFFCURVE",
"444 -50 OFFCURVE",
"359 -50 CURVE SMOOTH",
"226 -50 OFFCURVE",
"160 -5 OFFCURVE",
"103 127 CURVE SMOOTH",
"93 150 OFFCURVE",
"97 177 OFFCURVE",
"91 202 CURVE",
"72 220 OFFCURVE",
"55 246 OFFCURVE",
"50 273 CURVE SMOOTH",
"45 300 OFFCURVE",
"51 330 OFFCURVE",
"49 345 CURVE SMOOTH",
"47 358 OFFCURVE",
"25 421 OFFCURVE",
"57 438 CURVE",
"55 684 OFFCURVE",
"136 779 OFFCURVE",
"359 780 CURVE SMOOTH"
);
},
{
closed = 1;
nodes = (
"603 341 OFFCURVE",
"594 353 OFFCURVE",
"595 378 CURVE SMOOTH",
"601 533 OFFCURVE",
"594 676 OFFCURVE",
"478 676 CURVE SMOOTH",
"431 676 OFFCURVE",
"396 632 OFFCURVE",
"356 631 CURVE SMOOTH",
"317 630 OFFCURVE",
"263 670 OFFCURVE",
"217 670 CURVE SMOOTH",
"172 670 OFFCURVE",
"138 649 OFFCURVE",
"130 584 CURVE SMOOTH",
"123 530 OFFCURVE",
"138 467 OFFCURVE",
"132 427 CURVE",
"148 438 OFFCURVE",
"163 448 OFFCURVE",
"179 448 CURVE SMOOTH",
"224 448 OFFCURVE",
"308 387 OFFCURVE",
"331 414 CURVE",
"340 405 OFFCURVE",
"342 396 OFFCURVE",
"334 387 CURVE SMOOTH",
"326 378 OFFCURVE",
"316 376 OFFCURVE",
"317 366 CURVE",
"317 361 OFFCURVE",
"333 355 OFFCURVE",
"333 348 CURVE",
"334 345 OFFCURVE",
"330 341 OFFCURVE",
"327 340 CURVE",
"325 309 OFFCURVE",
"327 264 OFFCURVE",
"325 248 CURVE",
"320 240 OFFCURVE",
"317 235 OFFCURVE",
"317 226 CURVE SMOOTH",
"317 209 OFFCURVE",
"337 201 OFFCURVE",
"346 201 CURVE SMOOTH",
"360 201 OFFCURVE",
"374 215 OFFCURVE",
"380 216 CURVE SMOOTH",
"387 217 OFFCURVE",
"390 209 OFFCURVE",
"382 202 CURVE",
"384 197 OFFCURVE",
"390 200 OFFCURVE",
"395 200 CURVE SMOOTH",
"402 200 OFFCURVE",
"409 186 OFFCURVE",
"420 194 CURVE",
"417 184 OFFCURVE",
"407 178 OFFCURVE",
"398 178 CURVE SMOOTH",
"381 178 OFFCURVE",
"376 170 OFFCURVE",
"365 166 CURVE",
"366 150 LINE",
"363 149 LINE",
"356 163 LINE",
"334 163 LINE",
"322 146 LINE",
"319 148 LINE",
"320 168 LINE",
"316 170 LINE",
"287 161 OFFCURVE",
"265 168 OFFCURVE",
"265 186 CURVE SMOOTH",
"265 193 OFFCURVE",
"266 210 OFFCURVE",
"281 220 CURVE",
"278 208 OFFCURVE",
"281 198 OFFCURVE",
"293 198 CURVE SMOOTH",
"300 198 OFFCURVE",
"306 207 OFFCURVE",
"306 218 CURVE SMOOTH",
"306 229 OFFCURVE",
"302 236 OFFCURVE",
"290 229 CURVE",
"294 244 OFFCURVE",
"301 258 OFFCURVE",
"300 270 CURVE SMOOTH",
"299 283 OFFCURVE",
"283 290 OFFCURVE",
"283 301 CURVE SMOOTH",
"283 312 OFFCURVE",
"301 322 OFFCURVE",
"301 330 CURVE",
"291 330 LINE SMOOTH",
"275 330 OFFCURVE",
"279 341 OFFCURVE",
"276 348 CURVE SMOOTH",
"273 355 OFFCURVE",
"266 362 OFFCURVE",
"257 367 CURVE SMOOTH",
"226 384 OFFCURVE",
"220 412 OFFCURVE",
"187 411 CURVE SMOOTH",
"162 410 OFFCURVE",
"151 391 OFFCURVE",
"144 384 CURVE",
"160 367 LINE",
"189 376 OFFCURVE",
"227 389 OFFCURVE",
"254 362 CURVE",
"240 361 LINE",
"243 358 OFFCURVE",
"244 355 OFFCURVE",
"244 351 CURVE SMOOTH",
"244 347 OFFCURVE",
"242 336 OFFCURVE",
"228 336 CURVE SMOOTH",
"219 336 OFFCURVE",
"214 343 OFFCURVE",
"214 350 CURVE SMOOTH",
"214 357 OFFCURVE",
"218 362 OFFCURVE",
"224 364 CURVE",
"201 371 OFFCURVE",
"183 359 OFFCURVE",
"175 348 CURVE",
"185 322 OFFCURVE",
"197 316 OFFCURVE",
"229 313 CURVE",
"200 302 OFFCURVE",
"177 315 OFFCURVE",
"167 340 CURVE",
"160 334 LINE",
"173 278 OFFCURVE",
"189 283 OFFCURVE",
"219 277 CURVE",
"208 275 OFFCURVE",
"194 273 OFFCURVE",
"182 278 CURVE SMOOTH",
"142 295 OFFCURVE",
"156 362 OFFCURVE",
"122 340 CURVE SMOOTH",
"113 334 OFFCURVE",
"104 323 OFFCURVE",
"105 302 CURVE SMOOTH",
"106 275 OFFCURVE",
"135 241 OFFCURVE",
"143 234 CURVE SMOOTH",
"154 224 OFFCURVE",
"176 201 OFFCURVE",
"182 187 CURVE SMOOTH",
"187 175 OFFCURVE",
"183 157 OFFCURVE",
"180 138 CURVE SMOOTH",
"177 121 OFFCURVE",
"180 97 OFFCURVE",
"185 85 CURVE SMOOTH",
"190 73 OFFCURVE",
"150 100 OFFCURVE",
"145 168 CURVE SMOOTH",
"144 182 OFFCURVE",
"140 198 OFFCURVE",
"126 209 CURVE",
"136 172 OFFCURVE",
"123 143 OFFCURVE",
"153 97 CURVE SMOOTH",
"183 51 OFFCURVE",
"216 38 OFFCURVE",
"242 20 CURVE SMOOTH",
"270 1 OFFCURVE",
"276 -29 OFFCURVE",
"320 -29 CURVE SMOOTH",
"337 -29 OFFCURVE",
"350 -22 OFFCURVE",
"350 -3 CURVE",
"357 -3 LINE",
"357 -29 OFFCURVE",
"389 -39 OFFCURVE",
"421 -25 CURVE SMOOTH",
"502 10 OFFCURVE",
"535 61 OFFCURVE",
"541 138 CURVE",
"547 141 LINE",
"552 109 LINE",
"555 111 LINE",
"579 148 OFFCURVE",
"584 203 OFFCURVE",
"585 225 CURVE SMOOTH",
"586 247 OFFCURVE",
"594 249 OFFCURVE",
"603 246 CURVE SMOOTH",
"611 243 OFFCURVE",
"625 249 OFFCURVE",
"629 261 CURVE SMOOTH",
"636 283 OFFCURVE",
"622 336 OFFCURVE",
"632 388 CURVE SMOOTH",
"635 404 LINE",
"613 411 OFFCURVE",
"608 376 OFFCURVE",
"611 326 CURVE",
"608 325 LINE"
);
},
{
closed = 1;
nodes = (
"256 336 OFFCURVE",
"244 324 OFFCURVE",
"227 324 CURVE SMOOTH",
"210 324 OFFCURVE",
"201 334 OFFCURVE",
"201 346 CURVE SMOOTH",
"201 353 OFFCURVE",
"204 359 OFFCURVE",
"208 362 CURVE",
"209 361 LINE",
"207 358 OFFCURVE",
"205 353 OFFCURVE",
"205 347 CURVE SMOOTH",
"205 338 OFFCURVE",
"212 328 OFFCURVE",
"227 328 CURVE SMOOTH",
"242 328 OFFCURVE",
"252 337 OFFCURVE",
"251 354 CURVE",
"253 354 LINE"
);
},
{
closed = 1;
nodes = (
"279 479 OFFCURVE",
"339 463 OFFCURVE",
"333 422 CURVE",
"337 421 LINE",
"351 474 OFFCURVE",
"270 487 OFFCURVE",
"245 489 CURVE",
"244 487 LINE"
);
},
{
closed = 1;
nodes = (
"391 452 LINE",
"377 431 OFFCURVE",
"383 413 OFFCURVE",
"401 413 CURVE SMOOTH",
"425 413 OFFCURVE",
"483 454 OFFCURVE",
"510 454 CURVE SMOOTH",
"559 454 OFFCURVE",
"553 403 OFFCURVE",
"586 403 CURVE",
"588 365 OFFCURVE",
"561 371 OFFCURVE",
"561 356 CURVE SMOOTH",
"561 350 OFFCURVE",
"569 349 OFFCURVE",
"579 350 CURVE",
"565 327 OFFCURVE",
"543 350 OFFCURVE",
"519 329 CURVE",
"517 330 LINE",
"520 337 OFFCURVE",
"521 340 OFFCURVE",
"523 346 CURVE",
"522 347 LINE",
"517 341 OFFCURVE",
"511 338 OFFCURVE",
"505 333 CURVE",
"504 334 LINE",
"510 341 OFFCURVE",
"512 346 OFFCURVE",
"512 349 CURVE",
"508 355 OFFCURVE",
"498 365 OFFCURVE",
"474 365 CURVE",
"479 362 OFFCURVE",
"482 359 OFFCURVE",
"482 352 CURVE SMOOTH",
"482 343 OFFCURVE",
"474 338 OFFCURVE",
"467 338 CURVE SMOOTH",
"458 338 OFFCURVE",
"451 343 OFFCURVE",
"451 352 CURVE SMOOTH",
"451 358 OFFCURVE",
"454 362 OFFCURVE",
"457 364 CURVE",
"438 364 OFFCURVE",
"426 352 OFFCURVE",
"415 337 CURVE",
"408 339 LINE",
"413 349 LINE",
"404 352 OFFCURVE",
"391 349 OFFCURVE",
"383 339 CURVE",
"380 340 LINE",
"379 350 OFFCURVE",
"381 364 OFFCURVE",
"392 374 CURVE",
"387 373 OFFCURVE",
"377 372 OFFCURVE",
"363 378 CURVE",
"363 381 LINE",
"387 381 OFFCURVE",
"397 388 OFFCURVE",
"392 399 CURVE",
"379 402 OFFCURVE",
"367 406 OFFCURVE",
"367 421 CURVE SMOOTH",
"367 429 OFFCURVE",
"374 442 OFFCURVE",
"389 456 CURVE"
);
},
{
closed = 0;
nodes = (
"404 367 LINE"
);
},
{
closed = 1;
nodes = (
"417 318 OFFCURVE",
"409 317 OFFCURVE",
"404 317 CURVE",
"401 313 LINE",
"413 292 OFFCURVE",
"430 284 OFFCURVE",
"448 280 CURVE",
"426 291 OFFCURVE",
"421 301 OFFCURVE",
"420 305 CURVE",
"423 309 LINE",
"453 299 OFFCURVE",
"478 299 OFFCURVE",
"507 323 CURVE",
"470 305 OFFCURVE",
"445 312 OFFCURVE",
"420 324 CURVE"
);
},
{
closed = 1;
nodes = (
"447 377 LINE",
"485 397 OFFCURVE",
"523 365 OFFCURVE",
"535 365 CURVE SMOOTH",
"544 365 OFFCURVE",
"547 374 OFFCURVE",
"542 389 CURVE",
"528 389 OFFCURVE",
"508 410 OFFCURVE",
"490 410 CURVE SMOOTH",
"467 410 OFFCURVE",
"449 393 OFFCURVE",
"444 379 CURVE"
);
},
{
closed = 1;
nodes = (
"437 334 OFFCURVE",
"452 324 OFFCURVE",
"469 325 CURVE SMOOTH",
"484 326 OFFCURVE",
"497 338 OFFCURVE",
"492 357 CURVE",
"490 357 LINE",
"492 338 OFFCURVE",
"480 329 OFFCURVE",
"467 329 CURVE SMOOTH",
"454 329 OFFCURVE",
"441 337 OFFCURVE",
"443 355 CURVE",
"441 355 LINE"
);
},
{
closed = 1;
nodes = (
"405 227 OFFCURVE",
"412 218 OFFCURVE",
"415 202 CURVE",
"420 202 LINE",
"420 208 OFFCURVE",
"418 214 OFFCURVE",
"417 218 CURVE",
"420 219 LINE",
"444 172 OFFCURVE",
"458 196 OFFCURVE",
"487 136 CURVE",
"490 137 LINE",
"466 198 OFFCURVE",
"449 186 OFFCURVE",
"423 225 CURVE",
"415 223 LINE",
"412 226 OFFCURVE",
"407 231 OFFCURVE",
"402 234 CURVE",
"397 233 LINE"
);
},
{
closed = 1;
nodes = (
"269 112 OFFCURVE",
"307 126 OFFCURVE",
"319 126 CURVE",
"328 119 OFFCURVE",
"334 113 OFFCURVE",
"347 112 CURVE SMOOTH",
"358 111 OFFCURVE",
"364 116 OFFCURVE",
"370 122 CURVE",
"402 118 OFFCURVE",
"432 113 OFFCURVE",
"448 120 CURVE",
"459 111 OFFCURVE",
"474 108 OFFCURVE",
"478 95 CURVE",
"454 102 LINE",
"444 101 OFFCURVE",
"437 100 OFFCURVE",
"426 100 CURVE SMOOTH",
"417 100 OFFCURVE",
"400 109 OFFCURVE",
"384 105 CURVE SMOOTH",
"371 102 OFFCURVE",
"363 98 OFFCURVE",
"351 97 CURVE",
"347 84 LINE",
"344 85 LINE",
"344 97 LINE",
"333 100 OFFCURVE",
"312 111 OFFCURVE",
"302 109 CURVE SMOOTH",
"269 103 LINE",
"282 100 OFFCURVE",
"283 88 OFFCURVE",
"304 84 CURVE",
"279 82 OFFCURVE",
"257 104 OFFCURVE",
"242 106 CURVE SMOOTH",
"235 107 OFFCURVE",
"228 114 OFFCURVE",
"228 124 CURVE"
);
},
{
closed = 1;
nodes = (
"584 323 OFFCURVE",
"588 315 OFFCURVE",
"585 302 CURVE SMOOTH",
"582 290 OFFCURVE",
"565 275 OFFCURVE",
"552 239 CURVE SMOOTH",
"543 215 OFFCURVE",
"540 182 OFFCURVE",
"541 157 CURVE",
"547 159 LINE",
"549 211 OFFCURVE",
"567 258 OFFCURVE",
"603 267 CURVE",
"596 290 OFFCURVE",
"600 298 OFFCURVE",
"609 306 CURVE",
"591 333 LINE",
"584 333 LINE"
);
},
{
closed = 1;
nodes = (
"255 81 OFFCURVE",
"263 84 OFFCURVE",
"270 80 CURVE SMOOTH",
"280 74 OFFCURVE",
"291 63 OFFCURVE",
"309 62 CURVE SMOOTH",
"326 61 OFFCURVE",
"347 65 OFFCURVE",
"363 63 CURVE SMOOTH",
"377 61 OFFCURVE",
"396 42 OFFCURVE",
"430 57 CURVE",
"431 55 LINE",
"415 35 OFFCURVE",
"408 32 OFFCURVE",
"398 32 CURVE SMOOTH",
"388 32 OFFCURVE",
"366 39 OFFCURVE",
"349 39 CURVE SMOOTH",
"331 39 OFFCURVE",
"301 25 OFFCURVE",
"282 34 CURVE SMOOTH",
"262 44 OFFCURVE",
"253 61 OFFCURVE",
"246 81 CURVE"
);
},
{
closed = 1;
nodes = (
"216 95 OFFCURVE",
"212 72 OFFCURVE",
"232 62 CURVE",
"239 77 OFFCURVE",
"226 96 OFFCURVE",
"220 102 CURVE"
);
},
{
closed = 1;
nodes = (
"503 499 LINE",
"467 493 OFFCURVE",
"440 485 OFFCURVE",
"405 464 CURVE",
"402 468 LINE",
"437 489 OFFCURVE",
"462 501 OFFCURVE",
"501 502 CURVE"
);
},
{
closed = 1;
nodes = (
"359 539 OFFCURVE",
"413 577 OFFCURVE",
"469 568 CURVE",
"469 566 LINE",
"401 568 OFFCURVE",
"364 525 OFFCURVE",
"253 556 CURVE",
"254 559 LINE"
);
},
{
closed = 1;
nodes = (
"284 523 OFFCURVE",
"324 512 OFFCURVE",
"356 512 CURVE SMOOTH",
"402 512 OFFCURVE",
"442 539 OFFCURVE",
"498 537 CURVE",
"498 535 LINE",
"439 532 OFFCURVE",
"397 503 OFFCURVE",
"357 502 CURVE SMOOTH",
"319 501 OFFCURVE",
"282 519 OFFCURVE",
"217 525 CURVE",
"219 527 LINE"
);
},
{
closed = 1;
nodes = (
"222 138 LINE",
"228 161 OFFCURVE",
"239 176 OFFCURVE",
"259 193 CURVE",
"254 199 LINE",
"237 186 OFFCURVE",
"220 161 OFFCURVE",
"217 140 CURVE"
);
}
);
width = 694;
},
{
associatedMasterId = "5EE76762-6375-4A5E-A826-D96F22DA5141";
layerId = "54540FFD-25DF-448C-A597-87C9218256B4";
name = "Dec 31 18, 14:08";
paths = (
{
closed = 1;
nodes = (
"473 751 OFFCURVE",
"605 684 OFFCURVE",
"597 498 CURVE SMOOTH",
"596 476 OFFCURVE",
"592 465 OFFCURVE",
"590 451 CURVE",
"601 448 OFFCURVE",
"603 414 OFFCURVE",
"596 376 CURVE SMOOTH",
"587 329 OFFCURVE",
"599 299 OFFCURVE",
"591 270 CURVE SMOOTH",
"585 247 OFFCURVE",
"566 246 OFFCURVE",
"556 225 CURVE SMOOTH",
"541 194 OFFCURVE",
"550 147 OFFCURVE",
"489 69 CURVE SMOOTH",
"471 46 OFFCURVE",
"460 47 OFFCURVE",
"447 33 CURVE SMOOTH",
"429 14 OFFCURVE",
"409 -10 OFFCURVE",
"331 -10 CURVE SMOOTH",
"209 -10 OFFCURVE",
"148 31 OFFCURVE",
"96 152 CURVE SMOOTH",
"87 173 OFFCURVE",
"90 198 OFFCURVE",
"85 221 CURVE",
"67 237 OFFCURVE",
"52 261 OFFCURVE",
"47 285 CURVE SMOOTH",
"42 310 OFFCURVE",
"48 338 OFFCURVE",
"46 351 CURVE SMOOTH",
"44 363 OFFCURVE",
"25 421 OFFCURVE",
"54 437 CURVE",
"52 662 OFFCURVE",
"126 749 OFFCURVE",
"331 750 CURVE SMOOTH"
);
},
{
closed = 1;
nodes = (
"554 348 OFFCURVE",
"546 359 OFFCURVE",
"547 382 CURVE SMOOTH",
"553 524 OFFCURVE",
"546 655 OFFCURVE",
"439 655 CURVE SMOOTH",
"397 655 OFFCURVE",
"365 615 OFFCURVE",
"328 614 CURVE SMOOTH",
"292 613 OFFCURVE",
"242 650 OFFCURVE",
"201 650 CURVE SMOOTH",
"159 650 OFFCURVE",
"128 630 OFFCURVE",
"121 571 CURVE SMOOTH",
"115 521 OFFCURVE",
"128 464 OFFCURVE",
"123 427 CURVE",
"137 437 OFFCURVE",
"151 446 OFFCURVE",
"166 446 CURVE SMOOTH",
"207 446 OFFCURVE",
"284 390 OFFCURVE",
"305 415 CURVE",
"313 407 OFFCURVE",
"315 398 OFFCURVE",
"308 390 CURVE SMOOTH",
"301 382 OFFCURVE",
"291 380 OFFCURVE",
"292 371 CURVE",
"292 366 OFFCURVE",
"307 361 OFFCURVE",
"307 354 CURVE",
"308 351 OFFCURVE",
"304 348 OFFCURVE",
"301 347 CURVE",
"299 318 OFFCURVE",
"301 277 OFFCURVE",
"299 263 CURVE",
"295 256 OFFCURVE",
"292 251 OFFCURVE",
"292 243 CURVE SMOOTH",
"292 227 OFFCURVE",
"310 220 OFFCURVE",
"319 220 CURVE SMOOTH",
"332 220 OFFCURVE",
"344 233 OFFCURVE",
"350 234 CURVE SMOOTH",
"356 235 OFFCURVE",
"359 227 OFFCURVE",
"352 221 CURVE",
"354 216 OFFCURVE",
"359 219 OFFCURVE",
"364 219 CURVE SMOOTH",
"370 219 OFFCURVE",
"377 206 OFFCURVE",
"387 213 CURVE",
"384 204 OFFCURVE",
"375 199 OFFCURVE",
"367 199 CURVE SMOOTH",
"351 199 OFFCURVE",
"346 191 OFFCURVE",
"336 188 CURVE",
"337 173 LINE",
"334 172 LINE",
"328 185 LINE",
"308 185 LINE",
"297 169 LINE",
"294 171 LINE",
"295 189 LINE",
"291 191 LINE",
"264 183 OFFCURVE",
"244 189 OFFCURVE",
"244 206 CURVE SMOOTH",
"244 212 OFFCURVE",
"245 228 OFFCURVE",
"259 237 CURVE",
"256 226 OFFCURVE",
"259 217 OFFCURVE",
"270 217 CURVE SMOOTH",
"276 217 OFFCURVE",
"282 225 OFFCURVE",
"282 235 CURVE SMOOTH",
"282 246 OFFCURVE",
"278 252 OFFCURVE",
"267 246 CURVE",
"271 259 OFFCURVE",
"277 272 OFFCURVE",
"276 282 CURVE SMOOTH",
"275 294 OFFCURVE",
"261 301 OFFCURVE",
"261 311 CURVE SMOOTH",
"261 321 OFFCURVE",
"277 330 OFFCURVE",
"277 338 CURVE",
"268 338 LINE SMOOTH",
"253 338 OFFCURVE",
"257 348 OFFCURVE",
"254 354 CURVE SMOOTH",
"251 361 OFFCURVE",
"245 367 OFFCURVE",
"237 372 CURVE SMOOTH",
"210 389 OFFCURVE",
"204 413 OFFCURVE",
"173 412 CURVE SMOOTH",
"150 411 OFFCURVE",
"140 394 OFFCURVE",
"134 387 CURVE",
"148 372 LINE",
"175 380 OFFCURVE",
"210 392 OFFCURVE",
"234 367 CURVE",
"223 366 LINE",
"224 363 OFFCURVE",
"225 361 OFFCURVE",
"225 356 CURVE SMOOTH",
"225 353 OFFCURVE",
"223 344 OFFCURVE",
"211 344 CURVE SMOOTH",
"203 344 OFFCURVE",
"198 349 OFFCURVE",
"198 355 CURVE SMOOTH",
"198 362 OFFCURVE",
"202 368 OFFCURVE",
"207 369 CURVE",
"186 375 OFFCURVE",
"170 364 OFFCURVE",
"162 354 CURVE",
"171 330 OFFCURVE",
"182 325 OFFCURVE",
"212 322 CURVE",
"185 312 OFFCURVE",
"164 324 OFFCURVE",
"155 347 CURVE",
"148 341 LINE",
"160 290 OFFCURVE",
"175 294 OFFCURVE",
"203 289 CURVE",
"193 287 OFFCURVE",
"180 285 OFFCURVE",
"169 290 CURVE SMOOTH",
"133 306 OFFCURVE",
"145 367 OFFCURVE",
"113 347 CURVE SMOOTH",
"105 342 OFFCURVE",
"97 331 OFFCURVE",
"98 312 CURVE SMOOTH",
"99 287 OFFCURVE",
"125 257 OFFCURVE",
"133 250 CURVE SMOOTH",
"143 241 OFFCURVE",
"163 220 OFFCURVE",
"169 207 CURVE SMOOTH",
"174 197 OFFCURVE",
"170 179 OFFCURVE",
"167 162 CURVE SMOOTH",
"164 146 OFFCURVE",
"167 124 OFFCURVE",
"171 113 CURVE SMOOTH",
"175 102 OFFCURVE",
"140 127 OFFCURVE",
"135 189 CURVE SMOOTH",
"134 202 OFFCURVE",
"130 217 OFFCURVE",
"117 227 CURVE",
"126 193 OFFCURVE",
"114 166 OFFCURVE",
"142 124 CURVE SMOOTH",
"169 83 OFFCURVE",
"200 71 OFFCURVE",
"223 54 CURVE SMOOTH",
"248 35 OFFCURVE",
"254 9 OFFCURVE",
"295 9 CURVE SMOOTH",
"310 9 OFFCURVE",
"322 15 OFFCURVE",
"322 33 CURVE",
"329 33 LINE",
"329 9 OFFCURVE",
"358 0 OFFCURVE",
"388 13 CURVE SMOOTH",
"461 45 OFFCURVE",
"492 91 OFFCURVE",
"497 162 CURVE",
"503 165 LINE",
"507 135 LINE",
"510 137 LINE",
"532 171 OFFCURVE",
"537 222 OFFCURVE",
"538 242 CURVE SMOOTH",
"539 262 OFFCURVE",
"546 265 OFFCURVE",
"554 261 CURVE SMOOTH",
"561 257 OFFCURVE",
"575 264 OFFCURVE",
"578 275 CURVE SMOOTH",
"583 295 OFFCURVE",
"571 343 OFFCURVE",
"581 391 CURVE SMOOTH",
"584 406 LINE",
"564 412 OFFCURVE",
"559 380 OFFCURVE",
"562 334 CURVE",
"559 333 LINE"
);
},
{
closed = 1;
nodes = (
"235 344 OFFCURVE",
"224 332 OFFCURVE",
"209 332 CURVE SMOOTH",
"195 332 OFFCURVE",
"186 340 OFFCURVE",
"186 351 CURVE SMOOTH",
"186 359 OFFCURVE",
"190 364 OFFCURVE",
"195 368 CURVE",
"196 367 LINE",
"193 364 OFFCURVE",
"190 358 OFFCURVE",
"190 353 CURVE SMOOTH",
"190 344 OFFCURVE",
"197 336 OFFCURVE",
"210 336 CURVE SMOOTH",
"222 336 OFFCURVE",
"231 345 OFFCURVE",
"231 359 CURVE",
"233 359 LINE"
);
},
{
closed = 1;
nodes = (
"257 474 OFFCURVE",
"312 460 OFFCURVE",
"307 422 CURVE",
"310 421 LINE",
"323 469 OFFCURVE",
"249 481 OFFCURVE",
"226 483 CURVE",
"225 481 LINE"
);
},
{
closed = 1;
nodes = (
"360 450 LINE",
"347 431 OFFCURVE",
"353 414 OFFCURVE",
"369 414 CURVE SMOOTH",
"391 414 OFFCURVE",
"444 452 OFFCURVE",
"469 452 CURVE SMOOTH",
"514 452 OFFCURVE",
"508 405 OFFCURVE",
"539 405 CURVE",
"541 370 OFFCURVE",
"516 375 OFFCURVE",
"516 362 CURVE SMOOTH",
"516 356 OFFCURVE",
"523 355 OFFCURVE",
"532 356 CURVE",
"519 335 OFFCURVE",
"499 356 OFFCURVE",
"477 337 CURVE",
"475 338 LINE",
"478 344 OFFCURVE",
"479 347 OFFCURVE",
"481 352 CURVE",
"480 353 LINE",
"475 348 OFFCURVE",
"470 345 OFFCURVE",
"464 340 CURVE",
"463 341 LINE",
"469 348 OFFCURVE",
"471 352 OFFCURVE",
"471 355 CURVE",
"467 361 OFFCURVE",
"458 370 OFFCURVE",
"436 370 CURVE",
"441 368 OFFCURVE",
"443 364 OFFCURVE",
"443 358 CURVE SMOOTH",
"443 351 OFFCURVE",
"436 345 OFFCURVE",
"429 345 CURVE SMOOTH",
"421 345 OFFCURVE",
"414 349 OFFCURVE",
"414 358 CURVE SMOOTH",
"414 364 OFFCURVE",
"417 367 OFFCURVE",
"420 369 CURVE",
"403 369 OFFCURVE",
"392 358 OFFCURVE",
"382 344 CURVE",
"376 346 LINE",
"380 355 LINE",
"372 358 OFFCURVE",
"360 355 OFFCURVE",
"353 346 CURVE",
"350 347 LINE",
"349 356 OFFCURVE",
"351 369 OFFCURVE",
"361 378 CURVE",
"356 377 OFFCURVE",
"347 376 OFFCURVE",
"334 382 CURVE",
"334 385 LINE",
"356 385 OFFCURVE",
"366 391 OFFCURVE",
"361 401 CURVE",
"349 404 OFFCURVE",
"338 408 OFFCURVE",
"338 421 CURVE SMOOTH",
"338 429 OFFCURVE",
"344 441 OFFCURVE",
"358 454 CURVE"
);
},
{
closed = 0;
nodes = (
"372 372 LINE"
);
},
{
closed = 1;
nodes = (
"384 327 OFFCURVE",
"377 326 OFFCURVE",
"372 326 CURVE",
"369 322 LINE",
"380 303 OFFCURVE",
"396 295 OFFCURVE",
"412 292 CURVE",
"392 302 OFFCURVE",
"388 311 OFFCURVE",
"387 315 CURVE",
"390 318 LINE",
"416 309 OFFCURVE",
"439 309 OFFCURVE",
"466 331 CURVE",
"432 315 OFFCURVE",
"410 321 OFFCURVE",
"387 332 CURVE"
);
},
{
closed = 1;
nodes = (
"411 381 LINE",
"446 399 OFFCURVE",
"481 370 OFFCURVE",
"492 370 CURVE SMOOTH",
"500 370 OFFCURVE",
"503 378 OFFCURVE",
"498 392 CURVE",
"485 392 OFFCURVE",
"467 411 OFFCURVE",
"450 411 CURVE SMOOTH",
"429 411 OFFCURVE",
"413 396 OFFCURVE",
"409 383 CURVE"
);
},
{
closed = 1;
nodes = (
"403 341 OFFCURVE",
"416 332 OFFCURVE",
"431 333 CURVE SMOOTH",
"444 334 OFFCURVE",
"456 345 OFFCURVE",
"450 362 CURVE",
"449 362 LINE",
"451 345 OFFCURVE",
"440 337 OFFCURVE",
"429 337 CURVE SMOOTH",
"417 337 OFFCURVE",
"406 344 OFFCURVE",
"407 361 CURVE",
"406 361 LINE"
);
},
{
closed = 1;
nodes = (
"373 244 OFFCURVE",
"379 235 OFFCURVE",
"382 221 CURVE",
"387 221 LINE",
"387 226 OFFCURVE",
"385 232 OFFCURVE",
"384 235 CURVE",
"387 236 LINE",
"409 193 OFFCURVE",
"421 215 OFFCURVE",
"448 160 CURVE",
"450 161 LINE",
"428 217 OFFCURVE",
"413 206 OFFCURVE",
"390 242 CURVE",
"382 240 LINE",
"379 243 OFFCURVE",
"375 247 OFFCURVE",
"370 250 CURVE",
"366 249 LINE"
);
},
{
closed = 1;
nodes = (
"248 138 OFFCURVE",
"283 151 OFFCURVE",
"294 151 CURVE",
"302 144 OFFCURVE",
"308 139 OFFCURVE",
"320 138 CURVE SMOOTH",
"330 137 OFFCURVE",
"335 142 OFFCURVE",
"341 147 CURVE",
"370 143 OFFCURVE",
"398 139 OFFCURVE",
"412 145 CURVE",
"422 137 OFFCURVE",
"436 134 OFFCURVE",
"439 122 CURVE",
"417 129 LINE",
"409 128 OFFCURVE",
"402 127 OFFCURVE",
"392 127 CURVE SMOOTH",
"384 127 OFFCURVE",
"368 135 OFFCURVE",
"354 131 CURVE SMOOTH",
"342 128 OFFCURVE",
"334 125 OFFCURVE",
"323 124 CURVE",
"320 112 LINE",
"317 113 LINE",
"317 124 LINE",
"307 127 OFFCURVE",
"287 137 OFFCURVE",
"278 135 CURVE SMOOTH",
"248 130 LINE",
"260 127 OFFCURVE",
"261 116 OFFCURVE",
"280 112 CURVE",
"257 110 OFFCURVE",
"237 130 OFFCURVE",
"223 132 CURVE SMOOTH",
"217 133 OFFCURVE",
"211 140 OFFCURVE",
"211 149 CURVE"
);
},
{
closed = 1;
nodes = (
"537 331 OFFCURVE",
"541 324 OFFCURVE",
"538 312 CURVE SMOOTH",
"535 301 OFFCURVE",
"519 287 OFFCURVE",
"507 255 CURVE SMOOTH",
"499 233 OFFCURVE",
"496 202 OFFCURVE",
"497 179 CURVE",
"503 181 LINE",
"505 229 OFFCURVE",
"521 272 OFFCURVE",
"554 280 CURVE",
"548 301 OFFCURVE",
"552 308 OFFCURVE",
"560 316 CURVE",
"543 340 LINE",
"537 340 LINE"
);
},
{
closed = 1;
nodes = (
"235 109 OFFCURVE",
"242 112 OFFCURVE",
"249 108 CURVE SMOOTH",
"258 103 OFFCURVE",
"268 93 OFFCURVE",
"285 92 CURVE SMOOTH",
"300 91 OFFCURVE",
"320 95 OFFCURVE",
"334 93 CURVE SMOOTH",
"347 91 OFFCURVE",
"365 74 OFFCURVE",
"396 87 CURVE",
"397 85 LINE",
"382 68 OFFCURVE",
"376 65 OFFCURVE",
"367 65 CURVE SMOOTH",
"357 65 OFFCURVE",
"337 72 OFFCURVE",
"321 72 CURVE SMOOTH",
"305 72 OFFCURVE",
"277 59 OFFCURVE",
"260 67 CURVE SMOOTH",
"241 76 OFFCURVE",
"233 91 OFFCURVE",
"227 109 CURVE"
);
},
{
closed = 1;
nodes = (
"200 122 OFFCURVE",
"196 101 OFFCURVE",
"215 92 CURVE",
"220 106 OFFCURVE",
"209 123 OFFCURVE",
"204 129 CURVE"
);
},
{
closed = 1;
nodes = (
"462 492 LINE",
"429 487 OFFCURVE",
"405 479 OFFCURVE",
"373 461 CURVE",
"370 465 LINE",
"402 483 OFFCURVE",
"425 494 OFFCURVE",
"460 495 CURVE"
);
},
{
closed = 1;
nodes = (
"331 529 OFFCURVE",
"380 564 OFFCURVE",
"431 556 CURVE",
"431 554 LINE",
"369 556 OFFCURVE",
"335 516 OFFCURVE",
"233 545 CURVE",
"234 548 LINE"
);
},
{
closed = 1;
nodes = (
"262 514 OFFCURVE",
"298 504 OFFCURVE",
"328 504 CURVE SMOOTH",
"370 504 OFFCURVE",
"407 529 OFFCURVE",
"458 527 CURVE",
"458 525 LINE",
"404 523 OFFCURVE",
"366 496 OFFCURVE",
"329 495 CURVE SMOOTH",
"294 494 OFFCURVE",
"260 511 OFFCURVE",
"201 516 CURVE",
"203 518 LINE"
);
},
{
closed = 1;
nodes = (
"205 162 LINE",
"211 183 OFFCURVE",
"220 197 OFFCURVE",
"239 212 CURVE",
"234 218 LINE",
"219 206 OFFCURVE",
"204 183 OFFCURVE",
"201 164 CURVE"
);
}
);
width = 638;
}
);
},
{
color = 5;
glyphname = maniright;
lastChange = "2019-01-12 13:26:53 +0000";
layers = (
{
layerId = "E37CEFC3-0F3F-4B77-973B-7BF6C2788C53";
paths = (
{
closed = 1;
nodes = (
"225 425 OFFCURVE",
"251 427 OFFCURVE",
"266 424 CURVE",
"260 419 OFFCURVE",
"253 411 OFFCURVE",
"248 395 CURVE",
"252 394 LINE",
"288 463 OFFCURVE",
"400 437 OFFCURVE",
"435 449 CURVE",
"439 447 LINE",
"429 439 OFFCURVE",
"418 427 OFFCURVE",
"410 417 CURVE",
"416 414 LINE",
"449 462 OFFCURVE",
"549 480 OFFCURVE",
"505 425 CURVE",
"511 424 LINE",
"522 439 OFFCURVE",
"533 445 OFFCURVE",
"548 445 CURVE SMOOTH",
"579 445 OFFCURVE",
"597 430 OFFCURVE",
"651 425 CURVE SMOOTH",
"717 419 OFFCURVE",
"770 400 OFFCURVE",
"799 394 CURVE SMOOTH",
"835 387 OFFCURVE",
"864 383 OFFCURVE",
"882 383 CURVE",
"901 337 OFFCURVE",
"840 336 OFFCURVE",
"802 372 CURVE",
"799 370 LINE",
"802 364 OFFCURVE",
"808 358 OFFCURVE",
"816 353 CURVE",
"813 350 LINE",
"790 360 OFFCURVE",
"783 373 OFFCURVE",
"769 373 CURVE SMOOTH",
"751 373 OFFCURVE",
"748 362 OFFCURVE",
"721 362 CURVE SMOOTH",
"707 362 OFFCURVE",
"693 368 OFFCURVE",
"686 378 CURVE",
"665 364 OFFCURVE",
"657 359 OFFCURVE",
"634 359 CURVE SMOOTH",
"615 359 OFFCURVE",
"603 384 OFFCURVE",
"591 378 CURVE SMOOTH",
"555 360 OFFCURVE",
"532 371 OFFCURVE",
"544 389 CURVE",
"540 391 LINE",
"520 371 OFFCURVE",
"473 374 OFFCURVE",
"432 323 CURVE",
"449 323 LINE",
"437 312 OFFCURVE",
"416 300 OFFCURVE",
"404 264 CURVE",
"408 260 LINE",
"425 302 OFFCURVE",
"451 312 OFFCURVE",
"469 310 CURVE",
"459 302 OFFCURVE",
"455 290 OFFCURVE",
"455 282 CURVE SMOOTH",
"455 271 OFFCURVE",
"469 264 OFFCURVE",
"491 255 CURVE",
"469 252 LINE",
"471 247 LINE",
"546 255 OFFCURVE",
"543 234 OFFCURVE",
"584 229 CURVE SMOOTH",
"624 224 OFFCURVE",
"663 201 OFFCURVE",
"681 176 CURVE",
"654 187 OFFCURVE",
"629 185 OFFCURVE",
"622 160 CURVE",
"612 176 LINE",
"596 165 LINE",
"597 169 OFFCURVE",
"599 177 OFFCURVE",
"599 185 CURVE",
"596 186 LINE",
"593 177 OFFCURVE",
"591 170 OFFCURVE",
"584 164 CURVE",
"580 177 OFFCURVE",
"582 191 OFFCURVE",
"585 204 CURVE",
"578 203 LINE",
"576 189 OFFCURVE",
"573 179 OFFCURVE",
"561 168 CURVE",
"560 192 LINE",
"527 160 OFFCURVE",
"516 181 OFFCURVE",
"513 188 CURVE",
"485 174 OFFCURVE",
"445 175 OFFCURVE",
"430 199 CURVE",
"413 162 OFFCURVE",
"328 177 OFFCURVE",
"326 235 CURVE",
"320 234 LINE",
"318 224 OFFCURVE",
"322 210 OFFCURVE",
"326 204 CURVE",
"288 212 OFFCURVE",
"282 228 OFFCURVE",
"281 246 CURVE",
"273 245 LINE",
"278 219 OFFCURVE",
"267 211 OFFCURVE",
"240 218 CURVE SMOOTH",
"163 238 OFFCURVE",
"159 362 OFFCURVE",
"211 421 CURVE"
);
},
{
closed = 1;
nodes = (
"693 151 OFFCURVE",
"691 135 OFFCURVE",
"681 127 CURVE",
"654 136 LINE",
"653 133 LINE",
"675 122 LINE",
"671 120 OFFCURVE",
"669 118 OFFCURVE",
"664 117 CURVE",
"632 132 LINE",
"622 179 OFFCURVE",
"650 182 OFFCURVE",
"692 164 CURVE"
);
},
{
closed = 1;
nodes = (
"562 152 LINE",
"561 146 LINE",
"569 144 LINE",
"568 132 LINE",
"573 132 LINE",
"578 142 LINE",
"581 141 LINE",
"581 123 OFFCURVE",
"570 116 OFFCURVE",
"558 120 CURVE SMOOTH",
"546 124 OFFCURVE",
"545 139 OFFCURVE",
"550 152 CURVE",
"545 152 LINE",
"537 138 OFFCURVE",
"539 115 OFFCURVE",
"557 111 CURVE SMOOTH",
"580 106 OFFCURVE",
"599 122 OFFCURVE",
"609 138 CURVE"
);
},
{
closed = 1;
nodes = (
"485 174 LINE",
"473 157 LINE",
"478 154 LINE",
"491 169 LINE",
"504 164 LINE",
"495 152 LINE",
"498 150 LINE",
"507 156 LINE",
"515 152 LINE",
"483 117 OFFCURVE",
"450 133 OFFCURVE",
"472 168 CURVE",
"467 169 LINE",
"450 138 OFFCURVE",
"420 152 OFFCURVE",
"436 170 CURVE",
"431 171 LINE",
"418 152 OFFCURVE",
"435 133 OFFCURVE",
"456 147 CURVE",
"456 110 OFFCURVE",
"511 122 OFFCURVE",
"539 157 CURVE"
);
},
{
closed = 1;
nodes = (
"74 99 OFFCURVE",
"103 97 OFFCURVE",
"124 103 CURVE",
"134 114 OFFCURVE",
"142 132 OFFCURVE",
"144 147 CURVE",
"166 151 OFFCURVE",
"184 180 OFFCURVE",
"190 213 CURVE",
"196 215 LINE",
"241 203 OFFCURVE",
"258 199 OFFCURVE",
"289 198 CURVE",
"331 179 OFFCURVE",
"380 160 OFFCURVE",
"450 166 CURVE SMOOTH",
"496 170 OFFCURVE",
"546 152 OFFCURVE",
"662 110 CURVE",
"681 111 OFFCURVE",
"701 122 OFFCURVE",
"701 157 CURVE SMOOTH",
"701 174 OFFCURVE",
"685 197 OFFCURVE",
"657 216 CURVE",
"668 249 OFFCURVE",
"683 300 OFFCURVE",
"683 323 CURVE",
"667 340 LINE",
"674 343 OFFCURVE",
"681 344 OFFCURVE",
"688 343 CURVE SMOOTH",
"694 342 OFFCURVE",
"718 338 OFFCURVE",
"736 338 CURVE SMOOTH",
"754 338 OFFCURVE",
"764 342 OFFCURVE",
"778 342 CURVE SMOOTH",
"793 342 OFFCURVE",
"817 335 OFFCURVE",
"855 335 CURVE SMOOTH",
"893 335 OFFCURVE",
"905 360 OFFCURVE",
"888 389 CURVE",
"874 389 OFFCURVE",
"835 398 OFFCURVE",
"818 401 CURVE SMOOTH",
"783 407 OFFCURVE",
"715 425 OFFCURVE",
"685 430 CURVE SMOOTH",
"657 435 OFFCURVE",
"582 445 OFFCURVE",
"567 449 CURVE SMOOTH",
"551 453 OFFCURVE",
"532 465 OFFCURVE",
"516 467 CURVE SMOOTH",
"496 470 OFFCURVE",
"473 462 OFFCURVE",
"444 460 CURVE SMOOTH",
"412 458 OFFCURVE",
"400 462 OFFCURVE",
"362 456 CURVE SMOOTH",
"212 433 LINE",
"187 447 LINE",
"178 444 LINE",
"156 471 LINE",
"138 475 OFFCURVE",
"113 477 OFFCURVE",
"89 474 CURVE",
"53 421 OFFCURVE",
"28 322 OFFCURVE",
"28 228 CURVE SMOOTH",
"28 183 OFFCURVE",
"34 142 OFFCURVE",
"46 106 CURVE"
);
},
{
closed = 1;
nodes = (
"94 206 OFFCURVE",
"130 209 OFFCURVE",
"142 192 CURVE",
"139 228 OFFCURVE",
"136 260 OFFCURVE",
"141 295 CURVE",
"138 296 LINE",
"132 270 OFFCURVE",
"133 237 OFFCURVE",
"135 206 CURVE",
"126 210 LINE",
"120 267 OFFCURVE",
"132 400 OFFCURVE",
"175 436 CURVE",
"182 435 LINE",
"171 423 OFFCURVE",
"162 406 OFFCURVE",
"157 386 CURVE",
"159 385 LINE",
"168 407 OFFCURVE",
"178 425 OFFCURVE",
"188 433 CURVE",
"198 431 LINE",
"182 417 OFFCURVE",
"169 386 OFFCURVE",
"163 356 CURVE SMOOTH",
"146 270 OFFCURVE",
"196 168 OFFCURVE",
"145 154 CURVE",
"144 157 LINE",
"157 203 OFFCURVE",
"100 209 OFFCURVE",
"100 176 CURVE SMOOTH",
"100 152 OFFCURVE",
"133 150 OFFCURVE",
"139 170 CURVE",
"141 169 LINE",
"135 141 OFFCURVE",
"94 147 OFFCURVE",
"94 175 CURVE SMOOTH"
);
},
{
closed = 1;
nodes = (
"597 270 OFFCURVE",
"608 290 OFFCURVE",
"647 307 CURVE",
"645 310 LINE",
"593 294 OFFCURVE",
"585 318 OFFCURVE",
"609 329 CURVE",
"620 334 OFFCURVE",
"656 324 OFFCURVE",
"671 307 CURVE",
"665 305 OFFCURVE",
"657 301 OFFCURVE",
"657 295 CURVE SMOOTH",
"657 288 OFFCURVE",
"662 282 OFFCURVE",
"659 273 CURVE SMOOTH",
"656 263 OFFCURVE",
"638 254 OFFCURVE",
"647 221 CURVE",
"634 227 OFFCURVE",
"620 233 OFFCURVE",
"606 237 CURVE"
);
},
{
closed = 1;
nodes = (
"142 239 OFFCURVE",
"144 224 OFFCURVE",
"147 193 CURVE",
"152 193 LINE",
"148 225 OFFCURVE",
"147 242 OFFCURVE",
"147 265 CURVE",
"144 265 LINE"
);
},
{
closed = 1;
nodes = (
"112 163 OFFCURVE",
"108 169 OFFCURVE",
"108 176 CURVE SMOOTH",
"108 185 OFFCURVE",
"114 189 OFFCURVE",
"121 189 CURVE SMOOTH",
"128 189 OFFCURVE",
"135 185 OFFCURVE",
"135 176 CURVE SMOOTH",
"135 169 OFFCURVE",
"128 163 OFFCURVE",
"121 163 CURVE SMOOTH"
);
},
{
closed = 1;
nodes = (
"560 260 OFFCURVE",
"573 267 OFFCURVE",
"585 270 CURVE",
"587 267 LINE",
"582 260 OFFCURVE",
"579 252 OFFCURVE",
"576 241 CURVE",
"566 243 LINE",
"570 252 LINE",
"567 253 LINE",
"560 246 LINE",
"549 251 LINE"
);
}
);
width = 908;
},
{
layerId = "5EE76762-6375-4A5E-A826-D96F22DA5141";
paths = (
{
closed = 1;
nodes = (
"225 425 OFFCURVE",
"251 427 OFFCURVE",
"266 424 CURVE",
"260 419 OFFCURVE",
"253 411 OFFCURVE",
"248 395 CURVE",
"252 394 LINE",
"288 463 OFFCURVE",
"400 437 OFFCURVE",
"435 449 CURVE",
"439 447 LINE",
"429 439 OFFCURVE",
"418 427 OFFCURVE",
"410 417 CURVE",
"416 414 LINE",
"449 462 OFFCURVE",
"549 480 OFFCURVE",
"505 425 CURVE",
"511 424 LINE",
"522 439 OFFCURVE",
"533 445 OFFCURVE",
"548 445 CURVE SMOOTH",
"579 445 OFFCURVE",
"597 430 OFFCURVE",
"651 425 CURVE SMOOTH",
"717 419 OFFCURVE",
"770 400 OFFCURVE",
"799 394 CURVE SMOOTH",
"835 387 OFFCURVE",
"864 383 OFFCURVE",
"882 383 CURVE",
"901 337 OFFCURVE",
"840 336 OFFCURVE",
"802 372 CURVE",
"799 370 LINE",
"802 364 OFFCURVE",
"808 358 OFFCURVE",
"816 353 CURVE",
"813 350 LINE",
"790 360 OFFCURVE",
"783 373 OFFCURVE",
"769 373 CURVE SMOOTH",
"751 373 OFFCURVE",
"748 362 OFFCURVE",
"721 362 CURVE SMOOTH",
"707 362 OFFCURVE",
"693 368 OFFCURVE",
"686 378 CURVE",
"665 364 OFFCURVE",
"657 359 OFFCURVE",
"634 359 CURVE SMOOTH",
"615 359 OFFCURVE",
"603 384 OFFCURVE",
"591 378 CURVE SMOOTH",
"555 360 OFFCURVE",
"532 371 OFFCURVE",
"544 389 CURVE",
"540 391 LINE",
"520 371 OFFCURVE",
"473 374 OFFCURVE",
"432 323 CURVE",
"449 323 LINE",
"437 312 OFFCURVE",
"416 300 OFFCURVE",
"404 264 CURVE",
"408 260 LINE",
"425 302 OFFCURVE",
"451 312 OFFCURVE",
"469 310 CURVE",
"459 302 OFFCURVE",
"455 290 OFFCURVE",
"455 282 CURVE SMOOTH",
"455 271 OFFCURVE",
"469 264 OFFCURVE",
"491 255 CURVE",
"469 252 LINE",
"471 247 LINE",
"546 255 OFFCURVE",
"543 234 OFFCURVE",
"584 229 CURVE SMOOTH",
"624 224 OFFCURVE",
"663 201 OFFCURVE",
"681 176 CURVE",
"654 187 OFFCURVE",
"629 185 OFFCURVE",
"622 160 CURVE",
"612 176 LINE",
"596 165 LINE",
"597 169 OFFCURVE",
"599 177 OFFCURVE",
"599 185 CURVE",
"596 186 LINE",
"593 177 OFFCURVE",
"591 170 OFFCURVE",
"584 164 CURVE",
"580 177 OFFCURVE",
"582 191 OFFCURVE",
"585 204 CURVE",
"578 203 LINE",
"576 189 OFFCURVE",
"573 179 OFFCURVE",
"561 168 CURVE",
"560 192 LINE",
"527 160 OFFCURVE",
"516 181 OFFCURVE",
"513 188 CURVE",
"485 174 OFFCURVE",
"445 175 OFFCURVE",
"430 199 CURVE",
"413 162 OFFCURVE",
"328 177 OFFCURVE",
"326 235 CURVE",
"320 234 LINE",
"318 224 OFFCURVE",
"322 210 OFFCURVE",
"326 204 CURVE",
"288 212 OFFCURVE",
"282 228 OFFCURVE",
"281 246 CURVE",
"273 245 LINE",
"278 219 OFFCURVE",
"267 211 OFFCURVE",
"240 218 CURVE SMOOTH",
"163 238 OFFCURVE",
"159 362 OFFCURVE",
"211 421 CURVE"
);
},
{
closed = 1;
nodes = (
"693 151 OFFCURVE",
"691 135 OFFCURVE",
"681 127 CURVE",
"654 136 LINE",
"653 133 LINE",
"675 122 LINE",
"671 120 OFFCURVE",
"669 118 OFFCURVE",
"664 117 CURVE",
"632 132 LINE",
"622 179 OFFCURVE",
"650 182 OFFCURVE",
"692 164 CURVE"
);
},
{
closed = 1;
nodes = (
"562 152 LINE",
"561 146 LINE",
"569 144 LINE",
"568 132 LINE",
"573 132 LINE",
"578 142 LINE",
"581 141 LINE",
"581 123 OFFCURVE",
"570 116 OFFCURVE",
"558 120 CURVE SMOOTH",
"546 124 OFFCURVE",
"545 139 OFFCURVE",
"550 152 CURVE",
"545 152 LINE",
"537 138 OFFCURVE",
"539 115 OFFCURVE",
"557 111 CURVE SMOOTH",
"580 106 OFFCURVE",
"599 122 OFFCURVE",
"609 138 CURVE"
);
},
{
closed = 1;
nodes = (
"485 174 LINE",
"473 157 LINE",
"478 154 LINE",
"491 169 LINE",
"504 164 LINE",
"495 152 LINE",
"498 150 LINE",
"507 156 LINE",
"515 152 LINE",
"483 117 OFFCURVE",
"450 133 OFFCURVE",
"472 168 CURVE",
"467 169 LINE",
"450 138 OFFCURVE",
"420 152 OFFCURVE",
"436 170 CURVE",
"431 171 LINE",
"418 152 OFFCURVE",
"435 133 OFFCURVE",
"456 147 CURVE",
"456 110 OFFCURVE",
"511 122 OFFCURVE",
"539 157 CURVE"
);
},
{
closed = 1;
nodes = (
"74 99 OFFCURVE",
"103 97 OFFCURVE",
"124 103 CURVE",
"134 114 OFFCURVE",
"142 132 OFFCURVE",
"144 147 CURVE",
"166 151 OFFCURVE",
"184 180 OFFCURVE",
"190 213 CURVE",
"196 215 LINE",
"241 203 OFFCURVE",
"258 199 OFFCURVE",
"289 198 CURVE",
"331 179 OFFCURVE",
"380 160 OFFCURVE",
"450 166 CURVE SMOOTH",
"496 170 OFFCURVE",
"546 152 OFFCURVE",
"662 110 CURVE",
"681 111 OFFCURVE",
"701 122 OFFCURVE",
"701 157 CURVE SMOOTH",
"701 174 OFFCURVE",
"685 197 OFFCURVE",
"657 216 CURVE",
"668 249 OFFCURVE",
"683 300 OFFCURVE",
"683 323 CURVE",
"667 340 LINE",
"674 343 OFFCURVE",
"681 344 OFFCURVE",
"688 343 CURVE SMOOTH",
"694 342 OFFCURVE",
"718 338 OFFCURVE",
"736 338 CURVE SMOOTH",
"754 338 OFFCURVE",
"764 342 OFFCURVE",
"778 342 CURVE SMOOTH",
"793 342 OFFCURVE",
"817 335 OFFCURVE",
"855 335 CURVE SMOOTH",
"893 335 OFFCURVE",
"905 360 OFFCURVE",
"888 389 CURVE",
"874 389 OFFCURVE",
"835 398 OFFCURVE",
"818 401 CURVE SMOOTH",
"783 407 OFFCURVE",
"715 425 OFFCURVE",
"685 430 CURVE SMOOTH",
"657 435 OFFCURVE",
"582 445 OFFCURVE",
"567 449 CURVE SMOOTH",
"551 453 OFFCURVE",
"532 465 OFFCURVE",
"516 467 CURVE SMOOTH",
"496 470 OFFCURVE",
"473 462 OFFCURVE",
"444 460 CURVE SMOOTH",
"412 458 OFFCURVE",
"400 462 OFFCURVE",
"362 456 CURVE SMOOTH",
"212 433 LINE",
"187 447 LINE",
"178 444 LINE",
"156 471 LINE",
"138 475 OFFCURVE",
"113 477 OFFCURVE",
"89 474 CURVE",
"53 421 OFFCURVE",
"28 322 OFFCURVE",
"28 228 CURVE SMOOTH",
"28 183 OFFCURVE",
"34 142 OFFCURVE",
"46 106 CURVE"
);
},
{
closed = 1;
nodes = (
"94 206 OFFCURVE",
"130 209 OFFCURVE",
"142 192 CURVE",
"139 228 OFFCURVE",
"136 260 OFFCURVE",
"141 295 CURVE",
"138 296 LINE",
"132 270 OFFCURVE",
"133 237 OFFCURVE",
"135 206 CURVE",
"126 210 LINE",
"120 267 OFFCURVE",
"132 400 OFFCURVE",
"175 436 CURVE",
"182 435 LINE",
"171 423 OFFCURVE",
"162 406 OFFCURVE",
"157 386 CURVE",
"159 385 LINE",
"168 407 OFFCURVE",
"178 425 OFFCURVE",
"188 433 CURVE",
"198 431 LINE",
"182 417 OFFCURVE",
"169 386 OFFCURVE",
"163 356 CURVE SMOOTH",
"146 270 OFFCURVE",
"196 168 OFFCURVE",
"145 154 CURVE",
"144 157 LINE",
"157 203 OFFCURVE",
"100 209 OFFCURVE",
"100 176 CURVE SMOOTH",
"100 152 OFFCURVE",
"133 150 OFFCURVE",
"139 170 CURVE",
"141 169 LINE",
"135 141 OFFCURVE",
"94 147 OFFCURVE",
"94 175 CURVE SMOOTH"
);
},
{
closed = 1;
nodes = (
"597 270 OFFCURVE",
"608 290 OFFCURVE",
"647 307 CURVE",
"645 310 LINE",
"593 294 OFFCURVE",
"585 318 OFFCURVE",
"609 329 CURVE",
"620 334 OFFCURVE",
"656 324 OFFCURVE",
"671 307 CURVE",
"665 305 OFFCURVE",
"657 301 OFFCURVE",
"657 295 CURVE SMOOTH",
"657 288 OFFCURVE",
"662 282 OFFCURVE",
"659 273 CURVE SMOOTH",
"656 263 OFFCURVE",
"638 254 OFFCURVE",
"647 221 CURVE",
"634 227 OFFCURVE",
"620 233 OFFCURVE",
"606 237 CURVE"
);
},
{
closed = 1;
nodes = (
"142 239 OFFCURVE",
"144 224 OFFCURVE",
"147 193 CURVE",
"152 193 LINE",
"148 225 OFFCURVE",
"147 242 OFFCURVE",
"147 265 CURVE",
"144 265 LINE"
);
},
{
closed = 1;
nodes = (
"112 163 OFFCURVE",
"108 169 OFFCURVE",
"108 176 CURVE SMOOTH",
"108 185 OFFCURVE",
"114 189 OFFCURVE",
"121 189 CURVE SMOOTH",
"128 189 OFFCURVE",
"135 185 OFFCURVE",
"135 176 CURVE SMOOTH",
"135 169 OFFCURVE",
"128 163 OFFCURVE",
"121 163 CURVE SMOOTH"
);
},
{
closed = 1;
nodes = (
"560 260 OFFCURVE",
"573 267 OFFCURVE",
"585 270 CURVE",
"587 267 LINE",
"582 260 OFFCURVE",
"579 252 OFFCURVE",
"576 241 CURVE",
"566 243 LINE",
"570 252 LINE",
"567 253 LINE",
"560 246 LINE",
"549 251 LINE"
);
}
);
width = 908;
}
);
},
{
color = 5;
glyphname = circ;
lastChange = "2019-03-03 18:36:51 +0000";
layers = (
{
layerId = "5EE76762-6375-4A5E-A826-D96F22DA5141";
paths = (
{
closed = 1;
nodes = (
"409 28 LINE",
"409 28 OFFCURVE",
"611 28 OFFCURVE",
"409 28 CURVE SMOOTH",
"207 28 OFFCURVE",
"86 160 OFFCURVE",
"86 351 CURVE SMOOTH",
"86 542 OFFCURVE",
"207 672 OFFCURVE",
"409 672 CURVE SMOOTH",
"611 672 OFFCURVE",
"732 542 OFFCURVE",
"732 351 CURVE SMOOTH",
"732 160 OFFCURVE",
"616 28 OFFCURVE",
"409 28 CURVE",
"409 -20 LINE",
"635 -20 OFFCURVE",
"786 133 OFFCURVE",
"786 351 CURVE SMOOTH",
"786 569 OFFCURVE",
"635 720 OFFCURVE",
"409 720 CURVE SMOOTH",
"182 720 OFFCURVE",
"32 569 OFFCURVE",
"32 351 CURVE SMOOTH",
"32 133 OFFCURVE",
"182 -20 OFFCURVE",
"409 -20 CURVE SMOOTH",
"409 -20 OFFCURVE",
"409 -20 OFFCURVE",
"409 -20 CURVE"
);
}
);
width = 818;
},
{
layerId = "E37CEFC3-0F3F-4B77-973B-7BF6C2788C53";
paths = (
{
closed = 1;
nodes = (
"409 39 LINE",
"409 39 OFFCURVE",
"604 39 OFFCURVE",
"409 39 CURVE SMOOTH",
"214 39 OFFCURVE",
"99 167 OFFCURVE",
"99 351 CURVE SMOOTH",
"99 535 OFFCURVE",
"214 661 OFFCURVE",
"409 661 CURVE SMOOTH",
"604 661 OFFCURVE",
"719 535 OFFCURVE",
"719 351 CURVE SMOOTH",
"719 167 OFFCURVE",
"608 39 OFFCURVE",
"409 39 CURVE",
"409 -20 LINE",
"637 -20 OFFCURVE",
"786 133 OFFCURVE",
"786 351 CURVE SMOOTH",
"786 569 OFFCURVE",
"638 720 OFFCURVE",
"409 720 CURVE SMOOTH",
"180 720 OFFCURVE",
"32 569 OFFCURVE",
"32 351 CURVE SMOOTH",
"32 133 OFFCURVE",
"180 -20 OFFCURVE",
"409 -20 CURVE SMOOTH",
"409 -20 OFFCURVE",
"409 -20 OFFCURVE",
"409 -20 CURVE"
);
}
);
width = 818;
},
{
associatedMasterId = "5EE76762-6375-4A5E-A826-D96F22DA5141";
layerId = "33439900-EAAA-4611-8C57-5D900E048069";
name = "Dec 19 18, 19:34";
paths = (
{
closed = 1;
nodes = (
"389 42 LINE",
"389 42 OFFCURVE",
"389 42 OFFCURVE",
"389 42 CURVE SMOOTH",
"203 42 OFFCURVE",
"82 172 OFFCURVE",
"82 351 CURVE SMOOTH",
"82 530 OFFCURVE",
"203 658 OFFCURVE",
"389 658 CURVE SMOOTH",
"574 658 OFFCURVE",
"696 530 OFFCURVE",
"696 351 CURVE SMOOTH",
"696 172 OFFCURVE",
"574 42 OFFCURVE",
"389 42 CURVE",
"389 -10 LINE",
"597 -10 OFFCURVE",
"756 139 OFFCURVE",
"756 351 CURVE SMOOTH",
"756 563 OFFCURVE",
"597 710 OFFCURVE",
"389 710 CURVE SMOOTH",
"180 710 OFFCURVE",
"22 563 OFFCURVE",
"22 351 CURVE SMOOTH",
"22 139 OFFCURVE",
"180 -10 OFFCURVE",
"389 -10 CURVE SMOOTH",
"389 -10 OFFCURVE",
"389 -10 OFFCURVE",
"389 -10 CURVE"
);
}
);
width = 778;
}
);
leftMetricsKey = circbl;
rightMetricsKey = circbl;
},
{
color = 0;
export = 0;
glyphname = _slig;
lastChange = "2019-02-16 13:41:17 +0000";
layers = (
{
layerId = "5EE76762-6375-4A5E-A826-D96F22DA5141";
paths = (
{
closed = 1;
nodes = (
"403 808 OFFCURVE",
"371 810 OFFCURVE",
"346 810 CURVE SMOOTH",
"146 810 OFFCURVE",
"100 687 OFFCURVE",
"119 506 CURVE",
"101 516 OFFCURVE",
"65 530 OFFCURVE",
"0 530 CURVE",
"99 471 LINE",
"179 351 LINE",
"164 514 LINE SMOOTH",
"149 673 OFFCURVE",
"203 723 OFFCURVE",
"271 723 CURVE SMOOTH",
"290 723 OFFCURVE",
"310 719 OFFCURVE",
"326 713 CURVE",
"418 806 LINE"
);
}
);
width = 418;
},
{
layerId = "E37CEFC3-0F3F-4B77-973B-7BF6C2788C53";
paths = (
{
closed = 1;
nodes = (
"688 808 OFFCURVE",
"656 810 OFFCURVE",
"631 810 CURVE SMOOTH",
"431 810 OFFCURVE",
"341 689 OFFCURVE",
"360 508 CURVE",
"342 518 OFFCURVE",
"298 540 OFFCURVE",
"237 540 CURVE",
"352 471 LINE",
"433 337 LINE",
"421 474 LINE SMOOTH",
"403 673 OFFCURVE",
"488 703 OFFCURVE",
"556 703 CURVE SMOOTH",
"575 703 OFFCURVE",
"595 699 OFFCURVE",
"611 693 CURVE",
"703 806 LINE"
);
}
);
width = 600;
}
);
},
{
color = 0;
export = 0;
glyphname = _clig;
lastChange = "2019-02-16 13:41:17 +0000";
layers = (
{
layerId = "5EE76762-6375-4A5E-A826-D96F22DA5141";
paths = (
{
closed = 1;
nodes = (
"403 808 OFFCURVE",
"371 810 OFFCURVE",
"346 810 CURVE SMOOTH",
"146 810 OFFCURVE",
"100 687 OFFCURVE",
"119 506 CURVE",
"101 516 OFFCURVE",
"65 530 OFFCURVE",
"0 530 CURVE",
"172 423 LINE",
"164 514 LINE SMOOTH",
"150 673 OFFCURVE",
"203 723 OFFCURVE",
"271 723 CURVE SMOOTH",
"290 723 OFFCURVE",
"310 719 OFFCURVE",
"326 713 CURVE",
"418 806 LINE"
);
}
);
width = 418;
},
{
layerId = "E37CEFC3-0F3F-4B77-973B-7BF6C2788C53";
paths = (
{
closed = 1;
nodes = (
"511 808 OFFCURVE",
"482 810 OFFCURVE",
"454 810 CURVE SMOOTH",
"234 810 OFFCURVE",
"180 693 OFFCURVE",
"199 512 CURVE",
"181 522 OFFCURVE",
"135 540 OFFCURVE",
"60 540 CURVE",
"251 426 LINE",
"244 514 LINE SMOOTH",
"231 673 OFFCURVE",
"299 700 OFFCURVE",
"343 700 CURVE SMOOTH",
"355 700 OFFCURVE",
"365 698 OFFCURVE",
"370 696 CURVE",
"526 806 LINE"
);
}
);
width = 600;
}
);
},
{
color = 5;
glyphname = circbl;
lastChange = "2019-03-03 18:36:37 +0000";
layers = (
{
layerId = "5EE76762-6375-4A5E-A826-D96F22DA5141";
paths = (
{
closed = 1;
nodes = (
"184 -20 OFFCURVE",
"32 133 OFFCURVE",
"32 351 CURVE SMOOTH",
"32 569 OFFCURVE",
"184 720 OFFCURVE",
"409 720 CURVE SMOOTH",
"633 720 OFFCURVE",
"786 569 OFFCURVE",
"786 351 CURVE SMOOTH",
"786 133 OFFCURVE",
"633 -20 OFFCURVE",
"409 -20 CURVE SMOOTH"
);
}
);
width = 818;
},
{
layerId = "E37CEFC3-0F3F-4B77-973B-7BF6C2788C53";
paths = (
{
closed = 1;
nodes = (
"184 -20 OFFCURVE",
"32 133 OFFCURVE",
"32 351 CURVE SMOOTH",
"32 569 OFFCURVE",
"184 720 OFFCURVE",
"409 720 CURVE SMOOTH",
"634 720 OFFCURVE",
"786 569 OFFCURVE",
"786 351 CURVE SMOOTH",
"786 133 OFFCURVE",
"634 -20 OFFCURVE",
"409 -20 CURVE SMOOTH"
);
}
);
width = 818;
}
);
rightMetricsKey = "=|circbl";
},
{
color = 0;
export = 0;
glyphname = _F.lig;
lastChange = "2019-02-17 15:05:02 +0000";
layers = (
{
layerId = "5EE76762-6375-4A5E-A826-D96F22DA5141";
paths = (
{
closed = 1;
nodes = (
"184 362 LINE",
"217 221 LINE",
"249 223 LINE",
"249 483 LINE",
"217 485 LINE",
"187 410 LINE",
"0 410 LINE",
"0 362 LINE"
);
},
{
closed = 1;
nodes = (
"235 692 LINE",
"330 523 LINE",
"362 531 LINE",
"321 792 LINE",
"289 794 LINE",
"277 740 LINE",
"0 740 LINE",
"0 692 LINE"
);
}
);
width = 440;
},
{
layerId = "E37CEFC3-0F3F-4B77-973B-7BF6C2788C53";
paths = (
{
closed = 1;
nodes = (
"453 352 LINE",
"490 213 LINE",
"526 215 LINE",
"526 483 LINE",
"490 485 LINE",
"456 410 LINE",
"286 410 LINE",
"286 352 LINE"
);
},
{
closed = 1;
nodes = (
"494 682 LINE",
"607 503 LINE",
"645 511 LINE",
"599 802 LINE",
"561 804 LINE",
"546 740 LINE",
"286 740 LINE",
"286 682 LINE"
);
}
);
width = 699;
}
);
},
{
color = 0;
export = 0;
glyphname = _L.lig;
lastChange = "2019-02-17 17:35:29 +0000";
layers = (
{
layerId = "5EE76762-6375-4A5E-A826-D96F22DA5141";
paths = (
{
closed = 1;
nodes = (
"307 0 LINE",
"317 -54 LINE",
"349 -52 LINE",
"416 249 LINE",
"384 257 LINE",
"263 48 LINE",
"-60 48 LINE",
"-60 0 LINE"
);
}
);
width = 440;
},
{
layerId = "E37CEFC3-0F3F-4B77-973B-7BF6C2788C53";
paths = (
{
closed = 1;
nodes = (
"286 0 LINE",
"298 -64 LINE",
"336 -62 LINE",
"399 269 LINE",
"361 277 LINE",
"233 58 LINE",
"-40 58 LINE",
"-40 0 LINE"
);
}
);
width = 413;
}
);
},
{
color = 0;
export = 0;
glyphname = _B.lig;
lastChange = "2019-03-02 17:55:49 +0000";
layers = (
{
layerId = "5EE76762-6375-4A5E-A826-D96F22DA5141";
paths = (
{
closed = 1;
nodes = (
"324 0 LINE SMOOTH",
"507 0 OFFCURVE",
"619 59 OFFCURVE",
"619 195 CURVE SMOOTH",
"619 308 OFFCURVE",
"540 370 OFFCURVE",
"428 388 CURVE",
"428 390 LINE",
"517 419 OFFCURVE",
"579 475 OFFCURVE",
"579 567 CURVE SMOOTH",
"579 688 OFFCURVE",
"470 740 OFFCURVE",
"296 740 CURVE SMOOTH",
"228 740 LINE",
"228 698 LINE",
"292 698 LINE SMOOTH",
"390 698 OFFCURVE",
"465 655 OFFCURVE",
"465 553 CURVE SMOOTH",
"465 465 OFFCURVE",
"407 399 OFFCURVE",
"266 401 CURVE",
"266 361 LINE",
"434 365 OFFCURVE",
"503 308 OFFCURVE",
"503 196 CURVE SMOOTH",
"503 88 OFFCURVE",
"437 39 OFFCURVE",
"298 39 CURVE SMOOTH",
"228 39 LINE",
"228 0 LINE"
);
}
);
width = 655;
},
{
layerId = "E37CEFC3-0F3F-4B77-973B-7BF6C2788C53";
paths = (
{
closed = 1;
nodes = (
"376 0 LINE SMOOTH",
"545 0 OFFCURVE",
"665 53 OFFCURVE",
"665 197 CURVE SMOOTH",
"665 315 OFFCURVE",
"588 370 OFFCURVE",
"486 387 CURVE",
"486 389 LINE",
"569 416 OFFCURVE",
"631 470 OFFCURVE",
"631 567 CURVE SMOOTH",
"631 695 OFFCURVE",
"522 740 OFFCURVE",
"368 740 CURVE SMOOTH",
"286 740 LINE",
"286 688 LINE",
"324 688 LINE SMOOTH",
"392 688 OFFCURVE",
"459 653 OFFCURVE",
"459 545 CURVE SMOOTH",
"459 453 OFFCURVE",
"409 405 OFFCURVE",
"328 407 CURVE",
"328 355 LINE",
"432 359 OFFCURVE",
"485 308 OFFCURVE",
"485 196 CURVE SMOOTH",
"485 88 OFFCURVE",
"435 49 OFFCURVE",
"330 49 CURVE SMOOTH",
"286 49 LINE",
"286 0 LINE"
);
}
);
width = 701;
}
);
rightMetricsKey = "=B";
},
{
color = 0;
export = 0;
glyphname = _R.lig;
lastChange = "2019-03-03 09:15:13 +0000";
layers = (
{
layerId = "5EE76762-6375-4A5E-A826-D96F22DA5141";
paths = (
{
closed = 1;
nodes = (
"303 698 LINE SMOOTH",
"412 698 OFFCURVE",
"487 656 OFFCURVE",
"487 553 CURVE SMOOTH",
"487 454 OFFCURVE",
"419 408 OFFCURVE",
"266 402 CURVE",
"266 364 LINE",
"322 365 LINE",
"518 44 LINE",
"434 42 LINE",
"434 0 LINE",
"734 0 LINE",
"734 42 LINE",
"658 44 LINE",
"434 381 LINE",
"534 406 OFFCURVE",
"601 461 OFFCURVE",
"601 561 CURVE SMOOTH",
"601 688 OFFCURVE",
"494 740 OFFCURVE",
"318 740 CURVE SMOOTH",
"228 740 LINE",
"228 698 LINE"
);
}
);
width = 734;
},
{
layerId = "E37CEFC3-0F3F-4B77-973B-7BF6C2788C53";
paths = (
{
closed = 1;
nodes = (
"341 686 LINE SMOOTH",
"431 686 OFFCURVE",
"479 641 OFFCURVE",
"479 547 CURVE SMOOTH",
"479 456 OFFCURVE",
"435 411 OFFCURVE",
"330 406 CURVE",
"330 352 LINE",
"375 353 LINE",
"526 54 LINE",
"442 52 LINE",
"442 0 LINE",
"796 0 LINE",
"796 52 LINE",
"730 54 LINE",
"550 390 LINE",
"622 423 OFFCURVE",
"667 478 OFFCURVE",
"667 561 CURVE SMOOTH",
"667 681 OFFCURVE",
"572 740 OFFCURVE",
"384 740 CURVE SMOOTH",
"286 740 LINE",
"286 686 LINE"
);
}
);
width = 796;
}
);
},
{
color = 0;
export = 0;
glyphname = _devbarcase;
lastChange = "2019-02-16 13:41:17 +0000";
layers = (
{
layerId = "5EE76762-6375-4A5E-A826-D96F22DA5141";
paths = (
{
closed = 1;
nodes = (
"12 460 LINE",
"12 408 LINE",
"522 408 LINE",
"522 460 LINE"
);
}
);
width = 534;
},
{
layerId = "E37CEFC3-0F3F-4B77-973B-7BF6C2788C53";
paths = (
{
closed = 1;
nodes = (
"12 474 LINE",
"12 408 LINE",
"522 408 LINE",
"522 474 LINE"
);
}
);
width = 534;
}
);
},
{
color = 0;
export = 0;
glyphname = _belly;
lastChange = "2019-03-03 09:52:20 +0000";
layers = (
{
layerId = "5EE76762-6375-4A5E-A826-D96F22DA5141";
paths = (
{
closed = 1;
nodes = (
"467 -10 OFFCURVE",
"580 106 OFFCURVE",
"580 291 CURVE SMOOTH",
"580 468 OFFCURVE",
"476 530 OFFCURVE",
"379 530 CURVE SMOOTH",
"298 530 OFFCURVE",
"225 488 OFFCURVE",
"190 434 CURVE",
"188 434 LINE",
"188 338 LINE",
"188 410 OFFCURVE",
"258 458 OFFCURVE",
"328 458 CURVE SMOOTH",
"389 458 OFFCURVE",
"480 422 OFFCURVE",
"480 253 CURVE SMOOTH",
"480 116 OFFCURVE",
"418 34 OFFCURVE",
"315 34 CURVE SMOOTH",
"238 34 OFFCURVE",
"188 83 OFFCURVE",
"188 187 CURVE",
"138 67 LINE",
"174 25 OFFCURVE",
"234 -10 OFFCURVE",
"317 -10 CURVE SMOOTH"
);
}
);
width = 624;
},
{
layerId = "E37CEFC3-0F3F-4B77-973B-7BF6C2788C53";
paths = (
{
closed = 1;
nodes = (
"500 -10 OFFCURVE",
"599 108 OFFCURVE",
"599 297 CURVE SMOOTH",
"599 477 OFFCURVE",
"510 540 OFFCURVE",
"412 540 CURVE SMOOTH",
"332 540 OFFCURVE",
"268 498 OFFCURVE",
"233 440 CURVE",
"231 440 LINE",
"231 315 LINE",
"231 397 OFFCURVE",
"280 436 OFFCURVE",
"327 436 CURVE SMOOTH",
"366 436 OFFCURVE",
"423 410 OFFCURVE",
"423 245 CURVE SMOOTH",
"423 118 OFFCURVE",
"389 49 OFFCURVE",
"325 49 CURVE SMOOTH",
"276 49 OFFCURVE",
"231 89 OFFCURVE",
"231 195 CURVE",
"143 44 LINE",
"197 12 OFFCURVE",
"266 -10 OFFCURVE",
"337 -10 CURVE SMOOTH"
);
}
);
width = 635;
}
);
},
{
color = 0;
export = 0;
glyphname = _P.lig;
lastChange = "2019-02-16 13:41:17 +0000";
layers = (
{
layerId = "5EE76762-6375-4A5E-A826-D96F22DA5141";
paths = (
{
closed = 1;
nodes = (
"338 0 LINE",
"338 42 LINE",
"228 44 LINE",
"228 740 LINE",
"32 740 LINE",
"32 698 LINE",
"122 696 LINE",
"122 44 LINE",
"32 42 LINE",
"32 0 LINE"
);
}
);
width = 627;
},
{
layerId = "E37CEFC3-0F3F-4B77-973B-7BF6C2788C53";
paths = (
{
closed = 1;
nodes = (
"396 0 LINE",
"396 52 LINE",
"286 56 LINE",
"286 740 LINE",
"24 740 LINE",
"24 688 LINE",
"114 684 LINE",
"114 56 LINE",
"24 52 LINE",
"24 0 LINE"
);
}
);
width = 675;
}
);
},
{
color = 6;
glyphname = triright;
lastChange = "2019-02-17 15:02:29 +0000";
layers = (
{
layerId = "5EE76762-6375-4A5E-A826-D96F22DA5141";
paths = (
{
closed = 1;
nodes = (
"80 570 LINE",
"80 30 LINE",
"560 300 LINE"
);
}
);
width = 560;
},
{
layerId = "E37CEFC3-0F3F-4B77-973B-7BF6C2788C53";
paths = (
{
closed = 1;
nodes = (
"80 570 LINE",
"80 30 LINE",
"560 300 LINE"
);
}
);
width = 600;
}
);
},
{
color = 7;
glyphname = trirightbig;
lastChange = "2019-02-17 15:02:29 +0000";
layers = (
{
layerId = "5EE76762-6375-4A5E-A826-D96F22DA5141";
paths = (
{
closed = 1;
nodes = (
"80 730 LINE",
"80 10 LINE",
"722 370 LINE"
);
}
);
width = 720;
},
{
layerId = "E37CEFC3-0F3F-4B77-973B-7BF6C2788C53";
paths = (
{
closed = 1;
nodes = (
"80 730 LINE",
"80 10 LINE",
"722 370 LINE"
);
}
);
width = 700;
}
);
},
{
color = 0;
export = 0;
glyphname = _M.lig2;
lastChange = "2019-03-02 17:53:35 +0000";
layers = (
{
layerId = "5EE76762-6375-4A5E-A826-D96F22DA5141";
paths = (
{
closed = 1;
nodes = (
"270 0 LINE",
"270 42 LINE",
"170 46 LINE",
"168 502 LINE",
"170 502 LINE",
"421 92 LINE",
"459 92 LINE",
"691 642 LINE",
"693 642 LINE",
"693 44 LINE",
"593 42 LINE",
"593 0 LINE",
"799 0 LINE",
"799 740 LINE",
"676 740 LINE",
"465 233 LINE",
"152 740 LINE",
"25 740 LINE",
"24 736 LINE",
"112 593 LINE",
"112 44 LINE",
"22 42 LINE",
"22 0 LINE"
);
}
);
width = 823;
},
{
layerId = "E37CEFC3-0F3F-4B77-973B-7BF6C2788C53";
paths = (
{
closed = 1;
nodes = (
"308 0 LINE",
"308 52 LINE",
"188 58 LINE",
"189 462 LINE",
"191 462 LINE",
"430 92 LINE",
"471 92 LINE",
"684 608 LINE",
"686 608 LINE",
"686 56 LINE",
"586 52 LINE",
"586 0 LINE",
"858 0 LINE",
"858 740 LINE",
"673 740 LINE",
"497 321 LINE",
"226 740 LINE",
"16 740 LINE",
"14 732 LINE",
"122 566 LINE",
"122 56 LINE",
"32 52 LINE",
"32 0 LINE"
);
}
);
width = 972;
}
);
leftMetricsKey = "=M";
},
{
color = 0;
export = 0;
glyphname = _stlig;
lastChange = "2019-02-16 13:41:17 +0000";
layers = (
{
anchors = (
{
name = _top;
position = "{224, 520}";
}
);
layerId = "5EE76762-6375-4A5E-A826-D96F22DA5141";
paths = (
{
closed = 1;
nodes = (
"711 739 OFFCURVE",
"682 810 OFFCURVE",
"576 810 CURVE SMOOTH",
"447 810 OFFCURVE",
"391 707 OFFCURVE",
"410 506 CURVE",
"392 516 OFFCURVE",
"356 530 OFFCURVE",
"291 530 CURVE",
"418 453 LINE",
"463 429 LINE",
"455 514 LINE SMOOTH",
"440 673 OFFCURVE",
"484 735 OFFCURVE",
"570 735 CURVE SMOOTH",
"628 735 OFFCURVE",
"665 707 OFFCURVE",
"665 639 CURVE SMOOTH",
"665 585 OFFCURVE",
"643 516 OFFCURVE",
"523 510 CURVE",
"711 520 LINE",
"711 680 LINE SMOOTH"
);
}
);
width = 806;
},
{
anchors = (
{
name = _top;
position = "{244, 530}";
}
);
layerId = "E37CEFC3-0F3F-4B77-973B-7BF6C2788C53";
paths = (
{
closed = 1;
nodes = (
"713 789 OFFCURVE",
"664 850 OFFCURVE",
"559 850 CURVE SMOOTH",
"409 850 OFFCURVE",
"332 727 OFFCURVE",
"361 516 CURVE",
"343 526 OFFCURVE",
"304 540 OFFCURVE",
"235 540 CURVE",
"380 433 LINE",
"425 426 LINE",
"415 534 LINE SMOOTH",
"402 673 OFFCURVE",
"456 745 OFFCURVE",
"545 745 CURVE SMOOTH",
"600 745 OFFCURVE",
"638 717 OFFCURVE",
"638 659 CURVE SMOOTH",
"638 605 OFFCURVE",
"604 524 OFFCURVE",
"464 518 CURVE",
"713 520 LINE",
"713 724 LINE SMOOTH"
);
}
);
width = 878;
}
);
},
{
color = 0;
export = 0;
glyphname = _K.lig;
lastChange = "2019-03-03 09:58:39 +0000";
layers = (
{
layerId = "5EE76762-6375-4A5E-A826-D96F22DA5141";
paths = (
{
closed = 1;
nodes = (
"506 44 LINE",
"422 42 LINE",
"422 0 LINE",
"716 0 LINE",
"716 42 LINE",
"650 44 LINE",
"331 460 LINE",
"327 395 LINE",
"613 696 LINE",
"691 698 LINE",
"691 740 LINE",
"459 740 LINE",
"459 698 LINE",
"544 694 LINE",
"249 386 LINE",
"249 384 LINE"
);
}
);
width = 716;
},
{
layerId = "E37CEFC3-0F3F-4B77-973B-7BF6C2788C53";
paths = (
{
closed = 1;
nodes = (
"524 54 LINE",
"440 52 LINE",
"440 0 LINE",
"812 0 LINE",
"812 52 LINE",
"748 54 LINE",
"454 511 LINE",
"440 440 LINE",
"668 686 LINE",
"742 688 LINE",
"742 740 LINE",
"497 740 LINE",
"497 688 LINE",
"575 676 LINE",
"311 393 LINE",
"311 391 LINE"
);
}
);
width = 800;
}
);
},
{
color = 3;
glyphname = VTF;
lastChange = "2019-03-01 20:39:39 +0000";
layers = (
{
components = (
{
alignment = -1;
name = V;
},
{
alignment = -1;
name = F;
transform = "{1, 0, 0, 1, 1099, 0}";
}
);
layerId = "5EE76762-6375-4A5E-A826-D96F22DA5141";
paths = (
{
closed = 1;
nodes = (
"1025 0 LINE",
"1025 42 LINE",
"915 44 LINE",
"915 740 LINE",
"809 740 LINE",
"809 44 LINE",
"699 42 LINE",
"699 0 LINE"
);
},
{
closed = 1;
nodes = (
"1221 740 LINE",
"605 740 LINE",
"601 692 LINE",
"1221 692 LINE"
);
}
);
width = 1691;
},
{
components = (
{
name = V;
},
{
alignment = -1;
name = F;
transform = "{1, 0, 0, 1, 1156, 0}";
}
);
layerId = "E37CEFC3-0F3F-4B77-973B-7BF6C2788C53";
paths = (
{
closed = 1;
nodes = (
"1085 0 LINE",
"1085 52 LINE",
"975 56 LINE",
"975 740 LINE",
"803 740 LINE",
"803 56 LINE",
"693 52 LINE",
"693 0 LINE"
);
},
{
closed = 1;
nodes = (
"1270 740 LINE",
"623 740 LINE",
"625 682 LINE",
"1270 682 LINE"
);
}
);
width = 1795;
}
);
leftMetricsKey = "=V";
rightMetricsKey = "=F";
},
{
color = 0;
export = 0;
glyphname = _P.lig2;
lastChange = "2019-02-19 19:36:33 +0000";
layers = (
{
layerId = "5EE76762-6375-4A5E-A826-D96F22DA5141";
paths = (
{
closed = 1;
nodes = (
"184 698 OFFCURVE",
"267 646 OFFCURVE",
"267 533 CURVE SMOOTH",
"267 435 OFFCURVE",
"203 362 OFFCURVE",
"38 364 CURVE",
"38 326 LINE",
"242 306 OFFCURVE",
"383 392 OFFCURVE",
"383 544 CURVE SMOOTH",
"383 682 OFFCURVE",
"266 740 OFFCURVE",
"80 740 CURVE SMOOTH",
"0 740 LINE",
"0 698 LINE",
"75 698 LINE SMOOTH"
);
}
);
width = 399;
},
{
layerId = "E37CEFC3-0F3F-4B77-973B-7BF6C2788C53";
paths = (
{
closed = 1;
nodes = (
"416 686 OFFCURVE",
"479 644 OFFCURVE",
"479 529 CURVE SMOOTH",
"479 433 OFFCURVE",
"435 360 OFFCURVE",
"328 368 CURVE",
"328 318 LINE",
"524 298 OFFCURVE",
"659 382 OFFCURVE",
"659 538 CURVE SMOOTH",
"659 682 OFFCURVE",
"538 740 OFFCURVE",
"372 740 CURVE SMOOTH",
"286 740 LINE",
"286 686 LINE",
"317 686 LINE SMOOTH"
);
}
);
width = 675;
}
);
},
{
color = 0;
export = 0;
glyphname = _Z.lig;
lastChange = "2019-03-02 18:03:02 +0000";
layers = (
{
components = (
{
name = _L.lig;
transform = "{1, 0, 0, 1, 218, 0}";
}
);
layerId = "5EE76762-6375-4A5E-A826-D96F22DA5141";
paths = (
{
closed = 1;
nodes = (
"572 740 LINE",
"448 740 LINE",
"449 696 LINE",
"41 38 LINE",
"45 0 LINE",
"169 0 LINE",
"168 44 LINE",
"576 702 LINE"
);
}
);
width = 664;
},
{
components = (
{
name = _L.lig;
transform = "{1, 0, 0, 1, 233, 0}";
}
);
layerId = "E37CEFC3-0F3F-4B77-973B-7BF6C2788C53";
paths = (
{
closed = 1;
nodes = (
"595 740 LINE",
"394 740 LINE",
"405 707 LINE",
"17 48 LINE",
"21 0 LINE",
"222 0 LINE",
"211 32 LINE",
"599 692 LINE"
);
}
);
width = 634;
}
);
},
{
color = 0;
export = 0;
glyphname = _j.lig;
lastChange = "2019-02-19 19:36:33 +0000";
layers = (
{
layerId = "5EE76762-6375-4A5E-A826-D96F22DA5141";
paths = (
{
closed = 1;
nodes = (
"2 -210 LINE",
"143 -210 OFFCURVE",
"200 -127 OFFCURVE",
"200 33 CURVE SMOOTH",
"200 294 LINE",
"104 294 LINE",
"104 -30 LINE SMOOTH",
"104 -106 OFFCURVE",
"77 -162 OFFCURVE",
"2 -172 CURVE"
);
}
);
width = 280;
},
{
layerId = "E37CEFC3-0F3F-4B77-973B-7BF6C2788C53";
paths = (
{
closed = 1;
nodes = (
"10 -210 LINE",
"186 -210 OFFCURVE",
"257 -104 OFFCURVE",
"257 90 CURVE SMOOTH",
"257 352 LINE",
"97 352 LINE",
"97 -30 LINE SMOOTH",
"97 -103 OFFCURVE",
"77 -160 OFFCURVE",
"10 -170 CURVE"
);
}
);
width = 333;
},
{
associatedMasterId = "E37CEFC3-0F3F-4B77-973B-7BF6C2788C53";
layerId = "ED1D6D4C-273D-4414-BDE9-9F7D6AE23BB9";
name = "Feb 17 19, 19:24";
paths = (
{
closed = 1;
nodes = (
"-86 -170 OFFCURVE",
"-37 -210 OFFCURVE",
"48 -210 CURVE SMOOTH",
"186 -210 OFFCURVE",
"257 -104 OFFCURVE",
"257 130 CURVE SMOOTH",
"257 352 LINE",
"97 352 LINE",
"97 0 LINE",
"131 -73 OFFCURVE",
"131 -139 OFFCURVE",
"89 -139 CURVE SMOOTH",
"38 -139 OFFCURVE",
"59 -39 OFFCURVE",
"-17 -39 CURVE SMOOTH",
"-55 -39 OFFCURVE",
"-86 -64 OFFCURVE",
"-86 -111 CURVE SMOOTH"
);
}
);
width = 333;
},
{
associatedMasterId = "5EE76762-6375-4A5E-A826-D96F22DA5141";
layerId = "8557A7CD-C933-4E5D-98BE-CF84F7CF8C56";
name = "Feb 17 19, 19:27";
paths = (
{
closed = 1;
nodes = (
"104 294 LINE",
"104 40 LINE SMOOTH",
"104 -76 OFFCURVE",
"97 -142 OFFCURVE",
"49 -142 CURVE SMOOTH",
"11 -142 OFFCURVE",
"2 -99 OFFCURVE",
"-39 -99 CURVE SMOOTH",
"-63 -99 OFFCURVE",
"-88 -114 OFFCURVE",
"-88 -148 CURVE SMOOTH",
"-88 -195 OFFCURVE",
"-39 -210 OFFCURVE",
"0 -210 CURVE SMOOTH",
"103 -210 OFFCURVE",
"200 -107 OFFCURVE",
"200 133 CURVE SMOOTH",
"200 294 LINE"
);
}
);
width = 280;
}
);
},
{
color = 0;
glyphname = dieresispinyin;
lastChange = "2019-03-03 10:06:07 +0000";
layers = (
{
anchors = (
{
name = _dieresis;
position = "{417, 520}";
}
);
layerId = "5EE76762-6375-4A5E-A826-D96F22DA5141";
paths = (
{
closed = 1;
nodes = (
"357 567 OFFCURVE",
"385 547 OFFCURVE",
"417 547 CURVE SMOOTH",
"449 547 OFFCURVE",
"477 567 OFFCURVE",
"477 605 CURVE SMOOTH",
"477 644 OFFCURVE",
"449 664 OFFCURVE",
"417 664 CURVE SMOOTH",
"385 664 OFFCURVE",
"357 644 OFFCURVE",
"357 605 CURVE SMOOTH"
);
},
{
closed = 1;
nodes = (
"357 397 OFFCURVE",
"385 377 OFFCURVE",
"417 377 CURVE SMOOTH",
"449 377 OFFCURVE",
"477 397 OFFCURVE",
"477 435 CURVE SMOOTH",
"477 474 OFFCURVE",
"449 494 OFFCURVE",
"417 494 CURVE SMOOTH",
"385 494 OFFCURVE",
"357 474 OFFCURVE",
"357 435 CURVE SMOOTH"
);
}
);
width = 785;
},
{
anchors = (
{
name = _dieresis;
position = "{438, 460}";
}
);
layerId = "E37CEFC3-0F3F-4B77-973B-7BF6C2788C53";
paths = (
{
closed = 1;
nodes = (
"359 510 OFFCURVE",
"395 483 OFFCURVE",
"438 483 CURVE SMOOTH",
"481 483 OFFCURVE",
"517 510 OFFCURVE",
"517 559 CURVE SMOOTH",
"517 610 OFFCURVE",
"481 637 OFFCURVE",
"438 637 CURVE SMOOTH",
"395 637 OFFCURVE",
"359 610 OFFCURVE",
"359 559 CURVE SMOOTH"
);
},
{
closed = 1;
nodes = (
"359 310 OFFCURVE",
"395 283 OFFCURVE",
"438 283 CURVE SMOOTH",
"481 283 OFFCURVE",
"517 310 OFFCURVE",
"517 359 CURVE SMOOTH",
"517 410 OFFCURVE",
"481 437 OFFCURVE",
"438 437 CURVE SMOOTH",
"395 437 OFFCURVE",
"359 410 OFFCURVE",
"359 359 CURVE SMOOTH"
);
}
);
width = 769;
}
);
},
{
color = 7;
glyphname = A;
lastChange = "2019-03-01 21:36:30 +0000";
layers = (
{
anchors = (
{
name = bottom;
position = "{348, 0}";
},
{
name = ogonek;
position = "{626, 10}";
},
{
name = top;
position = "{314, 740}";
}
);
layerId = "5EE76762-6375-4A5E-A826-D96F22DA5141";
paths = (
{
closed = 1;
nodes = (
"243 738 LINE",
"522 44 LINE",
"431 42 LINE",
"431 0 LINE",
"696 0 LINE",
"696 42 LINE",
"636 44 LINE",
"356 740 LINE",
"244 740 LINE"
);
},
{
closed = 1;
nodes = (
"311 690 LINE",
"60 44 LINE",
"0 42 LINE",
"0 0 LINE",
"207 0 LINE",
"207 42 LINE",
"117 46 LINE",
"355 657 LINE"
);
},
{
closed = 1;
nodes = (
"162 278 LINE",
"162 230 LINE",
"496 230 LINE",
"496 278 LINE"
);
}
);
width = 696;
},
{
anchors = (
{
name = bottom;
position = "{353, 0}";
},
{
name = ogonek;
position = "{641, 10}";
},
{
name = top;
position = "{302, 740}";
}
);
layerId = "E37CEFC3-0F3F-4B77-973B-7BF6C2788C53";
paths = (
{
closed = 1;
nodes = (
"203 738 LINE",
"472 54 LINE",
"381 52 LINE",
"381 0 LINE",
"706 0 LINE",
"706 52 LINE",
"656 54 LINE",
"390 740 LINE",
"204 740 LINE"
);
},
{
closed = 1;
nodes = (
"291 690 LINE",
"50 54 LINE",
"0 52 LINE",
"0 0 LINE",
"203 0 LINE",
"203 52 LINE",
"115 64 LINE",
"339 657 LINE"
);
},
{
closed = 1;
nodes = (
"139 248 LINE",
"139 194 LINE",
"473 194 LINE",
"473 248 LINE"
);
}
);
width = 706;
},
{
anchors = (
{
name = bottom;
position = "{348, 0}";
},
{
name = ogonek;
position = "{626, 10}";
},
{
name = top;
position = "{342, 740}";
}
);
associatedMasterId = "5EE76762-6375-4A5E-A826-D96F22DA5141";
layerId = "CA2FB5BF-2AE7-4EAE-86EF-F9D4F7DC6199";
name = "Jan 20 19, 12:28";
paths = (
{
closed = 1;
nodes = (
"297 639 LINE",
"520 44 LINE",
"429 42 LINE",
"429 0 LINE",
"696 0 LINE",
"696 42 LINE",
"636 44 LINE",
"363 750 LINE",
"319 750 LINE"
);
},
{
closed = 1;
nodes = (
"319 750 LINE",
"60 44 LINE",
"0 42 LINE",
"0 0 LINE",
"207 0 LINE",
"207 42 LINE",
"117 46 LINE",
"354 687 LINE"
);
},
{
closed = 1;
nodes = (
"162 278 LINE",
"162 230 LINE",
"496 230 LINE",
"496 278 LINE"
);
}
);
width = 696;
},
{
anchors = (
{
name = bottom;
position = "{353, 0}";
},
{
name = ogonek;
position = "{641, 10}";
},
{
name = top;
position = "{353, 740}";
}
);
associatedMasterId = "E37CEFC3-0F3F-4B77-973B-7BF6C2788C53";
layerId = "486A7575-EBA1-428F-8851-676A03D4BE40";
name = "Jan 20 19, 12:33";
paths = (
{
closed = 1;
nodes = (
"265 590 LINE",
"472 54 LINE",
"381 52 LINE",
"381 0 LINE",
"706 0 LINE",
"706 52 LINE",
"656 54 LINE",
"374 750 LINE",
"314 750 LINE"
);
},
{
closed = 1;
nodes = (
"314 750 LINE",
"50 54 LINE",
"0 52 LINE",
"0 0 LINE",
"203 0 LINE",
"203 52 LINE",
"115 56 LINE",
"339 657 LINE"
);
},
{
closed = 1;
nodes = (
"139 248 LINE",
"139 194 LINE",
"473 194 LINE",
"473 248 LINE"
);
}
);
width = 706;
}
);
leftKerningGroup = A;
rightKerningGroup = A.right;
unicode = 0041;
},
{
color = 11;
glyphname = A_T;
lastChange = "2019-03-03 09:31:26 +0000";
layers = (
{
anchors = (
{
name = bottom;
position = "{539, 0}";
},
{
name = center;
position = "{545, 370}";
},
{
name = top;
position = "{545, 740}";
}
);
components = (
{
name = _A.lig;
}
);
layerId = "5EE76762-6375-4A5E-A826-D96F22DA5141";
paths = (
{
closed = 1;
nodes = (
"708 0 LINE",
"708 42 LINE",
"598 44 LINE",
"598 740 LINE",
"492 740 LINE",
"492 44 LINE",
"382 42 LINE",
"382 0 LINE"
);
},
{
closed = 1;
nodes = (
"149 513 LINE",
"244 692 LINE",
"756 692 LINE",
"851 513 LINE",
"883 521 LINE",
"846 792 LINE",
"814 794 LINE",
"802 740 LINE",
"198 740 LINE",
"186 794 LINE",
"154 792 LINE",
"117 521 LINE"
);
}
);
width = 889;
},
{
anchors = (
{
name = bottom;
position = "{593, 0}";
},
{
name = center;
position = "{580, 366}";
},
{
name = top;
position = "{577, 740}";
}
);
components = (
{
name = _A.lig;
}
);
layerId = "E37CEFC3-0F3F-4B77-973B-7BF6C2788C53";
paths = (
{
closed = 1;
nodes = (
"771 0 LINE",
"771 52 LINE",
"661 56 LINE",
"661 740 LINE",
"489 740 LINE",
"489 56 LINE",
"379 52 LINE",
"379 0 LINE"
);
},
{
closed = 1;
nodes = (
"152 493 LINE",
"261 682 LINE",
"789 682 LINE",
"898 493 LINE",
"934 501 LINE",
"892 802 LINE",
"854 804 LINE",
"839 740 LINE",
"211 740 LINE",
"196 804 LINE",
"158 802 LINE",
"116 501 LINE"
);
}
);
width = 932;
}
);
leftKerningGroup = AT;
leftMetricsKey = A;
rightKerningGroup = T.right;
rightMetricsKey = T;
},
{
color = 7;
glyphname = B;
lastChange = "2019-03-01 20:58:15 +0000";
layers = (
{
anchors = (
{
name = bottom;
position = "{328, 0}";
},
{
name = top;
position = "{328, 740}";
}
);
components = (
{
name = _B.lig;
}
);
layerId = "5EE76762-6375-4A5E-A826-D96F22DA5141";
paths = (
{
closed = 1;
nodes = (
"228 0 LINE",
"228 740 LINE",
"32 740 LINE",
"32 698 LINE",
"122 696 LINE",
"122 44 LINE",
"32 42 LINE",
"32 0 LINE"
);
}
);
width = 655;
},
{
anchors = (
{
name = bottom;
position = "{351, 0}";
},
{
name = top;
position = "{351, 740}";
}
);
components = (
{
name = _B.lig;
}
);
layerId = "E37CEFC3-0F3F-4B77-973B-7BF6C2788C53";
paths = (
{
closed = 1;
nodes = (
"286 0 LINE",
"286 740 LINE",
"24 740 LINE",
"24 688 LINE",
"114 684 LINE",
"114 56 LINE",
"24 52 LINE",
"24 0 LINE"
);
}
);
width = 701;
}
);
leftKerningGroup = BDEFHIKLPR;
leftMetricsKey = "=H";
rightKerningGroup = B.right;
unicode = 0042;
},
{
color = 7;
glyphname = C;
lastChange = "2019-03-01 13:26:19 +0000";
layers = (
{
anchors = (
{
name = bottom;
position = "{352, 0}";
},
{
name = top;
position = "{372, 740}";
}
);
associatedMasterId = "5EE76762-6375-4A5E-A826-D96F22DA5141";
layerId = "A7E20906-7053-4C15-AC3F-8ADB664BC3B6";
name = "Oct 4 18, 22:25";
paths = (
{
closed = 1;
nodes = (
"32 119 OFFCURVE",
"198 -10 OFFCURVE",
"390 -10 CURVE",
"420 40 LINE",
"277 40 OFFCURVE",
"148 184 OFFCURVE",
"148 396 CURVE SMOOTH",
"148 581 OFFCURVE",
"247 706 OFFCURVE",
"387 706 CURVE SMOOTH",
"494 706 OFFCURVE",
"573 647 OFFCURVE",
"630 473 CURVE",
"662 481 LINE",
"620 782 LINE",
"588 784 LINE",
"557 658 LINE",
"607 669 LINE",
"555 726 OFFCURVE",
"469 750 OFFCURVE",
"388 750 CURVE SMOOTH",
"206 750 OFFCURVE",
"32 631 OFFCURVE",
"32 373 CURVE SMOOTH"
);
},
{
closed = 1;
nodes = (
"390 -10 LINE",
"473 -10 OFFCURVE",
"569 14 OFFCURVE",
"621 71 CURVE",
"571 82 LINE",
"602 -44 LINE",
"634 -42 LINE",
"666 249 LINE",
"634 251 LINE",
"593 83 OFFCURVE",
"498 40 OFFCURVE",
"420 40 CURVE"
);
}
);
width = 698;
},
{
anchors = (
{
name = bottom;
position = "{392, 0}";
},
{
name = top;
position = "{404, 740}";
}
);
layerId = "5EE76762-6375-4A5E-A826-D96F22DA5141";
paths = (
{
closed = 1;
nodes = (
"38 119 OFFCURVE",
"212 -10 OFFCURVE",
"398 -10 CURVE SMOOTH",
"539 -10 OFFCURVE",
"644 63 OFFCURVE",
"694 171 CURVE",
"664 185 LINE",
"662 185 LINE",
"619 111 OFFCURVE",
"532 60 OFFCURVE",
"437 60 CURVE SMOOTH",
"289 60 OFFCURVE",
"154 184 OFFCURVE",
"154 396 CURVE SMOOTH",
"154 581 OFFCURVE",
"259 706 OFFCURVE",
"405 706 CURVE SMOOTH",
"506 706 OFFCURVE",
"585 647 OFFCURVE",
"642 473 CURVE",
"674 481 LINE",
"632 782 LINE",
"600 784 LINE",
"569 658 LINE",
"616 669 LINE",
"564 726 OFFCURVE",
"481 750 OFFCURVE",
"400 750 CURVE SMOOTH",
"220 750 OFFCURVE",
"38 631 OFFCURVE",
"38 373 CURVE SMOOTH"
);
}
);
width = 716;
},
{
anchors = (
{
name = bottom;
position = "{411, 0}";
},
{
name = top;
position = "{371, 740}";
}
);
layerId = "E37CEFC3-0F3F-4B77-973B-7BF6C2788C53";
paths = (
{
closed = 1;
nodes = (
"30 116 OFFCURVE",
"198 -10 OFFCURVE",
"384 -10 CURVE SMOOTH",
"528 -10 OFFCURVE",
"633 65 OFFCURVE",
"680 197 CURVE",
"641 210 LINE",
"639 209 LINE",
"596 123 OFFCURVE",
"515 98 OFFCURVE",
"452 98 CURVE SMOOTH",
"328 98 OFFCURVE",
"220 200 OFFCURVE",
"220 403 CURVE SMOOTH",
"220 578 OFFCURVE",
"301 686 OFFCURVE",
"416 686 CURVE SMOOTH",
"499 686 OFFCURVE",
"561 630 OFFCURVE",
"608 473 CURVE",
"650 481 LINE",
"608 792 LINE",
"570 794 LINE",
"541 658 LINE",
"595 669 LINE",
"543 726 OFFCURVE",
"460 750 OFFCURVE",
"382 750 CURVE SMOOTH",
"206 750 OFFCURVE",
"30 628 OFFCURVE",
"30 370 CURVE SMOOTH"
);
}
);
width = 682;
},
{
anchors = (
{
name = bottom;
position = "{392, 0}";
},
{
name = top;
position = "{404, 740}";
}
);
associatedMasterId = "5EE76762-6375-4A5E-A826-D96F22DA5141";
layerId = "58FF4CEE-C58F-4738-B6DB-0282EBBA3F8D";
name = "Nov 25 18, 22:48";
paths = (
{
closed = 1;
nodes = (
"40 119 OFFCURVE",
"212 -10 OFFCURVE",
"404 -10 CURVE SMOOTH",
"524 -10 OFFCURVE",
"624 37 OFFCURVE",
"686 103 CURVE",
"673 129 LINE",
"671 129 LINE",
"620 93 OFFCURVE",
"544 56 OFFCURVE",
"455 56 CURVE SMOOTH",
"289 56 OFFCURVE",
"156 184 OFFCURVE",
"156 396 CURVE SMOOTH",
"156 581 OFFCURVE",
"259 706 OFFCURVE",
"405 706 CURVE SMOOTH",
"506 706 OFFCURVE",
"585 647 OFFCURVE",
"642 473 CURVE",
"674 481 LINE",
"632 782 LINE",
"600 784 LINE",
"569 658 LINE",
"619 669 LINE",
"567 726 OFFCURVE",
"481 750 OFFCURVE",
"400 750 CURVE SMOOTH",
"220 750 OFFCURVE",
"40 631 OFFCURVE",
"40 373 CURVE SMOOTH"
);
}
);
width = 706;
},
{
anchors = (
{
name = bottom;
position = "{341, 0}";
},
{
name = top;
position = "{341, 740}";
}
);
associatedMasterId = "E37CEFC3-0F3F-4B77-973B-7BF6C2788C53";
layerId = "37CEAFEA-CB51-4041-BC1E-0DEE55EB25E7";
name = "Dec 5 18, 18:30";
paths = (
{
closed = 1;
nodes = (
"28 116 OFFCURVE",
"198 -10 OFFCURVE",
"390 -10 CURVE SMOOTH",
"508 -10 OFFCURVE",
"610 37 OFFCURVE",
"665 111 CURVE",
"646 144 LINE",
"642 145 LINE",
"601 111 OFFCURVE",
"546 86 OFFCURVE",
"477 86 CURVE SMOOTH",
"330 86 OFFCURVE",
"226 200 OFFCURVE",
"226 403 CURVE SMOOTH",
"226 578 OFFCURVE",
"303 686 OFFCURVE",
"418 686 CURVE SMOOTH",
"501 686 OFFCURVE",
"561 630 OFFCURVE",
"610 473 CURVE",
"650 481 LINE",
"608 792 LINE",
"572 794 LINE",
"541 658 LINE",
"595 669 LINE",
"543 726 OFFCURVE",
"460 750 OFFCURVE",
"382 750 CURVE SMOOTH",
"206 750 OFFCURVE",
"28 628 OFFCURVE",
"28 370 CURVE SMOOTH"
);
}
);
width = 682;
}
);
leftKerningGroup = COGQ;
rightKerningGroup = C.right;
unicode = 0043;
},
{
color = 7;
glyphname = D;
lastChange = "2019-03-01 21:00:13 +0000";
layers = (
{
anchors = (
{
name = bottom;
position = "{400, 0}";
},
{
name = center;
position = "{224, 379}";
},
{
name = top;
position = "{350, 740}";
}
);
components = (
{
name = _D.lig;
}
);
layerId = "5EE76762-6375-4A5E-A826-D96F22DA5141";
paths = (
{
closed = 1;
nodes = (
"234 0 LINE",
"234 740 LINE",
"38 740 LINE",
"38 698 LINE",
"128 696 LINE",
"128 44 LINE",
"38 42 LINE",
"38 0 LINE"
);
}
);
width = 786;
},
{
associatedMasterId = "5EE76762-6375-4A5E-A826-D96F22DA5141";
layerId = "7773B976-1F7E-493B-B3DE-282EB381A1CD";
name = "Aug 8 18, 17:13";
paths = (
{
closed = 1;
nodes = (
"106 520 LINE",
"106 44 LINE",
"16 42 LINE",
"16 0 LINE",
"212 0 LINE",
"212 520 LINE"
);
},
{
closed = 1;
nodes = (
"212 502 LINE",
"212 740 LINE",
"16 740 LINE",
"16 698 LINE",
"106 696 LINE",
"106 502 LINE"
);
},
{
closed = 1;
nodes = (
"167 42 LINE",
"149 0 LINE",
"325 0 LINE SMOOTH",
"550 0 OFFCURVE",
"724 127 OFFCURVE",
"724 379 CURVE SMOOTH",
"724 633 OFFCURVE",
"548 740 OFFCURVE",
"304 740 CURVE SMOOTH",
"165 740 LINE",
"165 698 LINE",
"284 698 LINE SMOOTH",
"479 698 OFFCURVE",
"612 575 OFFCURVE",
"612 365 CURVE SMOOTH",
"612 178 OFFCURVE",
"505 42 OFFCURVE",
"303 42 CURVE SMOOTH"
);
}
);
width = 786;
},
{
anchors = (
{
name = bottom;
position = "{384, 0}";
},
{
name = center;
position = "{231, 376}";
},
{
name = top;
position = "{346, 740}";
}
);
components = (
{
name = _D.lig;
}
);
layerId = "E37CEFC3-0F3F-4B77-973B-7BF6C2788C53";
paths = (
{
closed = 1;
nodes = (
"292 0 LINE",
"292 740 LINE",
"30 740 LINE",
"30 688 LINE",
"120 684 LINE",
"120 56 LINE",
"30 52 LINE",
"30 0 LINE"
);
}
);
width = 772;
}
);
leftKerningGroup = BDEFHIKLPR;
leftMetricsKey = "=H+6";
rightKerningGroup = DOQ.right;
rightMetricsKey = "=|C";
unicode = 0044;
},
{
color = 7;
glyphname = E;
lastChange = "2019-03-01 21:15:39 +0000";
layers = (
{
anchors = (
{
name = bottom;
position = "{331, 0}";
},
{
name = ogonek;
position = "{521, 10}";
},
{
name = top;
position = "{311, 740}";
},
{
name = topleft;
position = "{28, 740}";
}
);
associatedMasterId = "5EE76762-6375-4A5E-A826-D96F22DA5141";
layerId = "4511B4F2-E194-4A1D-A895-2A4FE6F93E5E";
name = "Sep 30 18, 15:31";
paths = (
{
closed = 1;
nodes = (
"114 520 LINE",
"114 44 LINE",
"24 42 LINE",
"24 0 LINE",
"220 0 LINE",
"220 520 LINE"
);
},
{
closed = 1;
nodes = (
"220 502 LINE",
"220 740 LINE",
"24 740 LINE",
"24 698 LINE",
"114 696 LINE",
"114 502 LINE"
);
},
{
closed = 1;
nodes = (
"146 740 LINE",
"146 692 LINE",
"535 692 LINE",
"535 740 LINE"
);
},
{
closed = 1;
nodes = (
"156 48 LINE",
"156 0 LINE",
"553 0 LINE",
"553 48 LINE"
);
},
{
closed = 1;
nodes = (
"550 543 LINE",
"582 551 LINE",
"541 782 LINE",
"509 784 LINE",
"497 740 LINE",
"445 710 LINE"
);
},
{
closed = 1;
nodes = (
"535 0 LINE",
"581 0 LINE",
"636 219 LINE",
"604 227 LINE",
"485 48 LINE"
);
},
{
closed = 1;
nodes = (
"424 362 LINE",
"457 231 LINE",
"489 233 LINE",
"489 483 LINE",
"457 485 LINE",
"427 410 LINE",
"156 410 LINE",
"156 362 LINE"
);
}
);
width = 652;
},
{
anchors = (
{
name = bottom;
position = "{339, 0}";
},
{
name = ogonek;
position = "{419, 10}";
},
{
name = top;
position = "{329, 740}";
},
{
name = topleft;
position = "{36, 740}";
}
);
components = (
{
name = _E.lig;
transform = "{1, 0, 0, 1, 228, 0}";
}
);
layerId = "5EE76762-6375-4A5E-A826-D96F22DA5141";
paths = (
{
closed = 1;
nodes = (
"228 0 LINE",
"228 740 LINE",
"32 740 LINE",
"32 698 LINE",
"122 696 LINE",
"122 44 LINE",
"32 42 LINE",
"32 0 LINE"
);
}
);
width = 666;
},
{
anchors = (
{
name = bottom;
position = "{350, 0}";
},
{
name = ogonek;
position = "{439, 10}";
},
{
name = top;
position = "{360, 740}";
},
{
name = topleft;
position = "{20, 740}";
}
);
components = (
{
name = _E.lig;
}
);
layerId = "E37CEFC3-0F3F-4B77-973B-7BF6C2788C53";
paths = (
{
closed = 1;
nodes = (
"286 0 LINE",
"286 740 LINE",
"24 740 LINE",
"24 688 LINE",
"114 684 LINE",
"114 56 LINE",
"24 52 LINE",
"24 0 LINE"
);
}
);
width = 699;
}
);
leftKerningGroup = BDEFHIKLPR;
leftMetricsKey = "=H";
rightKerningGroup = E.right;
unicode = 0045;
},
{
color = 11;
glyphname = E_A;
lastChange = "2019-03-01 21:03:48 +0000";
layers = (
{
anchors = (
{
name = bottom;
position = "{339, 0}";
},
{
name = ogonek;
position = "{569, 10}";
},
{
name = top;
position = "{329, 740}";
},
{
name = topleft;
position = "{36, 740}";
}
);
components = (
{
name = _F.lig;
transform = "{1, 0, 0, 1, 228, 0}";
},
{
alignment = -1;
name = A;
transform = "{1, 0, 0, 1, 484, 0}";
}
);
layerId = "5EE76762-6375-4A5E-A826-D96F22DA5141";
paths = (
{
closed = 1;
nodes = (
"228 0 LINE",
"228 740 LINE",
"32 740 LINE",
"32 698 LINE",
"122 696 LINE",
"122 44 LINE",
"32 42 LINE",
"32 0 LINE"
);
},
{
closed = 1;
nodes = (
"164 48 LINE",
"164 0 LINE",
"556 0 LINE",
"556 48 LINE"
);
},
{
closed = 1;
nodes = (
"591 38 LINE",
"691 42 LINE",
"614 87 LINE"
);
}
);
width = 1180;
},
{
anchors = (
{
name = bottom;
position = "{350, 0}";
},
{
name = ogonek;
position = "{439, 10}";
},
{
name = top;
position = "{360, 740}";
},
{
name = topleft;
position = "{20, 740}";
}
);
components = (
{
name = _F.lig;
},
{
name = A;
transform = "{1, 0, 0, 1, 549, 0}";
}
);
layerId = "E37CEFC3-0F3F-4B77-973B-7BF6C2788C53";
paths = (
{
closed = 1;
nodes = (
"286 0 LINE",
"286 740 LINE",
"24 740 LINE",
"24 688 LINE",
"114 684 LINE",
"114 56 LINE",
"24 52 LINE",
"24 0 LINE"
);
},
{
closed = 1;
nodes = (
"180 58 LINE",
"180 0 LINE",
"623 0 LINE",
"623 58 LINE"
);
},
{
closed = 1;
nodes = (
"652 48 LINE",
"752 52 LINE",
"675 87 LINE"
);
}
);
width = 1255;
}
);
leftKerningGroup = BDEFHIKLPR;
leftMetricsKey = E;
rightKerningGroup = A.right;
rightMetricsKey = A;
},
{
color = 11;
glyphname = F_Z;
lastChange = "2019-03-01 21:15:09 +0000";
layers = (
{
components = (
{
name = F;
},
{
alignment = -1;
name = _Z.lig;
transform = "{1, 0, 0, 1, 488, 0}";
}
);
layerId = "5EE76762-6375-4A5E-A826-D96F22DA5141";
paths = (
{
closed = 1;
nodes = (
"333 692 LINE",
"999 692 LINE",
"999 740 LINE",
"333 740 LINE"
);
}
);
width = 1152;
},
{
components = (
{
name = F;
},
{
alignment = -1;
name = _Z.lig;
transform = "{1, 0, 0, 1, 558, 0}";
}
);
layerId = "E37CEFC3-0F3F-4B77-973B-7BF6C2788C53";
paths = (
{
closed = 1;
nodes = (
"353 682 LINE",
"1019 682 LINE",
"1019 740 LINE",
"353 740 LINE"
);
}
);
width = 1192;
}
);
leftKerningGroup = BDEFHIKLPR;
leftMetricsKey = F;
rightKerningGroup = Z.right;
rightMetricsKey = Z;
},
{
color = 7;
glyphname = G;
lastChange = "2019-03-01 20:28:17 +0000";
layers = (
{
anchors = (
{
name = bottom;
position = "{406, 0}";
},
{
name = top;
position = "{406, 740}";
}
);
associatedMasterId = "5EE76762-6375-4A5E-A826-D96F22DA5141";
layerId = "436850EE-6F87-4BBF-8EF2-F5A345CD9D52";
name = "Aug 26 18, 17:13";
paths = (
{
closed = 1;
nodes = (
"445 336 LINE",
"445 294 LINE",
"555 292 LINE",
"555 33 LINE",
"661 75 LINE",
"661 292 LINE",
"751 294 LINE",
"751 336 LINE"
);
},
{
closed = 1;
nodes = (
"661 101 LINE",
"608 72 OFFCURVE",
"538 44 OFFCURVE",
"460 44 CURVE SMOOTH",
"289 44 OFFCURVE",
"148 184 OFFCURVE",
"148 396 CURVE SMOOTH",
"148 585 OFFCURVE",
"259 706 OFFCURVE",
"407 706 CURVE SMOOTH",
"499 706 OFFCURVE",
"579 660 OFFCURVE",
"640 531 CURVE SMOOTH",
"658 493 LINE",
"690 501 LINE",
"646 762 LINE",
"616 764 LINE",
"577 658 LINE",
"635 669 LINE",
"583 726 OFFCURVE",
"497 750 OFFCURVE",
"413 750 CURVE SMOOTH",
"224 750 OFFCURVE",
"32 631 OFFCURVE",
"32 373 CURVE SMOOTH",
"32 119 OFFCURVE",
"216 -10 OFFCURVE",
"417 -10 CURVE SMOOTH",
"508 -10 OFFCURVE",
"595 15 OFFCURVE",
"661 55 CURVE"
);
}
);
width = 763;
},
{
anchors = (
{
name = bottom;
position = "{414, 0}";
},
{
name = top;
position = "{422, 740}";
}
);
associatedMasterId = "5EE76762-6375-4A5E-A826-D96F22DA5141";
layerId = "E019D0B4-B5D5-4FBC-AA2B-C8EC9B434C65";
name = "Oct 20 18, 13:42";
paths = (
{
closed = 1;
nodes = (
"40 119 OFFCURVE",
"224 -10 OFFCURVE",
"425 -10 CURVE SMOOTH",
"549 -10 OFFCURVE",
"668 38 OFFCURVE",
"730 104 CURVE",
"717 129 LINE",
"715 129 LINE",
"664 93 OFFCURVE",
"570 44 OFFCURVE",
"468 44 CURVE SMOOTH",
"297 44 OFFCURVE",
"156 184 OFFCURVE",
"156 396 CURVE SMOOTH",
"156 585 OFFCURVE",
"271 706 OFFCURVE",
"422 706 CURVE",
"421 750 LINE",
"232 750 OFFCURVE",
"40 631 OFFCURVE",
"40 373 CURVE SMOOTH"
);
},
{
closed = 1;
nodes = (
"449 336 LINE",
"449 294 LINE",
"559 292 LINE",
"559 33 LINE",
"665 75 LINE",
"665 292 LINE",
"765 294 LINE",
"765 336 LINE"
);
},
{
closed = 1;
nodes = (
"422 706 LINE",
"530 706 OFFCURVE",
"609 648 OFFCURVE",
"666 473 CURVE",
"698 481 LINE",
"656 782 LINE",
"624 784 LINE",
"593 658 LINE",
"643 669 LINE",
"591 726 OFFCURVE",
"505 750 OFFCURVE",
"421 750 CURVE"
);
}
);
width = 779;
},
{
anchors = (
{
name = bottom;
position = "{432, 0}";
},
{
name = top;
position = "{414, 740}";
}
);
layerId = "E37CEFC3-0F3F-4B77-973B-7BF6C2788C53";
paths = (
{
closed = 1;
nodes = (
"649 107 LINE",
"600 84 OFFCURVE",
"538 68 OFFCURVE",
"480 68 CURVE SMOOTH",
"302 68 OFFCURVE",
"220 219 OFFCURVE",
"220 397 CURVE SMOOTH",
"220 591 OFFCURVE",
"317 686 OFFCURVE",
"434 686 CURVE SMOOTH",
"524 686 OFFCURVE",
"599 630 OFFCURVE",
"644 473 CURVE",
"686 481 LINE",
"644 792 LINE",
"606 794 LINE",
"577 658 LINE",
"631 667 LINE",
"579 724 OFFCURVE",
"496 750 OFFCURVE",
"406 750 CURVE SMOOTH",
"218 750 OFFCURVE",
"30 638 OFFCURVE",
"30 370 CURVE SMOOTH",
"30 106 OFFCURVE",
"208 -10 OFFCURVE",
"414 -10 CURVE SMOOTH",
"507 -10 OFFCURVE",
"586 14 OFFCURVE",
"655 63 CURVE"
);
},
{
closed = 1;
nodes = (
"600 52 LINE",
"639 -48 LINE",
"681 -44 LINE",
"681 290 LINE",
"761 294 LINE",
"761 346 LINE",
"399 346 LINE",
"399 294 LINE",
"509 290 LINE",
"509 31 LINE"
);
}
);
width = 747;
},
{
anchors = (
{
name = bottom;
position = "{414, 0}";
},
{
name = top;
position = "{422, 740}";
}
);
associatedMasterId = "5EE76762-6375-4A5E-A826-D96F22DA5141";
layerId = "52227B5F-B84B-43B5-883E-5A2546D874D9";
name = "Nov 11 18, 11:56";
paths = (
{
closed = 1;
nodes = (
"449 336 LINE",
"449 294 LINE",
"559 292 LINE",
"559 33 LINE",
"665 75 LINE",
"665 292 LINE",
"765 294 LINE",
"765 336 LINE"
);
},
{
closed = 1;
nodes = (
"40 119 OFFCURVE",
"220 -10 OFFCURVE",
"432 -10 CURVE SMOOTH",
"549 -10 OFFCURVE",
"658 28 OFFCURVE",
"750 114 CURVE",
"737 140 LINE",
"735 140 LINE",
"664 94 OFFCURVE",
"570 44 OFFCURVE",
"468 44 CURVE SMOOTH",
"297 44 OFFCURVE",
"156 184 OFFCURVE",
"156 396 CURVE SMOOTH",
"156 585 OFFCURVE",
"271 706 OFFCURVE",
"422 706 CURVE SMOOTH",
"530 706 OFFCURVE",
"609 648 OFFCURVE",
"666 473 CURVE",
"698 481 LINE",
"656 782 LINE",
"624 784 LINE",
"594 660 LINE",
"626 686 LINE",
"573 731 OFFCURVE",
"496 750 OFFCURVE",
"421 750 CURVE SMOOTH",
"232 750 OFFCURVE",
"40 631 OFFCURVE",
"40 373 CURVE SMOOTH"
);
}
);
width = 779;
},
{
anchors = (
{
name = bottom;
position = "{432, 0}";
},
{
name = top;
position = "{422, 740}";
}
);
associatedMasterId = "5EE76762-6375-4A5E-A826-D96F22DA5141";
layerId = "70C30A0E-B6A6-4E6D-BAEF-3E91BD4F6E09";
name = "Nov 25 18, 23:07";
paths = (
{
closed = 1;
nodes = (
"549 -10 OFFCURVE",
"659 29 OFFCURVE",
"740 108 CURVE",
"727 134 LINE",
"725 134 LINE",
"664 95 OFFCURVE",
"570 44 OFFCURVE",
"468 44 CURVE SMOOTH",
"297 44 OFFCURVE",
"156 184 OFFCURVE",
"156 396 CURVE SMOOTH",
"156 585 OFFCURVE",
"271 706 OFFCURVE",
"422 706 CURVE SMOOTH",
"527 706 OFFCURVE",
"609 647 OFFCURVE",
"666 473 CURVE",
"698 481 LINE",
"656 782 LINE",
"624 784 LINE",
"593 658 LINE",
"640 669 LINE",
"588 726 OFFCURVE",
"502 750 OFFCURVE",
"421 750 CURVE SMOOTH",
"232 750 OFFCURVE",
"40 631 OFFCURVE",
"40 373 CURVE SMOOTH",
"40 119 OFFCURVE",
"220 -10 OFFCURVE",
"432 -10 CURVE SMOOTH"
);
},
{
closed = 1;
nodes = (
"665 75 LINE",
"665 286 LINE",
"765 288 LINE",
"765 330 LINE",
"449 330 LINE",
"449 288 LINE",
"559 286 LINE",
"559 33 LINE"
);
}
);
width = 765;
},
{
anchors = (
{
name = bottom;
position = "{432, 0}";
},
{
name = top;
position = "{422, 740}";
}
);
associatedMasterId = "5EE76762-6375-4A5E-A826-D96F22DA5141";
layerId = "31AE5E5E-923C-4507-AE29-8818ACC728CA";
name = "Nov 25 18, 23:13";
paths = (
{
closed = 1;
nodes = (
"551 -10 OFFCURVE",
"659 29 OFFCURVE",
"740 108 CURVE",
"724 138 LINE",
"722 138 LINE",
"664 95 OFFCURVE",
"570 44 OFFCURVE",
"468 44 CURVE SMOOTH",
"297 44 OFFCURVE",
"156 184 OFFCURVE",
"156 396 CURVE SMOOTH",
"156 585 OFFCURVE",
"271 706 OFFCURVE",
"422 706 CURVE SMOOTH",
"527 706 OFFCURVE",
"609 647 OFFCURVE",
"666 473 CURVE",
"698 481 LINE",
"656 782 LINE",
"624 784 LINE",
"593 658 LINE",
"640 669 LINE",
"588 726 OFFCURVE",
"502 750 OFFCURVE",
"421 750 CURVE SMOOTH",
"232 750 OFFCURVE",
"40 631 OFFCURVE",
"40 373 CURVE SMOOTH",
"40 119 OFFCURVE",
"220 -10 OFFCURVE",
"432 -10 CURVE SMOOTH"
);
},
{
closed = 1;
nodes = (
"665 78 LINE",
"665 286 LINE",
"755 288 LINE",
"755 330 LINE",
"449 330 LINE",
"449 288 LINE",
"559 286 LINE",
"559 33 LINE"
);
}
);
width = 765;
},
{
anchors = (
{
name = bottom;
position = "{430, 0}";
},
{
name = top;
position = "{424, 740}";
}
);
associatedMasterId = "5EE76762-6375-4A5E-A826-D96F22DA5141";
layerId = "28E29C04-8684-4D1E-9F71-2C2840E5B20A";
name = "Dec 2 18, 14:11";
paths = (
{
closed = 1;
nodes = (
"656 143 LINE",
"614 83 OFFCURVE",
"528 48 OFFCURVE",
"445 48 CURVE SMOOTH",
"277 48 OFFCURVE",
"154 192 OFFCURVE",
"154 392 CURVE SMOOTH",
"154 587 OFFCURVE",
"269 706 OFFCURVE",
"420 706 CURVE SMOOTH",
"525 706 OFFCURVE",
"607 647 OFFCURVE",
"664 473 CURVE",
"696 481 LINE",
"654 782 LINE",
"622 784 LINE",
"591 658 LINE",
"638 669 LINE",
"586 726 OFFCURVE",
"500 750 OFFCURVE",
"416 750 CURVE SMOOTH",
"230 750 OFFCURVE",
"38 631 OFFCURVE",
"38 369 CURVE SMOOTH",
"38 119 OFFCURVE",
"214 -10 OFFCURVE",
"412 -10 CURVE SMOOTH",
"517 -10 OFFCURVE",
"605 19 OFFCURVE",
"683 54 CURVE"
);
},
{
closed = 1;
nodes = (
"683 54 LINE",
"683 286 LINE",
"773 288 LINE",
"773 330 LINE",
"467 330 LINE",
"467 288 LINE",
"577 286 LINE",
"577 33 LINE"
);
}
);
width = 763;
},
{
anchors = (
{
name = bottom;
position = "{430, 0}";
},
{
name = top;
position = "{420, 740}";
}
);
layerId = "5EE76762-6375-4A5E-A826-D96F22DA5141";
paths = (
{
closed = 1;
nodes = (
"658 123 LINE",
"596 66 OFFCURVE",
"518 48 OFFCURVE",
"456 48 CURVE SMOOTH",
"285 48 OFFCURVE",
"154 188 OFFCURVE",
"154 394 CURVE SMOOTH",
"154 585 OFFCURVE",
"269 706 OFFCURVE",
"420 706 CURVE SMOOTH",
"525 706 OFFCURVE",
"607 647 OFFCURVE",
"664 473 CURVE",
"696 481 LINE",
"654 782 LINE",
"622 784 LINE",
"591 658 LINE",
"638 669 LINE",
"586 726 OFFCURVE",
"500 750 OFFCURVE",
"416 750 CURVE SMOOTH",
"230 750 OFFCURVE",
"38 631 OFFCURVE",
"38 373 CURVE SMOOTH",
"38 119 OFFCURVE",
"216 -10 OFFCURVE",
"416 -10 CURVE SMOOTH",
"518 -10 OFFCURVE",
"599 23 OFFCURVE",
"661 74 CURVE"
);
},
{
closed = 1;
nodes = (
"619 50 LINE",
"651 -36 LINE",
"683 -30 LINE",
"683 286 LINE",
"773 288 LINE",
"773 330 LINE",
"467 330 LINE",
"467 288 LINE",
"577 286 LINE",
"577 43 LINE"
);
}
);
width = 781;
}
);
leftKerningGroup = COGQ;
leftMetricsKey = "=C";
rightKerningGroup = G.right;
unicode = 0047;
},
{
color = 7;
glyphname = H;
lastChange = "2019-03-02 17:49:18 +0000";
layers = (
{
anchors = (
{
name = bottom;
position = "{400, 0}";
},
{
name = center;
position = "{400, 558}";
},
{
name = top;
position = "{400, 740}";
},
{
name = topleft;
position = "{36, 740}";
}
);
layerId = "5EE76762-6375-4A5E-A826-D96F22DA5141";
paths = (
{
closed = 1;
nodes = (
"318 0 LINE",
"318 42 LINE",
"228 44 LINE",
"228 363 LINE",
"572 363 LINE",
"572 44 LINE",
"482 42 LINE",
"482 0 LINE",
"768 0 LINE",
"768 42 LINE",
"678 44 LINE",
"678 696 LINE",
"768 698 LINE",
"768 740 LINE",
"482 740 LINE",
"482 698 LINE",
"572 696 LINE",
"572 411 LINE",
"228 411 LINE",
"228 696 LINE",
"318 698 LINE",
"318 740 LINE",
"32 740 LINE",
"32 698 LINE",
"122 696 LINE",
"122 44 LINE",
"32 42 LINE",
"32 0 LINE"
);
}
);
width = 800;
},
{
anchors = (
{
name = bottom;
position = "{413, 0}";
},
{
name = center;
position = "{413, 370}";
},
{
name = top;
position = "{413, 740}";
},
{
name = topleft;
position = "{20, 740}";
}
);
layerId = "E37CEFC3-0F3F-4B77-973B-7BF6C2788C53";
paths = (
{
closed = 1;
nodes = (
"376 0 LINE",
"376 52 LINE",
"286 56 LINE",
"286 360 LINE",
"539 360 LINE",
"539 56 LINE",
"449 52 LINE",
"449 0 LINE",
"801 0 LINE",
"801 52 LINE",
"711 56 LINE",
"711 684 LINE",
"801 688 LINE",
"801 740 LINE",
"449 740 LINE",
"449 688 LINE",
"539 684 LINE",
"539 418 LINE",
"286 418 LINE",
"286 684 LINE",
"376 688 LINE",
"376 740 LINE",
"24 740 LINE",
"24 688 LINE",
"114 684 LINE",
"114 56 LINE",
"24 52 LINE",
"24 0 LINE"
);
}
);
width = 825;
}
);
leftKerningGroup = BDEFHIKLPR;
rightKerningGroup = HIM.right;
rightMetricsKey = "=|H";
unicode = 0048;
},
{
color = 7;
glyphname = I;
lastChange = "2019-03-03 08:58:14 +0000";
layers = (
{
anchors = (
{
name = bottom;
position = "{175, 0}";
},
{
name = ogonek;
position = "{232, 10}";
},
{
name = top;
position = "{175, 740}";
},
{
name = topleft;
position = "{36, 740}";
}
);
layerId = "5EE76762-6375-4A5E-A826-D96F22DA5141";
paths = (
{
closed = 1;
nodes = (
"318 0 LINE",
"318 42 LINE",
"228 44 LINE",
"228 696 LINE",
"318 698 LINE",
"318 740 LINE",
"32 740 LINE",
"32 698 LINE",
"122 696 LINE",
"122 44 LINE",
"32 42 LINE",
"32 0 LINE"
);
}
);
width = 350;
},
{
anchors = (
{
name = bottom;
position = "{200, 0}";
},
{
name = ogonek;
position = "{292, 10}";
},
{
name = top;
position = "{200, 740}";
},
{
name = topleft;
position = "{20, 740}";
}
);
layerId = "E37CEFC3-0F3F-4B77-973B-7BF6C2788C53";
paths = (
{
closed = 1;
nodes = (
"376 0 LINE",
"376 52 LINE",
"286 56 LINE",
"286 684 LINE",
"376 688 LINE",
"376 740 LINE",
"24 740 LINE",
"24 688 LINE",
"114 684 LINE",
"114 56 LINE",
"24 52 LINE",
"24 0 LINE"
);
}
);
width = 400;
}
);
leftKerningGroup = BDEFHIKLPR;
leftMetricsKey = "=H";
rightKerningGroup = HIM.right;
rightMetricsKey = "=H";
unicode = 0049;
},
{
color = 7;
glyphname = J;
lastChange = "2019-03-03 09:00:06 +0000";
layers = (
{
anchors = (
{
name = bottom;
position = "{221, 0}";
},
{
name = top;
position = "{183, 740}";
}
);
layerId = "5EE76762-6375-4A5E-A826-D96F22DA5141";
paths = (
{
closed = 1;
nodes = (
"10 -140 LINE",
"144 -122 OFFCURVE",
"236 -47 OFFCURVE",
"236 203 CURVE SMOOTH",
"236 696 LINE",
"326 698 LINE",
"326 740 LINE",
"20 740 LINE",
"20 698 LINE",
"130 696 LINE",
"130 106 LINE SMOOTH",
"130 -30 OFFCURVE",
"91 -80 OFFCURVE",
"10 -102 CURVE"
);
}
);
width = 338;
},
{
anchors = (
{
name = bottom;
position = "{267, 0}";
},
{
name = top;
position = "{212, 740}";
}
);
layerId = "E37CEFC3-0F3F-4B77-973B-7BF6C2788C53";
paths = (
{
closed = 1;
nodes = (
"2 -140 LINE",
"173 -130 OFFCURVE",
"298 -33 OFFCURVE",
"298 225 CURVE SMOOTH",
"298 684 LINE",
"388 688 LINE",
"388 740 LINE",
"16 740 LINE",
"16 688 LINE",
"126 684 LINE",
"126 109 LINE SMOOTH",
"126 -10 OFFCURVE",
"103 -69 OFFCURVE",
"2 -86 CURVE"
);
}
);
width = 392;
},
{
anchors = (
{
name = bottom;
position = "{227, 0}";
},
{
name = top;
position = "{300, 740}";
}
);
associatedMasterId = "5EE76762-6375-4A5E-A826-D96F22DA5141";
layerId = "F5E4EF7B-8D61-4574-BBD2-578695AB2657";
name = "Mar 1 19, 12:39";
paths = (
{
closed = 1;
nodes = (
"4 20 OFFCURVE",
"74 -10 OFFCURVE",
"145 -10 CURVE SMOOTH",
"250 -10 OFFCURVE",
"352 53 OFFCURVE",
"352 293 CURVE SMOOTH",
"352 696 LINE",
"442 698 LINE",
"442 740 LINE",
"136 740 LINE",
"136 698 LINE",
"246 696 LINE",
"246 156 LINE SMOOTH",
"246 60 OFFCURVE",
"207 34 OFFCURVE",
"176 34 CURVE SMOOTH",
"116 34 OFFCURVE",
"120 133 OFFCURVE",
"57 133 CURVE SMOOTH",
"30 133 OFFCURVE",
"4 115 OFFCURVE",
"4 79 CURVE SMOOTH"
);
}
);
width = 464;
},
{
anchors = (
{
name = bottom;
position = "{273, 0}";
},
{
name = top;
position = "{273, 740}";
}
);
associatedMasterId = "E37CEFC3-0F3F-4B77-973B-7BF6C2788C53";
layerId = "F98F075F-C2FF-450F-BC3C-5A7E36ADCA34";
name = "Mar 1 19, 12:39";
paths = (
{
closed = 1;
nodes = (
"2 44 OFFCURVE",
"80 -10 OFFCURVE",
"187 -10 CURVE SMOOTH",
"308 -10 OFFCURVE",
"452 58 OFFCURVE",
"452 316 CURVE SMOOTH",
"452 684 LINE",
"542 688 LINE",
"542 740 LINE",
"170 740 LINE",
"170 688 LINE",
"280 684 LINE",
"280 130 LINE SMOOTH",
"280 81 OFFCURVE",
"258 59 OFFCURVE",
"231 59 CURVE SMOOTH",
"161 59 OFFCURVE",
"187 210 OFFCURVE",
"85 210 CURVE SMOOTH",
"36 210 OFFCURVE",
"2 175 OFFCURVE",
"2 123 CURVE SMOOTH"
);
}
);
width = 556;
}
);
leftKerningGroup = J;
leftMetricsKey = "=I-22";
rightKerningGroup = J.right;
rightMetricsKey = "=H-20";
unicode = 004A;
},
{
color = 7;
glyphname = K;
lastChange = "2019-03-01 13:01:04 +0000";
layers = (
{
anchors = (
{
name = bottom;
position = "{362, 0}";
},
{
name = top;
position = "{362, 740}";
}
);
components = (
{
name = _K.lig;
transform = "{1, 0, 0, 1, -1, 0}";
}
);
layerId = "5EE76762-6375-4A5E-A826-D96F22DA5141";
paths = (
{
closed = 1;
nodes = (
"318 0 LINE",
"318 42 LINE",
"228 44 LINE",
"228 696 LINE",
"318 698 LINE",
"318 740 LINE",
"32 740 LINE",
"32 698 LINE",
"122 696 LINE",
"122 44 LINE",
"32 42 LINE",
"32 0 LINE"
);
}
);
width = 715;
},
{
anchors = (
{
name = bottom;
position = "{400, 0}";
},
{
name = top;
position = "{400, 740}";
}
);
components = (
{
name = _K.lig;
transform = "{1, 0, 0, 1, -1, 0}";
}
);
layerId = "E37CEFC3-0F3F-4B77-973B-7BF6C2788C53";
paths = (
{
closed = 1;
nodes = (
"376 0 LINE",
"376 52 LINE",
"286 56 LINE",
"286 684 LINE",
"376 688 LINE",
"376 740 LINE",
"24 740 LINE",
"24 688 LINE",
"114 684 LINE",
"114 56 LINE",
"24 52 LINE",
"24 0 LINE"
);
}
);
width = 801;
}
);
leftKerningGroup = BDEFHIKLPR;
leftMetricsKey = "=H";
rightKerningGroup = K.right;
unicode = 004B;
},
{
color = 7;
glyphname = L;
lastChange = "2019-03-01 21:09:12 +0000";
layers = (
{
anchors = (
{
name = acute;
position = "{167, 740}";
},
{
name = bottom;
position = "{322, 0}";
},
{
name = caron;
position = "{358, 466}";
},
{
name = center;
position = "{168, 370}";
},
{
name = topright;
position = "{616, 740}";
}
);
associatedMasterId = "5EE76762-6375-4A5E-A826-D96F22DA5141";
layerId = "760FC927-EA48-44F1-94B6-5153297F83DA";
name = "Sep 30 18, 15:31";
paths = (
{
closed = 1;
nodes = (
"114 520 LINE",
"114 44 LINE",
"24 42 LINE",
"24 0 LINE",
"220 0 LINE",
"220 520 LINE"
);
},
{
closed = 1;
nodes = (
"114 696 LINE",
"114 502 LINE",
"220 502 LINE",
"220 696 LINE",
"310 698 LINE",
"310 740 LINE",
"24 740 LINE",
"24 698 LINE"
);
},
{
closed = 1;
nodes = (
"156 48 LINE",
"156 0 LINE",
"553 0 LINE",
"553 48 LINE"
);
},
{
closed = 1;
nodes = (
"535 0 LINE",
"581 0 LINE",
"636 219 LINE",
"604 227 LINE",
"485 48 LINE"
);
}
);
width = 632;
},
{
anchors = (
{
name = bottom;
position = "{330, 0}";
},
{
name = caron;
position = "{366, 466}";
},
{
name = center;
position = "{176, 370}";
},
{
name = top;
position = "{175, 740}";
},
{
name = topright;
position = "{624, 740}";
}
);
components = (
{
name = _L.lig;
transform = "{1, 0, 0, 1, 228, 0}";
}
);
layerId = "5EE76762-6375-4A5E-A826-D96F22DA5141";
paths = (
{
closed = 1;
nodes = (
"228 0 LINE",
"228 696 LINE",
"318 698 LINE",
"318 740 LINE",
"32 740 LINE",
"32 698 LINE",
"122 696 LINE",
"122 44 LINE",
"32 42 LINE",
"32 0 LINE"
);
}
);
width = 632;
},
{
anchors = (
{
name = bottom;
position = "{348, 0}";
},
{
name = caron;
position = "{414, 466}";
},
{
name = center;
position = "{200, 380}";
},
{
name = top;
position = "{200, 740}";
},
{
name = topright;
position = "{635, 740}";
}
);
components = (
{
name = _L.lig;
transform = "{1, 0, 0, 1, 276, 0}";
}
);
layerId = "E37CEFC3-0F3F-4B77-973B-7BF6C2788C53";
paths = (
{
closed = 1;
nodes = (
"286 0 LINE",
"286 684 LINE",
"376 688 LINE",
"376 740 LINE",
"24 740 LINE",
"24 688 LINE",
"114 684 LINE",
"114 56 LINE",
"24 52 LINE",
"24 0 LINE"
);
}
);
width = 655;
}
);
leftKerningGroup = BDEFHIKLPR;
leftMetricsKey = "=H";
rightKerningGroup = L.right;
rightMetricsKey = "=F-14";
unicode = 004C;
},
{
color = 7;
glyphname = M;
lastChange = "2019-03-02 17:37:39 +0000";
layers = (
{
anchors = (
{
name = bottom;
position = "{482, 0}";
},
{
name = top;
position = "{442, 740}";
}
);
layerId = "5EE76762-6375-4A5E-A826-D96F22DA5141";
paths = (
{
closed = 1;
nodes = (
"270 0 LINE",
"270 42 LINE",
"170 46 LINE",
"168 502 LINE",
"170 502 LINE",
"421 92 LINE",
"459 92 LINE",
"691 642 LINE",
"693 642 LINE",
"693 44 LINE",
"593 42 LINE",
"593 0 LINE",
"889 0 LINE",
"889 42 LINE",
"799 44 LINE",
"799 696 LINE",
"889 698 LINE",
"889 740 LINE",
"676 740 LINE",
"465 233 LINE",
"152 740 LINE",
"25 740 LINE",
"24 736 LINE",
"112 593 LINE",
"112 44 LINE",
"22 42 LINE",
"22 0 LINE"
);
}
);
width = 921;
},
{
anchors = (
{
name = bottom;
position = "{477, 0}";
},
{
name = top;
position = "{469, 740}";
}
);
layerId = "E37CEFC3-0F3F-4B77-973B-7BF6C2788C53";
paths = (
{
closed = 1;
nodes = (
"308 0 LINE",
"308 52 LINE",
"188 58 LINE",
"189 462 LINE",
"191 462 LINE",
"430 92 LINE",
"471 92 LINE",
"684 608 LINE",
"686 608 LINE",
"686 56 LINE",
"586 52 LINE",
"586 0 LINE",
"948 0 LINE",
"948 52 LINE",
"858 56 LINE",
"858 684 LINE",
"948 688 LINE",
"948 740 LINE",
"673 740 LINE",
"497 321 LINE",
"226 740 LINE",
"16 740 LINE",
"14 732 LINE",
"122 566 LINE",
"122 56 LINE",
"32 52 LINE",
"32 0 LINE"
);
}
);
width = 972;
},
{
anchors = (
{
name = bottom;
position = "{488, 0}";
},
{
name = top;
position = "{488, 740}";
}
);
associatedMasterId = "5EE76762-6375-4A5E-A826-D96F22DA5141";
layerId = "9348257B-DFC6-4137-94D5-7C38BC85863E";
name = "Jan 20 19, 12:27";
paths = (
{
closed = 1;
nodes = (
"132 736 LINE",
"445 -10 LINE",
"460 -2 LINE",
"516 111 LINE",
"254 740 LINE",
"131 740 LINE"
);
},
{
closed = 1;
nodes = (
"722 740 LINE",
"442 23 LINE",
"445 -10 LINE",
"485 -10 LINE",
"780 740 LINE"
);
},
{
closed = 1;
nodes = (
"276 0 LINE",
"276 42 LINE",
"176 46 LINE",
"176 740 LINE",
"28 740 LINE",
"28 698 LINE",
"118 696 LINE",
"118 44 LINE",
"28 42 LINE",
"28 0 LINE"
);
},
{
closed = 1;
nodes = (
"935 0 LINE",
"935 42 LINE",
"845 44 LINE",
"845 696 LINE",
"935 698 LINE",
"935 740 LINE",
"739 740 LINE",
"739 44 LINE",
"639 42 LINE",
"639 0 LINE"
);
}
);
width = 967;
},
{
anchors = (
{
name = bottom;
position = "{483, 0}";
},
{
name = top;
position = "{493, 740}";
}
);
associatedMasterId = "E37CEFC3-0F3F-4B77-973B-7BF6C2788C53";
layerId = "83AF413B-6CDC-4BA3-BA17-680497037DB2";
name = "Jan 20 19, 12:33";
paths = (
{
closed = 1;
nodes = (
"135 732 LINE",
"420 -10 LINE",
"467 -10 LINE",
"530 205 LINE",
"321 740 LINE",
"137 740 LINE"
);
},
{
closed = 1;
nodes = (
"671 740 LINE",
"420 33 LINE",
"447 -10 LINE",
"472 -10 LINE",
"741 740 LINE"
);
},
{
closed = 1;
nodes = (
"296 0 LINE",
"296 52 LINE",
"176 58 LINE",
"176 740 LINE",
"20 740 LINE",
"20 688 LINE",
"110 684 LINE",
"110 56 LINE",
"20 52 LINE",
"20 0 LINE"
);
},
{
closed = 1;
nodes = (
"966 0 LINE",
"966 52 LINE",
"876 56 LINE",
"876 684 LINE",
"966 688 LINE",
"966 740 LINE",
"704 740 LINE",
"704 56 LINE",
"604 52 LINE",
"604 0 LINE"
);
}
);
width = 990;
}
);
leftKerningGroup = MN;
leftMetricsKey = "=N";
rightKerningGroup = HIM.right;
rightMetricsKey = "=H";
unicode = 004D;
},
{
color = 7;
glyphname = N;
lastChange = "2019-03-02 17:38:23 +0000";
layers = (
{
anchors = (
{
name = bottom;
position = "{421, 0}";
},
{
name = top;
position = "{361, 740}";
}
);
background = {
paths = (
{
closed = 1;
nodes = (
"507 740 LINE",
"507 698 LINE",
"617 694 LINE",
"617 50 LINE",
"631 -10 LINE",
"675 -10 LINE",
"675 696 LINE",
"765 698 LINE",
"765 740 LINE"
);
},
{
closed = 1;
nodes = (
"97 740 LINE",
"96 736 LINE",
"631 -10 LINE",
"650 -10 LINE",
"664 133 LINE",
"226 740 LINE"
);
},
{
closed = 1;
nodes = (
"288 0 LINE",
"288 42 LINE",
"178 46 LINE",
"178 740 LINE",
"30 740 LINE",
"30 698 LINE",
"120 696 LINE",
"120 44 LINE",
"30 42 LINE",
"30 0 LINE"
);
}
);
};
layerId = "5EE76762-6375-4A5E-A826-D96F22DA5141";
paths = (
{
closed = 1;
nodes = (
"116 619 LINE",
"116 44 LINE",
"26 42 LINE",
"26 0 LINE",
"284 0 LINE",
"284 42 LINE",
"174 46 LINE",
"174 547 LINE",
"176 547 LINE",
"613 0 LINE",
"671 0 LINE",
"671 696 LINE",
"761 698 LINE",
"761 740 LINE",
"503 740 LINE",
"503 698 LINE",
"613 694 LINE",
"613 182 LINE",
"611 182 LINE",
"160 740 LINE",
"23 740 LINE",
"22 736 LINE"
);
}
);
width = 767;
},
{
anchors = (
{
name = bottom;
position = "{454, 0}";
},
{
name = top;
position = "{424, 740}";
}
);
layerId = "E37CEFC3-0F3F-4B77-973B-7BF6C2788C53";
paths = (
{
closed = 1;
nodes = (
"130 599 LINE",
"130 56 LINE",
"40 52 LINE",
"40 0 LINE",
"316 0 LINE",
"316 52 LINE",
"196 58 LINE",
"197 522 LINE",
"199 522 LINE",
"653 0 LINE",
"719 0 LINE",
"719 684 LINE",
"809 688 LINE",
"809 740 LINE",
"533 740 LINE",
"533 688 LINE",
"653 682 LINE",
"653 284 LINE",
"651 284 LINE",
"254 740 LINE",
"16 740 LINE",
"14 732 LINE"
);
}
);
width = 807;
},
{
anchors = (
{
name = bottom;
position = "{427, 0}";
},
{
name = top;
position = "{387, 740}";
}
);
associatedMasterId = "5EE76762-6375-4A5E-A826-D96F22DA5141";
background = {
paths = (
{
closed = 1;
nodes = (
"505 740 LINE",
"505 698 LINE",
"615 694 LINE",
"615 50 LINE",
"629 -10 LINE",
"673 -10 LINE",
"673 696 LINE",
"763 698 LINE",
"763 740 LINE"
);
},
{
closed = 1;
nodes = (
"95 740 LINE",
"94 736 LINE",
"629 -10 LINE",
"648 -10 LINE",
"662 133 LINE",
"224 740 LINE"
);
},
{
closed = 1;
nodes = (
"286 0 LINE",
"286 42 LINE",
"176 46 LINE",
"176 740 LINE",
"28 740 LINE",
"28 698 LINE",
"118 696 LINE",
"118 44 LINE",
"28 42 LINE",
"28 0 LINE"
);
}
);
};
layerId = "67BFAAC1-4DC4-46D6-9FFB-50A3C5AAA650";
name = "Jan 20 19, 12:29";
paths = (
{
closed = 1;
nodes = (
"505 740 LINE",
"505 698 LINE",
"615 694 LINE",
"615 50 LINE",
"629 -10 LINE",
"673 -10 LINE",
"673 696 LINE",
"763 698 LINE",
"763 740 LINE"
);
},
{
closed = 1;
nodes = (
"95 740 LINE",
"94 736 LINE",
"629 -10 LINE",
"648 -10 LINE",
"662 133 LINE",
"224 740 LINE"
);
},
{
closed = 1;
nodes = (
"286 0 LINE",
"286 42 LINE",
"176 46 LINE",
"176 740 LINE",
"28 740 LINE",
"28 698 LINE",
"118 696 LINE",
"118 44 LINE",
"28 42 LINE",
"28 0 LINE"
);
}
);
width = 763;
},
{
anchors = (
{
name = bottom;
position = "{450, 0}";
},
{
name = top;
position = "{420, 740}";
}
);
associatedMasterId = "E37CEFC3-0F3F-4B77-973B-7BF6C2788C53";
layerId = "65D732AA-152D-4568-B003-D9379128C8C2";
name = "Jan 20 19, 12:34";
paths = (
{
closed = 1;
nodes = (
"493 740 LINE",
"493 688 LINE",
"623 682 LINE",
"623 67 LINE",
"643 -10 LINE",
"689 -10 LINE",
"689 684 LINE",
"779 688 LINE",
"779 740 LINE"
);
},
{
closed = 1;
nodes = (
"78 740 LINE",
"76 732 LINE",
"629 -10 LINE",
"669 -10 LINE",
"675 241 LINE",
"297 740 LINE"
);
},
{
closed = 1;
nodes = (
"306 0 LINE",
"306 52 LINE",
"176 58 LINE",
"176 740 LINE",
"20 740 LINE",
"20 688 LINE",
"110 684 LINE",
"110 56 LINE",
"20 52 LINE",
"20 0 LINE"
);
}
);
width = 771;
}
);
leftKerningGroup = MN;
leftMetricsKey = "=H-10";
rightKerningGroup = N.right;
rightMetricsKey = "=H-26";
unicode = 004E;
},
{
color = 7;
glyphname = O;
lastChange = "2019-03-01 21:36:57 +0000";
layers = (
{
anchors = (
{
name = bottom;
position = "{405, 0}";
},
{
name = center;
position = "{405, 370}";
},
{
name = ogonek;
position = "{714, 10}";
},
{
name = top;
position = "{405, 740}";
},
{
name = topleft;
position = "{38, 740}";
},
{
name = topright;
position = "{771, 740}";
}
);
layerId = "5EE76762-6375-4A5E-A826-D96F22DA5141";
paths = (
{
closed = 1;
nodes = (
"38 115 OFFCURVE",
"215 -10 OFFCURVE",
"409 -10 CURVE SMOOTH",
"611 -10 OFFCURVE",
"771 126 OFFCURVE",
"771 367 CURVE SMOOTH",
"771 625 OFFCURVE",
"594 750 OFFCURVE",
"400 750 CURVE SMOOTH",
"198 750 OFFCURVE",
"38 614 OFFCURVE",
"38 373 CURVE SMOOTH"
);
},
{
closed = 1;
nodes = (
"152 580 OFFCURVE",
"247 702 OFFCURVE",
"385 702 CURVE SMOOTH",
"533 702 OFFCURVE",
"657 562 OFFCURVE",
"657 347 CURVE SMOOTH",
"657 157 OFFCURVE",
"562 38 OFFCURVE",
"424 38 CURVE SMOOTH",
"276 38 OFFCURVE",
"152 177 OFFCURVE",
"152 392 CURVE SMOOTH"
);
}
);
width = 809;
},
{
anchors = (
{
name = bottom;
position = "{385, 0}";
},
{
name = center;
position = "{385, 370}";
},
{
name = ogonek;
position = "{689, 10}";
},
{
name = top;
position = "{387, 740}";
},
{
name = topleft;
position = "{24, 740}";
},
{
name = topright;
position = "{745, 740}";
}
);
layerId = "E37CEFC3-0F3F-4B77-973B-7BF6C2788C53";
paths = (
{
closed = 1;
nodes = (
"30 115 OFFCURVE",
"191 -10 OFFCURVE",
"389 -10 CURVE SMOOTH",
"596 -10 OFFCURVE",
"739 126 OFFCURVE",
"739 367 CURVE SMOOTH",
"739 625 OFFCURVE",
"578 750 OFFCURVE",
"380 750 CURVE SMOOTH",
"173 750 OFFCURVE",
"30 614 OFFCURVE",
"30 373 CURVE SMOOTH"
);
},
{
closed = 1;
nodes = (
"230 588 OFFCURVE",
"285 696 OFFCURVE",
"376 696 CURVE SMOOTH",
"474 696 OFFCURVE",
"539 570 OFFCURVE",
"539 347 CURVE SMOOTH",
"539 149 OFFCURVE",
"484 44 OFFCURVE",
"393 44 CURVE SMOOTH",
"295 44 OFFCURVE",
"230 169 OFFCURVE",
"230 392 CURVE SMOOTH"
);
}
);
width = 769;
}
);
leftKerningGroup = COGQ;
leftMetricsKey = "=C";
rightKerningGroup = DOQ.right;
rightMetricsKey = "=|O";
unicode = 004F;
},
{
color = 7;
glyphname = Q;
lastChange = "2019-03-03 08:58:53 +0000";
layers = (
{
anchors = (
{
name = bottom;
position = "{387, 0}";
},
{
name = top;
position = "{387, 740}";
}
);
associatedMasterId = "5EE76762-6375-4A5E-A826-D96F22DA5141";
components = (
{
name = O;
}
);
layerId = "B757EB79-10EB-4D2B-945C-6175099F3336";
name = "Oct 4 18, 18:15";
paths = (
{
closed = 1;
nodes = (
"172 -125 OFFCURVE",
"209 -108 OFFCURVE",
"262 -108 CURVE SMOOTH",
"387 -108 OFFCURVE",
"420 -200 OFFCURVE",
"544 -200 CURVE SMOOTH",
"643 -200 OFFCURVE",
"699 -140 OFFCURVE",
"745 -84 CURVE",
"727 -58 LINE",
"691 -90 OFFCURVE",
"658 -112 OFFCURVE",
"607 -112 CURVE SMOOTH",
"515 -112 OFFCURVE",
"471 -40 OFFCURVE",
"339 -40 CURVE SMOOTH",
"238 -40 OFFCURVE",
"184 -82 OFFCURVE",
"123 -140 CURVE",
"131 -161 LINE"
);
},
{
closed = 1;
nodes = (
"131 -161 LINE",
"209 -74 LINE",
"284 10 LINE",
"256 33 LINE",
"97 -119 LINE"
);
}
);
width = 773;
},
{
anchors = (
{
name = bottom;
position = "{387, 0}";
},
{
name = top;
position = "{387, 740}";
}
);
associatedMasterId = "5EE76762-6375-4A5E-A826-D96F22DA5141";
components = (
{
name = O;
}
);
layerId = "77F83049-F820-4EE6-8FF1-6C071E742A96";
name = "Oct 4 18, 22:09";
paths = (
{
closed = 1;
nodes = (
"145 -92 OFFCURVE",
"199 -66 OFFCURVE",
"257 -66 CURVE SMOOTH",
"396 -66 OFFCURVE",
"460 -210 OFFCURVE",
"597 -210 CURVE SMOOTH",
"683 -210 OFFCURVE",
"744 -154 OFFCURVE",
"785 -104 CURVE",
"767 -78 LINE",
"731 -110 OFFCURVE",
"685 -121 OFFCURVE",
"646 -121 CURVE SMOOTH",
"516 -121 OFFCURVE",
"461 0 OFFCURVE",
"310 0 CURVE SMOOTH",
"228 0 OFFCURVE",
"154 -32 OFFCURVE",
"83 -100 CURVE",
"103 -130 LINE"
);
},
{
closed = 1;
nodes = (
"285 -23 LINE",
"396 -23 LINE",
"396 13 LINE",
"285 13 LINE"
);
}
);
width = 773;
},
{
anchors = (
{
name = bottom;
position = "{387, 0}";
},
{
name = top;
position = "{387, 740}";
}
);
components = (
{
name = O;
}
);
layerId = "5EE76762-6375-4A5E-A826-D96F22DA5141";
rightMetricsKey = "=";
paths = (
{
closed = 1;
nodes = (
"423 91 LINE",
"334 42 LINE",
"506 -144 OFFCURVE",
"571 -210 OFFCURVE",
"661 -210 CURVE SMOOTH",
"705 -210 OFFCURVE",
"767 -194 OFFCURVE",
"807 -176 CURVE",
"801 -140 LINE",
"708 -161 OFFCURVE",
"659 -137 OFFCURVE",
"499 12 CURVE"
);
}
);
width = 813;
},
{
anchors = (
{
name = bottom;
position = "{381, 0}";
},
{
name = top;
position = "{381, 740}";
}
);
components = (
{
locked = 1;
name = O;
}
);
layerId = "E37CEFC3-0F3F-4B77-973B-7BF6C2788C53";
rightMetricsKey = "=";
paths = (
{
closed = 1;
nodes = (
"390 122 LINE",
"254 46 LINE",
"424 -142 OFFCURVE",
"497 -210 OFFCURVE",
"588 -210 CURVE SMOOTH",
"655 -210 OFFCURVE",
"741 -175 OFFCURVE",
"783 -149 CURVE",
"777 -103 LINE",
"682 -138 OFFCURVE",
"581 -74 OFFCURVE",
"491 22 CURVE"
);
}
);
width = 761;
},
{
anchors = (
{
name = bottom;
position = "{381, 0}";
},
{
name = top;
position = "{381, 740}";
}
);
associatedMasterId = "E37CEFC3-0F3F-4B77-973B-7BF6C2788C53";
components = (
{
locked = 1;
name = O;
}
);
layerId = "57749D12-3E44-4512-B1A5-2B961E37F247";
rightMetricsKey = "=";
name = "Dec 8 18, 23:52";
paths = (
{
closed = 1;
nodes = (
"362 -9 LINE",
"485 -59 OFFCURVE",
"494 -210 OFFCURVE",
"625 -210 CURVE SMOOTH",
"702 -210 OFFCURVE",
"754 -159 OFFCURVE",
"780 -49 CURVE",
"739 -36 LINE",
"737 -37 LINE",
"727 -71 OFFCURVE",
"707 -87 OFFCURVE",
"683 -87 CURVE SMOOTH",
"627 -87 OFFCURVE",
"588 -1 OFFCURVE",
"502 5 CURVE",
"502 9 LINE",
"472 11 LINE"
);
}
);
width = 761;
},
{
anchors = (
{
name = bottom;
position = "{387, 0}";
},
{
name = top;
position = "{387, 740}";
}
);
associatedMasterId = "5EE76762-6375-4A5E-A826-D96F22DA5141";
components = (
{
name = O;
}
);
layerId = "1212B432-3ABC-4BC9-8701-45699CD7E3B4";
name = "Dec 8 18, 23:58";
paths = (
{
closed = 1;
nodes = (
"411 -10 LINE",
"515 -69 OFFCURVE",
"528 -210 OFFCURVE",
"637 -210 CURVE SMOOTH",
"703 -210 OFFCURVE",
"749 -160 OFFCURVE",
"767 -84 CURVE",
"737 -70 LINE",
"723 -99 OFFCURVE",
"704 -120 OFFCURVE",
"676 -120 CURVE SMOOTH",
"614 -120 OFFCURVE",
"588 -9 OFFCURVE",
"499 -3 CURVE",
"499 1 LINE",
"472 1 LINE"
);
}
);
width = 813;
},
{
anchors = (
{
name = bottom;
position = "{387, 0}";
},
{
name = top;
position = "{387, 740}";
}
);
associatedMasterId = "5EE76762-6375-4A5E-A826-D96F22DA5141";
components = (
{
name = O;
}
);
layerId = "275153A8-56DC-4EC7-B94F-9A6ED6775E69";
rightMetricsKey = "=";
name = "Dec 31 18, 16:20";
paths = (
{
closed = 1;
nodes = (
"421 91 LINE",
"334 42 LINE",
"506 -144 OFFCURVE",
"575 -210 OFFCURVE",
"656 -210 CURVE SMOOTH",
"719 -210 OFFCURVE",
"763 -169 OFFCURVE",
"791 -85 CURVE",
"765 -71 LINE",
"763 -71 LINE",
"739 -107 OFFCURVE",
"712 -117 OFFCURVE",
"689 -117 CURVE SMOOTH",
"638 -117 OFFCURVE",
"576 -69 OFFCURVE",
"497 12 CURVE"
);
}
);
width = 813;
},
{
anchors = (
{
name = bottom;
position = "{381, 0}";
},
{
name = top;
position = "{381, 740}";
}
);
associatedMasterId = "E37CEFC3-0F3F-4B77-973B-7BF6C2788C53";
components = (
{
locked = 1;
name = O;
}
);
layerId = "223A78FB-BDA5-428F-AD95-7AEDEDBB0AC4";
rightMetricsKey = "=";
name = "Jan 1 19, 19:36";
paths = (
{
closed = 1;
nodes = (
"390 122 LINE",
"262 42 LINE",
"430 -144 OFFCURVE",
"507 -210 OFFCURVE",
"598 -210 CURVE SMOOTH",
"685 -210 OFFCURVE",
"749 -149 OFFCURVE",
"781 -37 CURVE",
"740 -24 LINE",
"738 -25 LINE",
"720 -59 OFFCURVE",
"698 -75 OFFCURVE",
"663 -75 CURVE SMOOTH",
"619 -75 OFFCURVE",
"566 -50 OFFCURVE",
"491 22 CURVE"
);
}
);
width = 761;
}
);
leftKerningGroup = COGQ;
leftMetricsKey = "=O";
rightKerningGroup = DOQ.right;
rightMetricsKey = "=O";
unicode = 0051;
},
{
color = 7;
glyphname = R;
lastChange = "2019-03-01 13:09:56 +0000";
layers = (
{
anchors = (
{
name = bottom;
position = "{376, 0}";
},
{
name = top;
position = "{336, 740}";
}
);
associatedMasterId = "5EE76762-6375-4A5E-A826-D96F22DA5141";
layerId = "DCEDF98B-A767-4D69-BB72-6BAC69BC6DD1";
name = "Oct 20 18, 12:20";
paths = (
{
closed = 1;
nodes = (
"320 0 LINE",
"320 42 LINE",
"230 44 LINE",
"230 740 LINE",
"34 740 LINE",
"34 698 LINE",
"124 696 LINE",
"124 44 LINE",
"34 42 LINE",
"34 0 LINE"
);
},
{
closed = 1;
nodes = (
"414 698 OFFCURVE",
"489 656 OFFCURVE",
"489 553 CURVE SMOOTH",
"489 454 OFFCURVE",
"421 408 OFFCURVE",
"260 402 CURVE",
"260 364 LINE",
"452 362 OFFCURVE",
"603 413 OFFCURVE",
"603 563 CURVE SMOOTH",
"603 690 OFFCURVE",
"496 740 OFFCURVE",
"310 740 CURVE SMOOTH",
"190 740 LINE",
"190 698 LINE",
"305 698 LINE SMOOTH"
);
},
{
closed = 1;
nodes = (
"308 384 LINE",
"468 118 LINE SMOOTH",
"533 10 OFFCURVE",
"578 -30 OFFCURVE",
"748 -10 CURVE",
"750 26 LINE",
"689 29 OFFCURVE",
"642 64 OFFCURVE",
"606 119 CURVE SMOOTH",
"419 407 LINE"
);
}
);
width = 730;
},
{
anchors = (
{
name = bottom;
position = "{374, 0}";
},
{
name = top;
position = "{329, 740}";
}
);
components = (
{
name = _R.lig;
}
);
layerId = "5EE76762-6375-4A5E-A826-D96F22DA5141";
paths = (
{
closed = 1;
nodes = (
"318 0 LINE",
"318 42 LINE",
"228 44 LINE",
"228 740 LINE",
"32 740 LINE",
"32 698 LINE",
"122 696 LINE",
"122 44 LINE",
"32 42 LINE",
"32 0 LINE"
);
}
);
width = 734;
},
{
anchors = (
{
name = bottom;
position = "{410, 0}";
},
{
name = top;
position = "{350, 740}";
}
);
components = (
{
name = _R.lig;
}
);
layerId = "E37CEFC3-0F3F-4B77-973B-7BF6C2788C53";
paths = (
{
closed = 1;
nodes = (
"376 0 LINE",
"376 52 LINE",
"286 56 LINE",
"286 740 LINE",
"24 740 LINE",
"24 688 LINE",
"114 684 LINE",
"114 56 LINE",
"24 52 LINE",
"24 0 LINE"
);
}
);
width = 796;
},
{
anchors = (
{
name = bottom;
position = "{410, 0}";
},
{
name = top;
position = "{410, 740}";
}
);
associatedMasterId = "E37CEFC3-0F3F-4B77-973B-7BF6C2788C53";
layerId = "76572520-C0FD-4357-B219-CD3E4210425B";
name = "Dec 9 18, 00:21";
paths = (
{
closed = 1;
nodes = (
"431 688 OFFCURVE",
"479 641 OFFCURVE",
"479 547 CURVE SMOOTH",
"479 456 OFFCURVE",
"435 409 OFFCURVE",
"330 404 CURVE",
"330 352 LINE",
"522 350 OFFCURVE",
"665 416 OFFCURVE",
"665 563 CURVE SMOOTH",
"665 683 OFFCURVE",
"576 740 OFFCURVE",
"390 740 CURVE SMOOTH",
"240 740 LINE",
"256 688 LINE",
"341 688 LINE SMOOTH"
);
},
{
closed = 1;
nodes = (
"376 0 LINE",
"376 52 LINE",
"286 56 LINE",
"286 740 LINE",
"24 740 LINE",
"24 688 LINE",
"114 684 LINE",
"114 56 LINE",
"24 52 LINE",
"24 0 LINE"
);
},
{
closed = 1;
nodes = (
"331 352 LINE",
"435 352 OFFCURVE",
"454 276 OFFCURVE",
"469 191 CURVE SMOOTH",
"486 96 OFFCURVE",
"498 -10 OFFCURVE",
"621 -10 CURVE SMOOTH",
"693 -10 OFFCURVE",
"763 26 OFFCURVE",
"792 137 CURVE",
"751 150 LINE",
"749 150 LINE",
"741 127 OFFCURVE",
"723 103 OFFCURVE",
"700 103 CURVE SMOOTH",
"644 103 OFFCURVE",
"659 246 OFFCURVE",
"609 319 CURVE SMOOTH",
"577 366 OFFCURVE",
"517 382 OFFCURVE",
"422 382 CURVE"
);
}
);
width = 792;
},
{
anchors = (
{
name = bottom;
position = "{374, 0}";
},
{
name = top;
position = "{334, 740}";
}
);
associatedMasterId = "5EE76762-6375-4A5E-A826-D96F22DA5141";
layerId = "3FF6BE19-3529-4658-8FED-DD04A4DC5E07";
name = "Dec 9 18, 00:23";
paths = (
{
closed = 1;
nodes = (
"412 698 OFFCURVE",
"487 656 OFFCURVE",
"487 553 CURVE SMOOTH",
"487 454 OFFCURVE",
"419 408 OFFCURVE",
"266 402 CURVE",
"266 364 LINE",
"450 362 OFFCURVE",
"601 413 OFFCURVE",
"601 563 CURVE SMOOTH",
"601 690 OFFCURVE",
"494 740 OFFCURVE",
"308 740 CURVE SMOOTH",
"188 740 LINE",
"188 698 LINE",
"303 698 LINE SMOOTH"
);
},
{
closed = 1;
nodes = (
"318 0 LINE",
"318 42 LINE",
"228 44 LINE",
"228 740 LINE",
"32 740 LINE",
"32 698 LINE",
"122 696 LINE",
"122 44 LINE",
"32 42 LINE",
"32 0 LINE"
);
},
{
closed = 1;
nodes = (
"266 364 LINE",
"424 362 OFFCURVE",
"433 272 OFFCURVE",
"448 187 CURVE SMOOTH",
"466 82 OFFCURVE",
"483 -10 OFFCURVE",
"576 -10 CURVE SMOOTH",
"632 -10 OFFCURVE",
"680 22 OFFCURVE",
"705 94 CURVE",
"675 108 LINE",
"673 108 LINE",
"662 88 OFFCURVE",
"643 67 OFFCURVE",
"620 67 CURVE SMOOTH",
"564 67 OFFCURVE",
"561 188 OFFCURVE",
"532 277 CURVE SMOOTH",
"507 353 OFFCURVE",
"473 380 OFFCURVE",
"391 380 CURVE"
);
}
);
width = 703;
}
);
leftKerningGroup = BDEFHIKLPR;
leftMetricsKey = "=H";
rightKerningGroup = R.right;
rightMetricsKey = "=0";
unicode = 0052;
},
{
color = 7;
glyphname = S;
lastChange = "2019-03-10 15:22:08 +0000";
layers = (
{
anchors = (
{
name = bottom;
position = "{272, 0}";
},
{
name = top;
position = "{274, 740}";
}
);
layerId = "5EE76762-6375-4A5E-A826-D96F22DA5141";
paths = (
{
closed = 1;
nodes = (
"155 750 OFFCURVE",
"56 695 OFFCURVE",
"56 567 CURVE SMOOTH",
"56 329 OFFCURVE",
"404 313 OFFCURVE",
"404 141 CURVE SMOOTH",
"404 73 OFFCURVE",
"352 34 OFFCURVE",
"288 34 CURVE",
"204 34 OFFCURVE",
"132 99 OFFCURVE",
"74 251 CURVE",
"42 243 LINE",
"84 -42 LINE",
"116 -44 LINE",
"143 76 LINE",
"97 65 LINE",
"153 8 OFFCURVE",
"225 -10 OFFCURVE",
"286 -10 CURVE SMOOTH",
"381 -10 OFFCURVE",
"496 34 OFFCURVE",
"496 178 CURVE SMOOTH",
"496 424 OFFCURVE",
"148 438 OFFCURVE",
"148 604 CURVE SMOOTH",
"148 661 OFFCURVE",
"188 706 OFFCURVE",
"255 706 CURVE SMOOTH",
"336 706 OFFCURVE",
"405 640 OFFCURVE",
"449 499 CURVE",
"481 507 LINE",
"439 782 LINE",
"407 784 LINE",
"380 664 LINE",
"426 675 LINE",
"370 732 OFFCURVE",
"316 750 OFFCURVE",
"258 750 CURVE"
);
}
);
width = 548;
},
{
anchors = (
{
name = bottom;
position = "{309, 0}";
},
{
name = top;
position = "{280, 740}";
}
);
layerId = "E37CEFC3-0F3F-4B77-973B-7BF6C2788C53";
paths = (
{
closed = 1;
nodes = (
"139 750 OFFCURVE",
"44 671 OFFCURVE",
"44 539 CURVE SMOOTH",
"44 295 OFFCURVE",
"369 272 OFFCURVE",
"369 129 CURVE SMOOTH",
"369 85 OFFCURVE",
"339 54 OFFCURVE",
"278 54 CURVE SMOOTH",
"197 54 OFFCURVE",
"119 110 OFFCURVE",
"76 267 CURVE",
"34 259 LINE",
"74 -52 LINE",
"112 -54 LINE",
"141 82 LINE",
"87 71 LINE",
"139 14 OFFCURVE",
"214 -10 OFFCURVE",
"284 -10 CURVE SMOOTH",
"383 -10 OFFCURVE",
"528 38 OFFCURVE",
"528 204 CURVE SMOOTH",
"528 448 OFFCURVE",
"203 471 OFFCURVE",
"203 617 CURVE SMOOTH",
"203 656 OFFCURVE",
"227 686 OFFCURVE",
"282 686 CURVE SMOOTH",
"356 686 OFFCURVE",
"425 630 OFFCURVE",
"468 473 CURVE",
"510 481 LINE",
"470 792 LINE",
"432 794 LINE",
"403 658 LINE",
"457 669 LINE",
"405 726 OFFCURVE",
"341 750 OFFCURVE",
"268 750 CURVE SMOOTH"
);
}
);
width = 564;
}
);
leftKerningGroup = S;
rightKerningGroup = S.right;
unicode = 0053;
},
{
color = 7;
glyphname = T;
lastChange = "2019-03-03 09:30:38 +0000";
layers = (
{
anchors = (
{
name = bottom;
position = "{338, 0}";
},
{
name = center;
position = "{344, 370}";
},
{
name = top;
position = "{344, 740}";
}
);
layerId = "5EE76762-6375-4A5E-A826-D96F22DA5141";
paths = (
{
closed = 1;
nodes = (
"38 513 LINE",
"133 692 LINE",
"291 692 LINE",
"291 44 LINE",
"181 42 LINE",
"181 0 LINE",
"507 0 LINE",
"507 42 LINE",
"397 44 LINE",
"397 692 LINE",
"555 692 LINE",
"650 513 LINE",
"682 521 LINE",
"645 792 LINE",
"613 794 LINE",
"601 740 LINE",
"87 740 LINE",
"75 794 LINE",
"43 792 LINE",
"6 521 LINE"
);
}
);
width = 688;
},
{
anchors = (
{
name = bottom;
position = "{375, 0}";
},
{
name = center;
position = "{362, 366}";
},
{
name = top;
position = "{359, 740}";
}
);
layerId = "E37CEFC3-0F3F-4B77-973B-7BF6C2788C53";
paths = (
{
closed = 1;
nodes = (
"34 493 LINE",
"143 682 LINE",
"271 682 LINE",
"271 56 LINE",
"161 52 LINE",
"161 0 LINE",
"553 0 LINE",
"553 52 LINE",
"443 56 LINE",
"443 682 LINE",
"571 682 LINE",
"680 493 LINE",
"716 501 LINE",
"674 802 LINE",
"636 804 LINE",
"621 740 LINE",
"93 740 LINE",
"78 804 LINE",
"40 802 LINE",
"-2 501 LINE"
);
}
);
width = 714;
}
);
leftKerningGroup = T;
rightKerningGroup = T.right;
rightMetricsKey = "=|T";
unicode = 0054;
},
{
color = 11;
glyphname = T_J;
lastChange = "2019-03-03 17:10:33 +0000";
layers = (
{
components = (
{
alignment = -1;
name = _T.lig;
},
{
alignment = -1;
name = J;
transform = "{1, 0, 0, 1, 569, 0}";
}
);
layerId = "5EE76762-6375-4A5E-A826-D96F22DA5141";
paths = (
{
closed = 1;
nodes = (
"675 692 LINE",
"785 692 LINE",
"785 740 LINE",
"675 740 LINE"
);
}
);
width = 907;
},
{
components = (
{
name = _T.lig;
},
{
alignment = -1;
name = J;
transform = "{1, 0, 0, 1, 566, 0}";
}
);
layerId = "E37CEFC3-0F3F-4B77-973B-7BF6C2788C53";
paths = (
{
closed = 1;
nodes = (
"713 682 LINE",
"856 682 LINE",
"856 740 LINE",
"713 740 LINE"
);
}
);
width = 958;
}
);
leftKerningGroup = T;
leftMetricsKey = T;
rightKerningGroup = J.right;
rightMetricsKey = J;
},
{
color = 11;
glyphname = T_Z;
lastChange = "2019-03-01 21:19:26 +0000";
layers = (
{
components = (
{
name = T;
},
{
alignment = -1;
name = _Z.lig;
transform = "{1, 0, 0, 1, 578, 0}";
}
);
layerId = "5EE76762-6375-4A5E-A826-D96F22DA5141";
paths = (
{
closed = 1;
nodes = (
"423 692 LINE",
"1089 692 LINE",
"1089 740 LINE",
"423 740 LINE"
);
}
);
width = 1242;
},
{
components = (
{
name = T;
},
{
name = _Z.lig;
transform = "{1, 0, 0, 1, 654, 0}";
}
);
layerId = "E37CEFC3-0F3F-4B77-973B-7BF6C2788C53";
paths = (
{
closed = 1;
nodes = (
"423 682 LINE",
"1089 682 LINE",
"1089 740 LINE",
"423 740 LINE"
);
}
);
width = 1288;
}
);
leftKerningGroup = T;
leftMetricsKey = T;
rightKerningGroup = Z.right;
rightMetricsKey = Z;
},
{
color = 3;
glyphname = T_l;
lastChange = "2019-03-03 17:10:33 +0000";
layers = (
{
components = (
{
name = _T.lig;
}
);
layerId = "5EE76762-6375-4A5E-A826-D96F22DA5141";
paths = (
{
closed = 1;
nodes = (
"667 705 LINE",
"667 40 LINE",
"587 38 LINE",
"587 0 LINE",
"843 0 LINE",
"843 38 LINE",
"763 40 LINE",
"763 804 LINE",
"701 800 LINE"
);
}
);
width = 859;
},
{
components = (
{
name = _T.lig;
}
);
layerId = "E37CEFC3-0F3F-4B77-973B-7BF6C2788C53";
paths = (
{
closed = 1;
nodes = (
"675 712 LINE",
"675 52 LINE",
"595 48 LINE",
"595 0 LINE",
"925 0 LINE",
"925 48 LINE",
"835 52 LINE",
"835 804 LINE",
"709 800 LINE"
);
}
);
width = 925;
}
);
leftKerningGroup = T;
leftMetricsKey = T;
rightMetricsKey = l;
},
{
color = 7;
glyphname = U;
lastChange = "2019-03-03 09:38:47 +0000";
layers = (
{
anchors = (
{
name = bottom;
position = "{393, 0}";
},
{
name = dieresis;
position = "{420, 520}";
},
{
name = ogonek;
position = "{478, 10}";
},
{
name = top;
position = "{420, 740}";
},
{
name = topright;
position = "{757, 740}";
}
);
layerId = "5EE76762-6375-4A5E-A826-D96F22DA5141";
paths = (
{
closed = 1;
nodes = (
"104 696 LINE",
"104 300 LINE SMOOTH",
"104 49 OFFCURVE",
"247 -10 OFFCURVE",
"398 -10 CURVE SMOOTH",
"550 -10 OFFCURVE",
"681 49 OFFCURVE",
"681 300 CURVE SMOOTH",
"681 696 LINE",
"771 698 LINE",
"771 740 LINE",
"519 740 LINE",
"519 698 LINE",
"619 694 LINE",
"619 288 LINE SMOOTH",
"619 80 OFFCURVE",
"496 48 OFFCURVE",
"411 48 CURVE SMOOTH",
"327 48 OFFCURVE",
"212 79 OFFCURVE",
"212 288 CURVE SMOOTH",
"212 696 LINE",
"312 698 LINE",
"312 740 LINE",
"14 740 LINE",
"14 698 LINE"
);
}
);
width = 781;
},
{
anchors = (
{
name = bottom;
position = "{379, 0}";
},
{
name = dieresis;
position = "{436, 450}";
},
{
name = ogonek;
position = "{506, 10}";
},
{
name = top;
position = "{432, 740}";
},
{
name = topright;
position = "{743, 740}";
}
);
layerId = "E37CEFC3-0F3F-4B77-973B-7BF6C2788C53";
paths = (
{
closed = 1;
nodes = (
"96 684 LINE",
"96 292 LINE SMOOTH",
"96 51 OFFCURVE",
"247 -10 OFFCURVE",
"398 -10 CURVE SMOOTH",
"550 -10 OFFCURVE",
"670 51 OFFCURVE",
"670 292 CURVE SMOOTH",
"670 684 LINE",
"760 688 LINE",
"760 740 LINE",
"488 740 LINE",
"488 688 LINE",
"600 682 LINE",
"600 268 LINE SMOOTH",
"600 110 OFFCURVE",
"521 58 OFFCURVE",
"431 58 CURVE SMOOTH",
"341 58 OFFCURVE",
"272 109 OFFCURVE",
"272 268 CURVE SMOOTH",
"272 684 LINE",
"362 688 LINE",
"362 740 LINE",
"6 740 LINE",
"6 688 LINE"
);
}
);
width = 762;
}
);
leftKerningGroup = U;
leftMetricsKey = "=H-18";
rightKerningGroup = U.right;
rightMetricsKey = "=|U-4";
unicode = 0055;
},
{
color = 7;
glyphname = V;
lastChange = "2019-03-02 18:05:04 +0000";
layers = (
{
anchors = (
{
name = bottom;
position = "{338, 0}";
},
{
name = top;
position = "{338, 740}";
}
);
layerId = "5EE76762-6375-4A5E-A826-D96F22DA5141";
paths = (
{
closed = 1;
nodes = (
"60 696 LINE",
"316 0 LINE",
"360 0 LINE",
"616 696 LINE",
"676 698 LINE",
"676 740 LINE",
"469 740 LINE",
"469 698 LINE",
"559 694 LINE",
"367 168 LINE",
"365 168 LINE",
"175 696 LINE",
"266 698 LINE",
"266 740 LINE",
"0 740 LINE",
"0 698 LINE"
);
}
);
width = 676;
},
{
anchors = (
{
name = bottom;
position = "{347, 0}";
},
{
name = top;
position = "{347, 740}";
}
);
layerId = "E37CEFC3-0F3F-4B77-973B-7BF6C2788C53";
paths = (
{
closed = 1;
nodes = (
"50 686 LINE",
"322 0 LINE",
"382 0 LINE",
"638 686 LINE",
"688 688 LINE",
"688 740 LINE",
"483 740 LINE",
"483 688 LINE",
"571 684 LINE",
"408 248 LINE",
"406 248 LINE",
"238 686 LINE",
"329 688 LINE",
"329 740 LINE",
"0 740 LINE",
"0 688 LINE"
);
}
);
width = 686;
}
);
leftKerningGroup = VW;
rightKerningGroup = VW.right;
unicode = 0056;
},
{
color = 7;
glyphname = W;
lastChange = "2019-03-03 17:10:33 +0000";
layers = (
{
anchors = (
{
name = bottom;
position = "{482, 0}";
},
{
name = top;
position = "{483, 740}";
}
);
layerId = "5EE76762-6375-4A5E-A826-D96F22DA5141";
paths = (
{
closed = 1;
nodes = (
"60 696 LINE",
"290 0 LINE",
"344 0 LINE",
"505 488 LINE",
"475 563 LINE",
"346 168 LINE",
"344 168 LINE",
"175 696 LINE",
"266 698 LINE",
"266 740 LINE",
"0 740 LINE",
"0 698 LINE"
);
},
{
closed = 1;
nodes = (
"620 0 LINE",
"674 0 LINE",
"882 696 LINE",
"942 698 LINE",
"942 740 LINE",
"735 740 LINE",
"735 698 LINE",
"825 694 LINE",
"671 172 LINE",
"669 172 LINE",
"499 740 LINE",
"389 740 LINE",
"388 738 LINE"
);
}
);
width = 942;
},
{
anchors = (
{
name = bottom;
position = "{502, 0}";
},
{
name = top;
position = "{534, 740}";
}
);
layerId = "E37CEFC3-0F3F-4B77-973B-7BF6C2788C53";
paths = (
{
closed = 1;
nodes = (
"60 686 LINE",
"298 0 LINE",
"378 0 LINE",
"571 579 LINE",
"507 579 LINE",
"394 248 LINE",
"392 248 LINE",
"245 686 LINE",
"336 688 LINE",
"336 740 LINE",
"0 740 LINE",
"0 688 LINE"
);
},
{
closed = 1;
nodes = (
"648 0 LINE",
"728 0 LINE",
"930 686 LINE",
"984 688 LINE",
"984 740 LINE",
"777 740 LINE",
"777 688 LINE",
"863 684 LINE",
"738 258 LINE",
"736 258 LINE",
"590 740 LINE",
"406 740 LINE",
"405 738 LINE"
);
}
);
width = 982;
},
{
anchors = (
{
name = bottom;
position = "{482, 0}";
},
{
name = top;
position = "{473, 740}";
}
);
associatedMasterId = "5EE76762-6375-4A5E-A826-D96F22DA5141";
layerId = "9375D15E-E0C0-4F62-AB07-E0147E4F8E6B";
name = "Jan 20 19, 12:31";
paths = (
{
closed = 1;
nodes = (
"360 117 LINE",
"173 696 LINE",
"264 698 LINE",
"264 740 LINE",
"0 740 LINE",
"0 698 LINE",
"60 696 LINE",
"290 0 LINE",
"314 0 LINE"
);
},
{
closed = 1;
nodes = (
"475 563 LINE",
"322 89 LINE",
"292 0 LINE",
"344 0 LINE",
"505 488 LINE"
);
},
{
closed = 1;
nodes = (
"735 740 LINE",
"735 698 LINE",
"825 694 LINE",
"648 89 LINE",
"622 0 LINE",
"674 0 LINE",
"882 696 LINE",
"942 698 LINE",
"942 740 LINE"
);
},
{
closed = 1;
nodes = (
"400 696 LINE",
"620 0 LINE",
"644 0 LINE",
"686 115 LINE",
"513 696 LINE",
"604 698 LINE",
"604 740 LINE",
"340 740 LINE",
"340 698 LINE"
);
}
);
width = 942;
},
{
anchors = (
{
name = bottom;
position = "{502, 0}";
},
{
name = top;
position = "{534, 740}";
}
);
associatedMasterId = "E37CEFC3-0F3F-4B77-973B-7BF6C2788C53";
layerId = "966650EC-F052-4E45-ADA5-8EAEF2B6B02C";
name = "Jan 20 19, 12:35";
paths = (
{
closed = 1;
nodes = (
"422 155 LINE",
"245 686 LINE",
"336 688 LINE",
"336 740 LINE",
"0 740 LINE",
"0 688 LINE",
"60 686 LINE",
"298 0 LINE",
"322 0 LINE"
);
},
{
closed = 1;
nodes = (
"505 579 LINE",
"360 130 LINE",
"322 0 LINE",
"378 0 LINE",
"571 579 LINE"
);
},
{
closed = 1;
nodes = (
"786 740 LINE",
"786 688 LINE",
"872 684 LINE",
"708 130 LINE",
"672 0 LINE",
"728 0 LINE",
"940 686 LINE",
"994 688 LINE",
"994 740 LINE"
);
},
{
closed = 1;
nodes = (
"425 686 LINE",
"648 0 LINE",
"672 0 LINE",
"774 155 LINE",
"610 686 LINE",
"700 688 LINE",
"700 740 LINE",
"365 740 LINE",
"365 688 LINE"
);
}
);
width = 1004;
}
);
leftKerningGroup = VW;
leftMetricsKey = "=V";
rightKerningGroup = VW.right;
rightMetricsKey = "=V";
unicode = 0057;
},
{
color = 7;
glyphname = X;
lastChange = "2019-03-03 09:58:10 +0000";
layers = (
{
anchors = (
{
name = bottom;
position = "{341, 0}";
},
{
name = top;
position = "{341, 740}";
}
);
layerId = "5EE76762-6375-4A5E-A826-D96F22DA5141";
paths = (
{
closed = 1;
nodes = (
"78 696 LINE",
"489 44 LINE",
"398 42 LINE",
"398 0 LINE",
"677 0 LINE",
"677 42 LINE",
"617 44 LINE",
"206 696 LINE",
"297 698 LINE",
"297 740 LINE",
"18 740 LINE",
"18 698 LINE"
);
},
{
closed = 1;
nodes = (
"220 0 LINE",
"220 42 LINE",
"130 44 LINE",
"364 386 LINE",
"298 386 LINE",
"64 44 LINE",
"4 42 LINE",
"4 0 LINE"
);
},
{
closed = 1;
nodes = (
"369 354 LINE",
"603 696 LINE",
"663 698 LINE",
"663 740 LINE",
"447 740 LINE",
"447 698 LINE",
"537 696 LINE",
"304 354 LINE"
);
}
);
width = 681;
},
{
anchors = (
{
name = bottom;
position = "{371, 0}";
},
{
name = top;
position = "{371, 740}";
}
);
layerId = "E37CEFC3-0F3F-4B77-973B-7BF6C2788C53";
paths = (
{
closed = 1;
nodes = (
"74 686 LINE",
"467 54 LINE",
"376 52 LINE",
"376 0 LINE",
"734 0 LINE",
"734 52 LINE",
"674 54 LINE",
"281 686 LINE",
"372 688 LINE",
"372 740 LINE",
"14 740 LINE",
"14 688 LINE"
);
},
{
closed = 1;
nodes = (
"249 0 LINE",
"249 52 LINE",
"158 54 LINE",
"397 396 LINE",
"321 396 LINE",
"82 54 LINE",
"12 52 LINE",
"12 0 LINE"
);
},
{
closed = 1;
nodes = (
"419 344 LINE",
"658 686 LINE",
"728 688 LINE",
"728 740 LINE",
"491 740 LINE",
"491 688 LINE",
"582 686 LINE",
"343 344 LINE"
);
}
);
width = 744;
}
);
leftKerningGroup = X;
rightKerningGroup = X.right;
unicode = 0058;
},
{
color = 7;
glyphname = Y;
lastChange = "2019-03-03 17:10:33 +0000";
layers = (
{
anchors = (
{
name = bottom;
position = "{346, 0}";
},
{
name = top;
position = "{378, 740}";
},
{
name = topleft;
position = "{20, 740}";
}
);
layerId = "5EE76762-6375-4A5E-A826-D96F22DA5141";
paths = (
{
closed = 1;
nodes = (
"509 0 LINE",
"509 42 LINE",
"399 46 LINE",
"399 350 LINE",
"293 350 LINE",
"293 46 LINE",
"183 42 LINE",
"183 0 LINE"
);
},
{
closed = 1;
nodes = (
"60 696 LINE",
"316 260 LINE",
"374 260 LINE",
"631 696 LINE",
"691 698 LINE",
"691 740 LINE",
"479 740 LINE",
"479 698 LINE",
"569 696 LINE",
"376 364 LINE",
"185 696 LINE",
"276 698 LINE",
"276 740 LINE",
"0 740 LINE",
"0 698 LINE"
);
}
);
width = 691;
},
{
anchors = (
{
name = bottom;
position = "{347, 0}";
},
{
name = top;
position = "{411, 740}";
},
{
name = topleft;
position = "{20, 740}";
}
);
layerId = "E37CEFC3-0F3F-4B77-973B-7BF6C2788C53";
paths = (
{
closed = 1;
nodes = (
"548 0 LINE",
"548 52 LINE",
"438 56 LINE",
"438 400 LINE",
"266 400 LINE",
"266 56 LINE",
"156 52 LINE",
"156 0 LINE"
);
},
{
closed = 1;
nodes = (
"60 686 LINE",
"310 240 LINE",
"390 240 LINE",
"640 686 LINE",
"694 688 LINE",
"694 740 LINE",
"480 740 LINE",
"480 688 LINE",
"566 680 LINE",
"413 405 LINE",
"260 686 LINE",
"351 688 LINE",
"351 740 LINE",
"0 740 LINE",
"0 688 LINE"
);
}
);
width = 692;
}
);
leftKerningGroup = Y;
leftMetricsKey = "=V";
rightKerningGroup = Y.right;
rightMetricsKey = "=V";
unicode = 0059;
},
{
color = 7;
glyphname = Z;
lastChange = "2019-03-01 13:25:31 +0000";
layers = (
{
anchors = (
{
name = bottom;
position = "{337, 0}";
},
{
name = top;
position = "{329, 740}";
}
);
components = (
{
name = _Z.lig;
}
);
layerId = "5EE76762-6375-4A5E-A826-D96F22DA5141";
paths = (
{
closed = 1;
nodes = (
"60 503 LINE",
"174 692 LINE",
"472 692 LINE",
"472 740 LINE",
"127 740 LINE",
"117 794 LINE",
"85 792 LINE",
"28 511 LINE"
);
}
);
width = 664;
},
{
anchors = (
{
name = bottom;
position = "{317, 0}";
},
{
name = top;
position = "{317, 740}";
}
);
components = (
{
name = _Z.lig;
}
);
layerId = "E37CEFC3-0F3F-4B77-973B-7BF6C2788C53";
paths = (
{
closed = 1;
nodes = (
"48 483 LINE",
"163 682 LINE",
"506 682 LINE",
"506 740 LINE",
"107 740 LINE",
"94 804 LINE",
"56 802 LINE",
"10 491 LINE"
);
}
);
width = 634;
}
);
leftKerningGroup = Z;
rightKerningGroup = Z.right;
unicode = 005A;
},
{
color = 7;
glyphname = AE;
lastChange = "2019-03-01 20:57:25 +0000";
layers = (
{
associatedMasterId = "5EE76762-6375-4A5E-A826-D96F22DA5141";
layerId = "91D014F8-7F43-4767-ACD0-5808BC64FE05";
name = "Sep 30 18, 15:31";
paths = (
{
closed = 1;
nodes = (
"353 740 LINE",
"353 698 LINE",
"428 696 LINE",
"467 692 LINE",
"906 692 LINE",
"906 740 LINE"
);
},
{
closed = 1;
nodes = (
"533 48 LINE",
"533 0 LINE",
"920 0 LINE",
"920 48 LINE"
);
},
{
closed = 1;
nodes = (
"937 543 LINE",
"969 551 LINE",
"910 782 LINE",
"880 784 LINE",
"868 740 LINE",
"812 710 LINE"
);
},
{
closed = 1;
nodes = (
"801 362 LINE",
"834 231 LINE",
"866 233 LINE",
"866 483 LINE",
"834 485 LINE",
"804 410 LINE",
"533 410 LINE",
"533 362 LINE"
);
},
{
closed = 1;
nodes = (
"214 0 LINE",
"214 42 LINE",
"124 44 LINE",
"515 740 LINE",
"452 740 LINE",
"60 44 LINE",
"0 42 LINE",
"0 0 LINE"
);
},
{
closed = 1;
nodes = (
"222 278 LINE",
"196 230 LINE",
"536 230 LINE",
"536 278 LINE"
);
},
{
closed = 1;
nodes = (
"597 0 LINE",
"597 740 LINE",
"491 740 LINE",
"491 44 LINE",
"401 42 LINE",
"401 0 LINE"
);
},
{
closed = 1;
nodes = (
"912 0 LINE",
"958 0 LINE",
"1013 219 LINE",
"981 227 LINE",
"862 48 LINE"
);
}
);
width = 1031;
},
{
components = (
{
alignment = -1;
name = E;
transform = "{1, 0, 0, 1, 368, 0}";
},
{
name = _A.lig;
}
);
layerId = "5EE76762-6375-4A5E-A826-D96F22DA5141";
width = 1034;
},
{
components = (
{
alignment = -1;
name = E;
transform = "{1, 0, 0, 1, 381, 0}";
},
{
name = _A.lig;
}
);
layerId = "E37CEFC3-0F3F-4B77-973B-7BF6C2788C53";
width = 1080;
}
);
leftKerningGroup = Alig;
leftMetricsKey = "=A";
rightKerningGroup = E.right;
rightMetricsKey = "=E";
unicode = 00C6;
},
{
glyphname = Hbar;
lastChange = "2019-03-01 12:17:12 +0000";
layers = (
{
components = (
{
name = H;
transform = "{1, 0, 0, 1, 8, 0}";
}
);
layerId = "5EE76762-6375-4A5E-A826-D96F22DA5141";
paths = (
{
closed = 1;
nodes = (
"44 582 LINE",
"44 534 LINE",
"772 534 LINE",
"772 582 LINE"
);
}
);
width = 816;
},
{
components = (
{
name = H;
transform = "{1, 0, 0, 1, 8, 0}";
}
);
layerId = "E37CEFC3-0F3F-4B77-973B-7BF6C2788C53";
paths = (
{
closed = 1;
nodes = (
"42 582 LINE",
"42 520 LINE",
"799 520 LINE",
"799 582 LINE"
);
}
);
width = 841;
}
);
leftMetricsKey = "=H+8";
rightMetricsKey = "=H+8";
unicode = 0126;
},
{
color = 7;
glyphname = OE;
lastChange = "2019-03-01 20:26:03 +0000";
layers = (
{
anchors = (
{
name = bottom;
position = "{427, 0}";
},
{
name = center;
position = "{427, 370}";
},
{
name = ogonek;
position = "{736, 10}";
},
{
name = top;
position = "{427, 740}";
},
{
name = topleft;
position = "{60, 740}";
},
{
name = topright;
position = "{793, 740}";
}
);
associatedMasterId = "5EE76762-6375-4A5E-A826-D96F22DA5141";
layerId = "89859E59-318B-4190-A1F3-B0B660C6D208";
name = "Sep 30 18, 15:31";
paths = (
{
closed = 1;
nodes = (
"580 124 LINE",
"539 79 OFFCURVE",
"475 32 OFFCURVE",
"394 32 CURVE SMOOTH",
"258 32 OFFCURVE",
"146 169 OFFCURVE",
"146 378 CURVE SMOOTH",
"146 564 OFFCURVE",
"239 708 OFFCURVE",
"379 708 CURVE SMOOTH",
"463 708 OFFCURVE",
"537 656 OFFCURVE",
"582 607 CURVE",
"582 699 LINE",
"526 733 OFFCURVE",
"459 750 OFFCURVE",
"390 750 CURVE SMOOTH",
"180 750 OFFCURVE",
"32 600 OFFCURVE",
"32 365 CURVE SMOOTH",
"32 109 OFFCURVE",
"197 -10 OFFCURVE",
"383 -10 CURVE SMOOTH",
"458 -10 OFFCURVE",
"525 9 OFFCURVE",
"580 44 CURVE"
);
},
{
closed = 1;
nodes = (
"531 520 LINE",
"531 44 LINE",
"441 0 LINE",
"637 0 LINE",
"637 520 LINE"
);
},
{
closed = 1;
nodes = (
"637 502 LINE",
"637 740 LINE",
"441 740 LINE",
"531 696 LINE",
"531 502 LINE"
);
},
{
closed = 1;
nodes = (
"563 740 LINE",
"563 692 LINE",
"946 692 LINE",
"946 740 LINE"
);
},
{
closed = 1;
nodes = (
"573 48 LINE",
"573 0 LINE",
"960 0 LINE",
"960 48 LINE"
);
},
{
closed = 1;
nodes = (
"977 543 LINE",
"1009 551 LINE",
"950 782 LINE",
"920 784 LINE",
"908 740 LINE",
"852 710 LINE"
);
},
{
closed = 1;
nodes = (
"841 362 LINE",
"874 231 LINE",
"906 233 LINE",
"906 483 LINE",
"874 485 LINE",
"844 410 LINE",
"573 410 LINE",
"573 362 LINE"
);
},
{
closed = 1;
nodes = (
"952 0 LINE",
"998 0 LINE",
"1053 219 LINE",
"1021 227 LINE",
"902 48 LINE"
);
}
);
width = 1071;
},
{
anchors = (
{
name = bottom;
position = "{453, 0}";
},
{
name = center;
position = "{453, 370}";
},
{
name = ogonek;
position = "{762, 10}";
},
{
name = top;
position = "{453, 740}";
},
{
name = topleft;
position = "{86, 740}";
},
{
name = topright;
position = "{819, 740}";
}
);
components = (
{
name = _E.lig;
transform = "{1, 0, 0, 1, 663, 0}";
}
);
layerId = "5EE76762-6375-4A5E-A826-D96F22DA5141";
paths = (
{
closed = 1;
nodes = (
"586 124 LINE",
"545 79 OFFCURVE",
"481 32 OFFCURVE",
"400 32 CURVE SMOOTH",
"264 32 OFFCURVE",
"152 169 OFFCURVE",
"152 378 CURVE SMOOTH",
"152 564 OFFCURVE",
"245 708 OFFCURVE",
"385 708 CURVE SMOOTH",
"469 708 OFFCURVE",
"543 656 OFFCURVE",
"588 607 CURVE",
"588 699 LINE",
"532 733 OFFCURVE",
"465 750 OFFCURVE",
"396 750 CURVE SMOOTH",
"186 750 OFFCURVE",
"38 600 OFFCURVE",
"38 365 CURVE SMOOTH",
"38 109 OFFCURVE",
"203 -10 OFFCURVE",
"389 -10 CURVE SMOOTH",
"464 -10 OFFCURVE",
"531 9 OFFCURVE",
"586 44 CURVE"
);
},
{
closed = 1;
nodes = (
"663 0 LINE",
"663 740 LINE",
"452 740 LINE",
"557 696 LINE",
"557 44 LINE",
"452 0 LINE"
);
}
);
width = 1101;
},
{
anchors = (
{
name = bottom;
position = "{395, 0}";
},
{
name = center;
position = "{395, 370}";
},
{
name = ogonek;
position = "{699, 10}";
},
{
name = top;
position = "{397, 740}";
},
{
name = topleft;
position = "{34, 740}";
},
{
name = topright;
position = "{755, 740}";
}
);
components = (
{
name = _E.lig;
transform = "{1, 0, 0, 1, 368, 0}";
}
);
layerId = "E37CEFC3-0F3F-4B77-973B-7BF6C2788C53";
paths = (
{
closed = 1;
nodes = (
"551 114 LINE",
"507 67 OFFCURVE",
"457 44 OFFCURVE",
"410 44 CURVE SMOOTH",
"299 44 OFFCURVE",
"236 177 OFFCURVE",
"236 392 CURVE SMOOTH",
"236 580 OFFCURVE",
"289 696 OFFCURVE",
"391 696 CURVE SMOOTH",
"443 696 OFFCURVE",
"499 666 OFFCURVE",
"546 609 CURVE",
"598 684 LINE",
"537 728 OFFCURVE",
"461 750 OFFCURVE",
"380 750 CURVE SMOOTH",
"177 750 OFFCURVE",
"30 614 OFFCURVE",
"30 373 CURVE SMOOTH",
"30 115 OFFCURVE",
"195 -10 OFFCURVE",
"389 -10 CURVE SMOOTH",
"474 -10 OFFCURVE",
"549 14 OFFCURVE",
"608 59 CURVE"
);
},
{
closed = 1;
nodes = (
"654 0 LINE",
"654 740 LINE",
"392 740 LINE",
"482 684 LINE",
"482 56 LINE",
"392 0 LINE"
);
}
);
width = 1067;
}
);
leftKerningGroup = COGQ;
leftMetricsKey = "=O";
rightKerningGroup = E.right;
rightMetricsKey = "=E";
unicode = 0152;
},
{
glyphname = Uring;
lastChange = "2019-03-01 20:26:53 +0000";
layers = (
{
anchors = (
{
name = bottom;
position = "{395, 0}";
},
{
name = ogonek;
position = "{480, 10}";
},
{
name = top;
position = "{422, 740}";
},
{
name = topright;
position = "{759, 740}";
}
);
components = (
{
name = ringcomb.case;
transform = "{1, 0, 0, 1, 299, 0}";
}
);
layerId = "5EE76762-6375-4A5E-A826-D96F22DA5141";
paths = (
{
closed = 1;
nodes = (
"106 696 LINE",
"106 300 LINE SMOOTH",
"106 49 OFFCURVE",
"249 -10 OFFCURVE",
"400 -10 CURVE SMOOTH",
"552 -10 OFFCURVE",
"683 49 OFFCURVE",
"683 300 CURVE SMOOTH",
"683 696 LINE",
"773 698 LINE",
"773 740 LINE",
"521 740 LINE",
"521 698 LINE",
"621 694 LINE",
"621 288 LINE SMOOTH",
"621 80 OFFCURVE",
"498 48 OFFCURVE",
"413 48 CURVE SMOOTH",
"329 48 OFFCURVE",
"214 79 OFFCURVE",
"214 288 CURVE SMOOTH",
"214 696 LINE",
"314 698 LINE",
"314 740 LINE",
"16 740 LINE",
"16 698 LINE"
);
}
);
width = 785;
},
{
anchors = (
{
name = bottom;
position = "{385, 0}";
},
{
name = ogonek;
position = "{692, 10}";
},
{
name = top;
position = "{431, 740}";
},
{
name = topright;
position = "{749, 740}";
}
);
components = (
{
name = ringcomb.case;
transform = "{1, 0, 0, 1, 246, 0}";
}
);
layerId = "E37CEFC3-0F3F-4B77-973B-7BF6C2788C53";
paths = (
{
closed = 1;
nodes = (
"98 684 LINE",
"98 282 LINE SMOOTH",
"98 51 OFFCURVE",
"239 -10 OFFCURVE",
"396 -10 CURVE SMOOTH",
"552 -10 OFFCURVE",
"675 51 OFFCURVE",
"675 282 CURVE SMOOTH",
"675 684 LINE",
"765 688 LINE",
"765 740 LINE",
"605 740 LINE",
"605 688 LINE",
"605 682 LINE",
"605 278 LINE SMOOTH",
"605 110 OFFCURVE",
"521 58 OFFCURVE",
"429 58 CURVE SMOOTH",
"337 58 OFFCURVE",
"270 109 OFFCURVE",
"270 278 CURVE SMOOTH",
"270 684 LINE",
"270 688 LINE",
"270 740 LINE",
"8 740 LINE",
"8 688 LINE"
);
}
);
width = 769;
}
);
leftKerningGroup = U;
rightKerningGroup = U.right;
unicode = 016E;
},
{
color = 7;
glyphname = Eng;
lastChange = "2019-03-01 20:25:33 +0000";
layers = (
{
components = (
{
name = N;
}
);
layerId = "5EE76762-6375-4A5E-A826-D96F22DA5141";
paths = (
{
closed = 1;
nodes = (
"422 -195 OFFCURVE",
"475 -210 OFFCURVE",
"519 -210 CURVE SMOOTH",
"605 -210 OFFCURVE",
"671 -152 OFFCURVE",
"671 -10 CURVE SMOOTH",
"671 20 LINE",
"613 20 LINE",
"613 -20 LINE SMOOTH",
"613 -79 OFFCURVE",
"597 -144 OFFCURVE",
"557 -144 CURVE SMOOTH",
"524 -144 OFFCURVE",
"510 -99 OFFCURVE",
"470 -99 CURVE SMOOTH",
"447 -99 OFFCURVE",
"422 -114 OFFCURVE",
"422 -147 CURVE SMOOTH"
);
}
);
width = 767;
},
{
components = (
{
name = N;
}
);
layerId = "E37CEFC3-0F3F-4B77-973B-7BF6C2788C53";
paths = (
{
closed = 1;
nodes = (
"431 -175 OFFCURVE",
"486 -210 OFFCURVE",
"562 -210 CURVE SMOOTH",
"698 -210 OFFCURVE",
"719 -104 OFFCURVE",
"719 -20 CURVE SMOOTH",
"719 45 LINE",
"655 10 LINE",
"655 -30 LINE SMOOTH",
"655 -83 OFFCURVE",
"641 -131 OFFCURVE",
"602 -131 CURVE SMOOTH",
"551 -131 OFFCURVE",
"563 -50 OFFCURVE",
"496 -50 CURVE SMOOTH",
"463 -50 OFFCURVE",
"431 -69 OFFCURVE",
"431 -115 CURVE SMOOTH"
);
}
);
width = 807;
}
);
leftKerningGroup = MN;
leftMetricsKey = "=N";
rightKerningGroup = N.right;
rightMetricsKey = "=N";
unicode = 014A;
},
{
color = 7;
glyphname = Thorn;
lastChange = "2019-03-01 20:39:39 +0000";
layers = (
{
layerId = "5EE76762-6375-4A5E-A826-D96F22DA5141";
paths = (
{
closed = 1;
nodes = (
"406 539 OFFCURVE",
"487 487 OFFCURVE",
"487 370 CURVE SMOOTH",
"487 276 OFFCURVE",
"436 209 OFFCURVE",
"282 209 CURVE SMOOTH",
"182 209 LINE",
"182 167 LINE",
"272 167 LINE SMOOTH",
"476 167 OFFCURVE",
"601 233 OFFCURVE",
"601 381 CURVE SMOOTH",
"601 523 OFFCURVE",
"488 581 OFFCURVE",
"282 581 CURVE SMOOTH",
"180 581 LINE",
"180 539 LINE",
"277 539 LINE SMOOTH"
);
},
{
closed = 1;
nodes = (
"318 0 LINE",
"318 42 LINE",
"228 44 LINE",
"228 696 LINE",
"318 698 LINE",
"318 740 LINE",
"32 740 LINE",
"32 698 LINE",
"122 696 LINE",
"122 44 LINE",
"32 42 LINE",
"32 0 LINE"
);
}
);
width = 617;
},
{
layerId = "E37CEFC3-0F3F-4B77-973B-7BF6C2788C53";
paths = (
{
closed = 1;
nodes = (
"404 522 OFFCURVE",
"467 488 OFFCURVE",
"467 375 CURVE SMOOTH",
"467 277 OFFCURVE",
"419 220 OFFCURVE",
"292 220 CURVE SMOOTH",
"242 220 LINE",
"242 168 LINE",
"322 168 LINE SMOOTH",
"508 168 OFFCURVE",
"647 229 OFFCURVE",
"647 383 CURVE SMOOTH",
"647 526 OFFCURVE",
"526 574 OFFCURVE",
"360 574 CURVE SMOOTH",
"240 574 LINE",
"240 522 LINE",
"305 522 LINE SMOOTH"
);
},
{
closed = 1;
nodes = (
"376 0 LINE",
"376 52 LINE",
"286 56 LINE",
"286 684 LINE",
"376 688 LINE",
"376 740 LINE",
"24 740 LINE",
"24 688 LINE",
"114 684 LINE",
"114 56 LINE",
"24 52 LINE",
"24 0 LINE"
);
}
);
width = 663;
}
);
leftKerningGroup = BDEFHIKLPR;
leftMetricsKey = "=H";
rightMetricsKey = "=P";
unicode = 00DE;
},
{
color = 8;
glyphname = A.ss01;
lastChange = "2019-03-03 09:57:46 +0000";
layers = (
{
anchors = (
{
name = bottom;
position = "{348, 0}";
},
{
name = ogonek;
position = "{626, 10}";
},
{
name = top;
position = "{343, 740}";
}
);
layerId = "5EE76762-6375-4A5E-A826-D96F22DA5141";
paths = (
{
closed = 1;
nodes = (
"162 278 LINE",
"162 230 LINE",
"496 230 LINE",
"496 278 LINE"
);
},
{
closed = 1;
nodes = (
"207 0 LINE",
"207 42 LINE",
"117 46 LINE",
"315 586 LINE",
"317 586 LINE",
"520 44 LINE",
"429 42 LINE",
"429 0 LINE",
"696 0 LINE",
"696 42 LINE",
"636 44 LINE",
"363 750 LINE",
"319 750 LINE",
"60 44 LINE",
"0 42 LINE",
"0 0 LINE"
);
}
);
width = 696;
},
{
anchors = (
{
name = bottom;
position = "{353, 0}";
},
{
name = ogonek;
position = "{635, 10}";
},
{
name = top;
position = "{353, 740}";
}
);
layerId = "E37CEFC3-0F3F-4B77-973B-7BF6C2788C53";
paths = (
{
closed = 1;
nodes = (
"139 248 LINE",
"139 194 LINE",
"473 194 LINE",
"473 248 LINE"
);
},
{
closed = 1;
nodes = (
"203 0 LINE",
"203 52 LINE",
"115 56 LINE",
"290 522 LINE",
"292 522 LINE",
"472 54 LINE",
"381 52 LINE",
"381 0 LINE",
"706 0 LINE",
"706 52 LINE",
"656 54 LINE",
"374 750 LINE",
"314 750 LINE",
"50 54 LINE",
"0 52 LINE",
"0 0 LINE"
);
}
);
width = 706;
},
{
anchors = (
{
name = bottom;
position = "{348, 0}";
},
{
name = ogonek;
position = "{626, 10}";
},
{
name = top;
position = "{313, 740}";
}
);
associatedMasterId = "5EE76762-6375-4A5E-A826-D96F22DA5141";
layerId = "E4A303E3-8872-4BFD-9C8E-5D9FD333127A";
name = "Jan 20 19, 12:28";
paths = (
{
closed = 1;
nodes = (
"243 738 LINE",
"522 44 LINE",
"431 42 LINE",
"431 0 LINE",
"696 0 LINE",
"696 42 LINE",
"636 44 LINE",
"356 740 LINE",
"244 740 LINE"
);
},
{
closed = 1;
nodes = (
"311 690 LINE",
"60 44 LINE",
"0 42 LINE",
"0 0 LINE",
"207 0 LINE",
"207 42 LINE",
"117 46 LINE",
"355 657 LINE"
);
},
{
closed = 1;
nodes = (
"162 278 LINE",
"162 230 LINE",
"496 230 LINE",
"496 278 LINE"
);
}
);
width = 696;
},
{
anchors = (
{
name = bottom;
position = "{353, 0}";
},
{
name = ogonek;
position = "{635, 10}";
},
{
name = top;
position = "{353, 740}";
}
);
associatedMasterId = "E37CEFC3-0F3F-4B77-973B-7BF6C2788C53";
layerId = "DC9F44C5-DC8D-43BB-9961-183C8FBED33E";
name = "Jan 20 19, 12:33";
paths = (
{
closed = 1;
nodes = (
"203 738 LINE",
"472 54 LINE",
"381 52 LINE",
"381 0 LINE",
"706 0 LINE",
"706 52 LINE",
"656 54 LINE",
"390 740 LINE",
"204 740 LINE"
);
},
{
closed = 1;
nodes = (
"291 690 LINE",
"50 54 LINE",
"0 52 LINE",
"0 0 LINE",
"203 0 LINE",
"203 52 LINE",
"115 64 LINE",
"339 657 LINE"
);
},
{
closed = 1;
nodes = (
"139 248 LINE",
"139 194 LINE",
"473 194 LINE",
"473 248 LINE"
);
}
);
width = 706;
}
);
leftKerningGroup = A;
rightKerningGroup = A.right;
},
